SplineFontDB: 3.0
FontName: Besly*-Medium-Italic
FullName: Besly* Medium Italic
FamilyName: Besly* Medium
Weight: Medium
Copyright: 
Version: 1.000; ttfautohint (v1.3)
ItalicAngle: -13
UnderlinePosition: -100
UnderlineWidth: 50
Ascent: 800
Descent: 200
InvalidEm: 0
sfntRevision: 0x00010000
LayerCount: 2
Layer: 0 0 "Back" 1
Layer: 1 0 "Fore" 0
XUID: [1021 31 -699969567 2669246]
StyleMap: 0x0001
FSType: 0
OS2Version: 3
OS2_WeightWidthSlopeOnly: 0
OS2_UseTypoMetrics: 0
CreationTime: -779900195
ModificationTime: 1453150656
PfmFamily: 17
TTFWeight: 500
TTFWidth: 5
LineGap: 100
VLineGap: 0
Panose: 2 7 5 3 7 6 0 0 0 3
OS2TypoAscent: 800
OS2TypoAOffset: 0
OS2TypoDescent: -200
OS2TypoDOffset: 0
OS2TypoLinegap: 100
OS2WinAscent: 900
OS2WinAOffset: 0
OS2WinDescent: 300
OS2WinDOffset: 0
HheadAscent: 900
HheadAOffset: 0
HheadDescent: -200
HheadDOffset: 0
OS2SubXSize: 650
OS2SubYSize: 700
OS2SubXOff: 31
OS2SubYOff: 140
OS2SupXSize: 650
OS2SupYSize: 700
OS2SupXOff: -107
OS2SupYOff: 480
OS2StrikeYSize: 49
OS2StrikeYPos: 258
OS2CapHeight: 730
OS2XHeight: 450
OS2Vendor: 'pyrs'
OS2CodePages: 20000093.00000000
OS2UnicodeRanges: a00000ff.5000205b.00000000.00000000
Lookup: 4 0 1 "'liga' Standard Ligatures lookup 0" { "'liga' Standard Ligatures lookup 0 subtable"  } ['liga' ('DFLT' <'dflt' > ) ]
Lookup: 6 0 0 "'ordn' Ordinals lookup 1" { "'ordn' Ordinals lookup 1 contextual 0"  "'ordn' Ordinals lookup 1 contextual 1"  "'ordn' Ordinals lookup 1 contextual 2"  "'ordn' Ordinals lookup 1 contextual 3"  } ['ordn' ('DFLT' <'dflt' > ) ]
Lookup: 4 0 0 "'frac' Diagonal Fractions lookup 2" { "'frac' Diagonal Fractions lookup 2 subtable"  } ['frac' ('DFLT' <'dflt' > ) ]
Lookup: 1 0 0 "'sups' Superscript lookup 3" { "'sups' Superscript lookup 3 subtable" ("superior") } ['sups' ('DFLT' <'dflt' > ) ]
Lookup: 1 0 0 "'sinf' Scientific Inferiors lookup 4" { "'sinf' Scientific Inferiors lookup 4 subtable"  } ['sinf' ('DFLT' <'dflt' > ) ]

StartChar: .notdef
Encoding: 65536 -1 0
Width: 809
Flags: W
LayerCount: 2
Fore
SplineSet
588 -237 m 1
 588 835 l 1
 418 299 l 1
 588 -237 l 1
221 835 m 1
 221 -237 l 1
 390 299 l 1
 221 835 l 1
229 -301 m 1
 580 -301 l 1
 404 254 l 1
 229 -301 l 1
229 899 m 1
 404 343 l 1
 580 899 l 1
 229 899 l 1
127 924 m 1
 682 924 l 1
 682 -326 l 1
 127 -326 l 1
 127 924 l 1
EndSplineSet
EndChar

StartChar: exclam
Encoding: 33 33 4
Width: 308
GlyphClass: 2
Flags: W
LayerCount: 2
Fore
SplineSet
184 579 m 2
 182.999023438 661 l 2
 182.999023438 696.333007812 189.666015625 722.166015625 202.999023438 738.499023438 c 0
 216.33203125 754.83203125 234.33203125 762.999023438 256.999023438 762.999023438 c 0
 279.666015625 762.999023438 296.833007812 755.999023438 308.5 741.999023438 c 0
 320.166992188 727.999023438 326 711.666015625 326 692.999023438 c 0
 326 674.33203125 320.5 651.999023438 309.5 625.999023438 c 0
 299.166992188 600.666015625 286 569.333007812 270 532 c 0
 226 428 194.333007812 325.333007812 175 224 c 1
 150 224 l 1
 172.666992188 358 184 476.333007812 184 579 c 2
60.9990234375 53 m 0
 60.9990234375 71 67.4990234375 86.5 80.4990234375 99.5 c 0
 93.4990234375 112.5 108.999023438 119 126.999023438 119 c 0
 144.999023438 119 160.499023438 112.5 173.499023438 99.5 c 0
 186.499023438 86.5 192.999023438 71 192.999023438 53 c 0
 192.999023438 35 186.499023438 19.5 173.499023438 6.5 c 0
 160.499023438 -6.5 144.999023438 -13 126.999023438 -13 c 0
 108.999023438 -13 93.4990234375 -6.5 80.4990234375 6.5 c 0
 67.4990234375 19.5 60.9990234375 35 60.9990234375 53 c 0
EndSplineSet
EndChar

StartChar: quotedbl
Encoding: 34 34 5
Width: 395
GlyphClass: 2
Flags: W
LayerCount: 2
Fore
SplineSet
338 463 m 1
 346.666992188 501.666992188 351.000976562 536.83203125 351.000976562 568.499023438 c 0
 351.000976562 600.166015625 348.833984375 623.999023438 344.500976562 639.999023438 c 0
 340.16796875 655.999023438 338.000976562 673.166015625 338.000976562 691.499023438 c 0
 338.000976562 709.83203125 344.66796875 726.33203125 358.000976562 740.999023438 c 0
 371.333984375 755.666015625 387.333984375 762.999023438 406.000976562 762.999023438 c 0
 446.000976562 762.999023438 466.000976562 747.33203125 466.000976562 715.999023438 c 0
 466.000976562 701.999023438 462.16796875 688.999023438 454.500976562 676.999023438 c 0
 446.16796875 665.666015625 436.66796875 651.333007812 426.000976562 634 c 0
 395.333984375 587.333007812 374.666992188 530.333007812 364 463 c 1
 338 463 l 1
167.000976562 462.998046875 m 1
 175.66796875 501.665039062 180.001953125 536.830078125 180.001953125 568.497070312 c 0
 180.001953125 600.1640625 177.834960938 623.997070312 173.501953125 639.997070312 c 0
 169.168945312 655.997070312 167.001953125 673.1640625 167.001953125 691.497070312 c 0
 167.001953125 709.830078125 173.668945312 726.330078125 187.001953125 740.997070312 c 0
 201.001953125 755.6640625 217.334960938 762.997070312 236.001953125 762.997070312 c 0
 276.001953125 762.997070312 295.668945312 747.330078125 295.001953125 715.997070312 c 0
 295.001953125 701.997070312 291.168945312 688.997070312 283.501953125 676.997070312 c 0
 275.834960938 665.6640625 266.66796875 651.331054688 256.000976562 633.998046875 c 0
 225.333984375 587.331054688 204.333984375 530.331054688 193.000976562 462.998046875 c 1
 167.000976562 462.998046875 l 1
EndSplineSet
EndChar

StartChar: numbersign
Encoding: 35 35 6
Width: 546
GlyphClass: 2
Flags: W
LayerCount: 2
Fore
SplineSet
197 276 m 1
 366 276 l 1
 398 475 l 1
 229 475 l 1
 197 276 l 1
78 515 m 1
 187 515 l 1
 226 763 l 1
 274 763 l 1
 235 515 l 1
 404 515 l 1
 443 763 l 1
 491 763 l 1
 452 515 l 1
 576 515 l 1
 576 475 l 1
 446 475 l 1
 414 276 l 1
 527 276 l 1
 527 236 l 1
 408 236 l 1
 371 0 l 1
 323 0 l 1
 360 236 l 1
 191 236 l 1
 154 0 l 1
 106 0 l 1
 143 236 l 1
 29 236 l 1
 29 276 l 1
 149 276 l 1
 181 475 l 1
 78 475 l 1
 78 515 l 1
EndSplineSet
EndChar

StartChar: dollar
Encoding: 36 36 7
Width: 594
GlyphClass: 2
Flags: W
LayerCount: 2
Fore
SplineSet
229 599.5 m 0
 205.666992188 577.833007812 194 552.666992188 194 524 c 0
 194 495.333007812 200.333007812 474 213 460 c 0
 225.666992188 446 242 434.333007812 262 425 c 1
 312 647 l 1
 280 637 252.333007812 621.166992188 229 599.5 c 0
434.5 233.500976562 m 0
 418.166992188 249.833984375 398 263.66796875 374 275.000976562 c 1
 316 17.0009765625 l 1
 361.333007812 25.66796875 397.333007812 45.0009765625 424 75.0009765625 c 0
 446.666992188 101.000976562 458.166992188 129.833984375 458.5 161.500976562 c 0
 458.833007812 193.16796875 450.833007812 217.16796875 434.5 233.500976562 c 0
429 653.001953125 m 1
 410.333007812 656.334960938 393.833007812 658.001953125 379.5 658.001953125 c 0
 365.166992188 658.001953125 353.333984375 656.334960938 344.000976562 653.001953125 c 1
 290.000976562 414.001953125 l 1
 302.66796875 409.334960938 315.66796875 405.001953125 329.000976562 401.001953125 c 0
 342.333984375 397.001953125 355.666992188 392.668945312 369 388.001953125 c 1
 429 653.001953125 l 1
200 16.001953125 m 1
 211.333007812 13.3349609375 225 12.001953125 241 12.001953125 c 2
 272 12.001953125 l 2
 276 12.001953125 280.333007812 12.3349609375 285 13.001953125 c 1
 347 287.001953125 l 1
 268 316.001953125 l 1
 200 16.001953125 l 1
265 -12.998046875 m 2
 242.995117188 -12.99609375 l 2
 232.995117188 -12.99609375 216.995117188 -11.3291015625 194.995117188 -7.99609375 c 1
 170.995117188 -114.99609375 l 1
 140.995117188 -114.99609375 l 1
 165.995117188 -1.99609375 l 1
 127.328125 9.3369140625 96.9951171875 27.169921875 74.9951171875 51.5029296875 c 0
 52.9951171875 75.8359375 41.9951171875 103.502929688 41.9951171875 134.502929688 c 0
 41.9951171875 165.502929688 49.162109375 187.169921875 63.4951171875 199.502929688 c 0
 77.828125 211.8359375 94.328125 218.002929688 112.995117188 218.002929688 c 0
 131.662109375 218.002929688 145.329101562 213.002929688 153.99609375 203.002929688 c 0
 162.663085938 193.002929688 166.99609375 180.502929688 166.99609375 165.502929688 c 0
 166.99609375 150.502929688 162.829101562 140.002929688 154.49609375 134.002929688 c 0
 146.163085938 128.002929688 136.830078125 123.669921875 126.497070312 121.002929688 c 0
 116.1640625 118.3359375 106.831054688 115.502929688 98.498046875 112.502929688 c 0
 90.1650390625 109.502929688 85.998046875 102.8359375 85.998046875 92.5029296875 c 0
 85.998046875 82.169921875 93.3310546875 70.169921875 107.998046875 56.5029296875 c 0
 122.665039062 42.8359375 143.998046875 31.6689453125 171.998046875 23.001953125 c 1
 239.998046875 328.001953125 l 1
 207.331054688 342.668945312 184.331054688 357.668945312 170.998046875 373.001953125 c 0
 146.998046875 400.334960938 134.998046875 432.334960938 134.998046875 469.001953125 c 0
 134.998046875 517.668945312 151.998046875 561.3359375 185.998046875 600.002929688 c 0
 219.998046875 639.3359375 263.998046875 664.668945312 317.998046875 676.001953125 c 1
 335.998046875 754.001953125 l 1
 365.998046875 754.001953125 l 1
 348.998046875 681.001953125 l 1
 359.665039062 682.334960938 370.83203125 683.001953125 382.499023438 683.001953125 c 0
 394.166015625 683.001953125 411.666015625 681.334960938 434.999023438 678.001953125 c 1
 451.999023438 754.001953125 l 1
 481.999023438 754.001953125 l 1
 462.999023438 672.001953125 l 1
 493.666015625 662.668945312 519.166015625 648.168945312 539.499023438 628.501953125 c 0
 559.83203125 608.834960938 569.999023438 585.66796875 569.999023438 559.000976562 c 0
 569.999023438 504.333984375 550.666015625 477.000976562 511.999023438 477.000976562 c 0
 499.999023438 477.000976562 488.666015625 480.66796875 477.999023438 488.000976562 c 0
 467.33203125 495.333984375 461.999023438 505.833984375 461.999023438 519.500976562 c 0
 461.999023438 533.16796875 465.166015625 543.000976562 471.499023438 549.000976562 c 0
 477.83203125 555.000976562 484.83203125 560.000976562 492.499023438 564.000976562 c 0
 500.166015625 568.000976562 507.166015625 571.833984375 513.499023438 575.500976562 c 0
 519.83203125 579.16796875 522.999023438 585.16796875 522.999023438 593.500976562 c 0
 522.999023438 601.833984375 516.83203125 610.833984375 504.499023438 620.500976562 c 0
 492.166015625 630.16796875 476.333007812 638.334960938 457 645.001953125 c 1
 397 377.001953125 l 1
 433.666992188 361.668945312 459.666992188 346.001953125 475 330.001953125 c 0
 502.333007812 300.001953125 516 263.001953125 516 219.001953125 c 0
 516 162.334960938 497.333007812 113.334960938 460 72.001953125 c 0
 422 30.001953125 372.333007812 3.6689453125 311 -6.998046875 c 1
 287 -114.998046875 l 1
 257 -114.998046875 l 1
 280 -11.998046875 l 1
 274.666992188 -12.6650390625 269.666992188 -12.998046875 265 -12.998046875 c 2
EndSplineSet
EndChar

StartChar: percent
Encoding: 37 37 8
Width: 913
GlyphClass: 2
Flags: W
LayerCount: 2
Fore
SplineSet
724 372 m 0
 691.333007812 372 663 331 639 249 c 0
 619 181 609 120.666992188 609 68 c 0
 609 30.6669921875 619 12 639 12 c 0
 683.666992188 12 718 74.6669921875 742 200 c 0
 750 242.666992188 754 282 754 318 c 0
 754 354 744 372 724 372 c 0
719.5 19 m 0
 695.166992188 3 670.833007812 -5 646.5 -5 c 0
 622.166992188 -5 602.666992188 -1 588 7 c 0
 573.333007812 15.6669921875 561.333007812 26.6669921875 552 40 c 0
 533.333007812 67.3330078125 524 98.5 524 133.5 c 0
 524 168.5 530 201 542 231 c 0
 554 261 569.5 287.833007812 588.5 311.5 c 0
 607.5 335.166992188 629 354.166992188 653 368.5 c 0
 677 382.833007812 700 390 722 390 c 0
 744 390 762 385.666992188 776 377 c 0
 790 368.333007812 801.666992188 357 811 343 c 0
 829.666992188 315 839 285 839 253 c 0
 839 221 834 190.333007812 824 161 c 0
 814 131.666992188 800.166992188 104.666992188 782.5 80 c 0
 764.833007812 55.3330078125 743.833007812 35 719.5 19 c 0
349.999023438 736 m 0
 317.33203125 736 288.999023438 695 264.999023438 613 c 0
 244.999023438 545 234.999023438 484.666992188 234.999023438 432 c 0
 234.999023438 394.666992188 244.999023438 376 264.999023438 376 c 0
 309.666015625 376 343.999023438 438.666992188 367.999023438 564 c 0
 375.999023438 606.666992188 379.999023438 646 379.999023438 682 c 0
 379.999023438 718 369.999023438 736 349.999023438 736 c 0
345.499023438 383 m 0
 321.166015625 367 296.83203125 359 272.499023438 359 c 0
 248.166015625 359 228.666015625 363 213.999023438 371 c 0
 199.33203125 379.666992188 187.33203125 390.666992188 177.999023438 404 c 0
 159.33203125 431.333007812 149.999023438 462.5 149.999023438 497.5 c 0
 149.999023438 532.5 155.999023438 565 167.999023438 595 c 0
 179.999023438 625 195.499023438 651.833007812 214.499023438 675.5 c 0
 233.499023438 699.166992188 254.999023438 718.166992188 278.999023438 732.5 c 0
 302.999023438 746.833007812 325.999023438 754 347.999023438 754 c 0
 369.999023438 754 387.999023438 749.666992188 401.999023438 741 c 0
 415.999023438 732.333007812 427.666015625 721 436.999023438 707 c 0
 455.666015625 679 464.999023438 649 464.999023438 617 c 0
 464.999023438 585 459.999023438 554.333007812 449.999023438 525 c 0
 439.999023438 495.666992188 426.166015625 468.666992188 408.499023438 444 c 0
 390.83203125 419.333007812 369.83203125 399 345.499023438 383 c 0
815.998046875 752 m 1
 225.998046875 -1 l 1
 166.998046875 -1 l 1
 756.998046875 752 l 1
 815.998046875 752 l 1
EndSplineSet
EndChar

StartChar: ampersand
Encoding: 38 38 9
Width: 864
GlyphClass: 2
Flags: W
LayerCount: 2
Fore
SplineSet
401 713.5 m 0
 385.666992188 697.166992188 378 676.999023438 378 652.999023438 c 0
 378 608.999023438 390.333007812 553.666015625 415 486.999023438 c 1
 481 507.666015625 524.333007812 546.666015625 545 603.999023438 c 0
 551.666992188 622.666015625 555 639.333007812 555 654 c 0
 555 668.666992188 554 680.666992188 552 690 c 0
 550 699.333007812 546 707.333007812 540 714 c 0
 526.666992188 730 504 738 472 738 c 0
 440 738 416.333007812 729.833007812 401 713.5 c 0
454 102.999023438 m 1
 404.666992188 174.33203125 357 277.33203125 311 411.999023438 c 1
 261.666992188 394.666015625 228 370.499023438 210 339.499023438 c 0
 192 308.499023438 183 274.999023438 183 238.999023438 c 0
 183 202.999023438 186.5 172.999023438 193.5 148.999023438 c 0
 200.5 124.999023438 210 104.33203125 222 86.9990234375 c 0
 246.666992188 50.9990234375 279.666992188 32.9990234375 321 32.9990234375 c 0
 344.333007812 32.9990234375 367.833007812 39.33203125 391.5 51.9990234375 c 0
 415.166992188 64.666015625 436 81.666015625 454 102.999023438 c 1
304 436.999023438 m 1
 285.333007812 495.666015625 275.998046875 539.5 275.998046875 568.5 c 0
 275.998046875 597.5 279.665039062 622.833007812 286.998046875 644.5 c 0
 294.331054688 666.833007812 305.998046875 686.666015625 321.998046875 703.999023438 c 0
 358.665039062 743.999023438 411.998046875 763.666015625 481.998046875 762.999023438 c 0
 533.998046875 762.999023438 574.331054688 752.83203125 602.998046875 732.499023438 c 0
 631.665039062 712.166015625 645.998046875 685.999023438 645.998046875 653.999023438 c 0
 645.998046875 615.33203125 624.331054688 577.999023438 580.998046875 541.999023438 c 0
 542.998046875 510.666015625 490.665039062 483.999023438 423.998046875 461.999023438 c 1
 450.665039062 387.999023438 488.998046875 302.999023438 538.998046875 206.999023438 c 1
 556.998046875 234.33203125 573.331054688 263.33203125 587.998046875 293.999023438 c 0
 602.665039062 324.666015625 617.998046875 352.999023438 633.998046875 378.999023438 c 0
 649.998046875 404.999023438 667.831054688 426.666015625 687.498046875 443.999023438 c 0
 707.165039062 461.33203125 730.33203125 469.999023438 756.999023438 469.999023438 c 0
 783.666015625 469.999023438 804.833007812 462.999023438 820.5 448.999023438 c 0
 836.166992188 434.999023438 844 419.166015625 844 401.499023438 c 0
 844 383.83203125 839.5 369.165039062 830.5 357.498046875 c 0
 821.5 345.831054688 808.666992188 339.998046875 792 339.998046875 c 0
 775.333007812 339.998046875 762.5 344.165039062 753.5 352.498046875 c 0
 744.5 360.831054688 740 370.998046875 740 382.998046875 c 2
 743 409.998046875 l 2
 743 423.331054688 737.166992188 429.998046875 725.5 429.998046875 c 0
 713.833007812 429.998046875 702 421.998046875 690 405.998046875 c 0
 678 389.998046875 665.166992188 369.831054688 651.5 345.498046875 c 0
 637.833007812 321.165039062 623 294.165039062 607 264.498046875 c 0
 591 234.831054688 573.666992188 206.331054688 555 178.998046875 c 1
 596.333007812 108.998046875 633.333007812 67.998046875 666 55.998046875 c 0
 676 51.998046875 685.666992188 49.998046875 695 49.998046875 c 0
 716.333007812 49.998046875 738.333007812 57.8310546875 761 73.498046875 c 0
 783.666992188 89.1650390625 804.333984375 110.998046875 823.000976562 138.998046875 c 1
 841.000976562 123.998046875 l 1
 819.66796875 82.6650390625 790.500976562 51.6650390625 753.500976562 30.998046875 c 0
 716.500976562 10.3310546875 679.500976562 -0.001953125 642.500976562 -0.001953125 c 0
 605.500976562 -0.001953125 574.16796875 5.6650390625 548.500976562 16.998046875 c 0
 522.833984375 28.3310546875 497.666992188 48.998046875 473 78.998046875 c 1
 441.666992188 48.998046875 415.666992188 28.998046875 395 18.998046875 c 0
 355 -1.001953125 316 -11.001953125 278 -11.001953125 c 0
 240 -11.001953125 207.833007812 -6.6689453125 181.5 1.998046875 c 0
 155.166992188 11.3310546875 132.666992188 23.998046875 114 39.998046875 c 0
 74 74.6650390625 53.8330078125 120.83203125 53.5 178.499023438 c 0
 53.1669921875 236.166015625 74 287.666015625 116 332.999023438 c 0
 158 378.33203125 220.666992188 412.999023438 304 436.999023438 c 1
EndSplineSet
EndChar

StartChar: quotesingle
Encoding: 39 39 10
Width: 224
GlyphClass: 2
Flags: W
LayerCount: 2
Fore
SplineSet
164 463 m 1
 172.666992188 501.666992188 177.000976562 536.83203125 177.000976562 568.499023438 c 0
 177.000976562 600.166015625 174.833984375 623.999023438 170.500976562 639.999023438 c 0
 166.16796875 655.999023438 164.000976562 673.166015625 164.000976562 691.499023438 c 0
 164.000976562 709.83203125 170.66796875 726.33203125 184.000976562 740.999023438 c 0
 197.333984375 755.666015625 213.333984375 762.999023438 232.000976562 762.999023438 c 0
 272.000976562 762.999023438 292.000976562 747.33203125 292.000976562 715.999023438 c 0
 292.000976562 701.999023438 288.16796875 688.999023438 280.500976562 676.999023438 c 0
 272.16796875 665.666015625 262.66796875 651.333007812 252.000976562 634 c 0
 221.333984375 587.333007812 200.666992188 530.333007812 190 463 c 1
 164 463 l 1
EndSplineSet
EndChar

StartChar: parenleft
Encoding: 40 40 11
Width: 309
GlyphClass: 2
Flags: W
LayerCount: 2
Fore
SplineSet
225 -143 m 1
 197.000976562 -156.000976562 l 1
 146.333984375 -93.333984375 110.166992188 -33.333984375 88.5 23.9990234375 c 0
 66.8330078125 81.33203125 56 135.499023438 56 186.499023438 c 0
 56 237.499023438 62.1669921875 286.33203125 74.5 332.999023438 c 0
 86.8330078125 379.666015625 107 427.333007812 135 476 c 0
 194.333007812 578.666992188 285.333007812 681.333984375 408 784.000976562 c 1
 429 768.000976562 l 1
 341 680.000976562 273 570.000976562 225 438.000976562 c 0
 183.666992188 324.66796875 163 217.66796875 163 117.000976562 c 0
 163 16.333984375 183.666992188 -70.3330078125 225 -143 c 1
EndSplineSet
EndChar

StartChar: parenright
Encoding: 41 41 12
Width: 309
GlyphClass: 2
Flags: W
LayerCount: 2
Fore
SplineSet
150 771 m 1
 177.999023438 784.000976562 l 1
 228.666015625 721.333984375 264.833007812 661.333984375 286.5 604.000976562 c 0
 308.166992188 546.66796875 319 492.500976562 319 441.500976562 c 0
 319 390.500976562 312.833007812 341.66796875 300.5 295.000976562 c 0
 288.166992188 248.333984375 268 200.666992188 240 152 c 0
 180.666992188 49.3330078125 89.6669921875 -53.333984375 -33 -156.000976562 c 1
 -54 -140.000976562 l 1
 34 -52.0009765625 102 57.9990234375 150 189.999023438 c 0
 191.333007812 303.33203125 212 410.33203125 212 510.999023438 c 0
 212 611.666015625 191.333007812 698.333007812 150 771 c 1
EndSplineSet
EndChar

StartChar: asterisk
Encoding: 42 42 13
Width: 443
GlyphClass: 2
Flags: W
LayerCount: 2
Fore
SplineSet
273 336 m 0
 246.333007812 336 232.99609375 350.330078125 232.99609375 378.997070312 c 0
 232.99609375 392.997070312 237.329101562 409.330078125 245.99609375 427.997070312 c 0
 264.663085938 468.6640625 275.99609375 499.331054688 279.99609375 519.998046875 c 1
 275.99609375 521.998046875 l 1
 257.99609375 511.331054688 242.99609375 499.998046875 230.99609375 487.998046875 c 0
 218.99609375 475.998046875 208.329101562 464.831054688 198.99609375 454.498046875 c 0
 189.663085938 444.165039062 180.330078125 435.665039062 170.997070312 428.998046875 c 0
 161.6640625 422.331054688 150.331054688 418.998046875 136.998046875 418.998046875 c 0
 123.665039062 418.998046875 113.665039062 422.998046875 106.998046875 430.998046875 c 0
 100.331054688 438.331054688 96.998046875 447.998046875 96.998046875 459.998046875 c 0
 96.998046875 478.665039062 108.331054688 494.665039062 130.998046875 507.998046875 c 0
 145.665039062 515.998046875 161.665039062 521.331054688 178.998046875 523.998046875 c 0
 212.331054688 529.331054688 240.6640625 536.998046875 263.997070312 546.998046875 c 1
 263.997070312 550.998046875 l 1
 243.997070312 560.998046875 224.997070312 567.331054688 206.997070312 569.998046875 c 0
 174.997070312 575.331054688 151.997070312 582.331054688 137.997070312 590.998046875 c 0
 123.997070312 599.665039062 116.997070312 611.665039062 116.997070312 626.998046875 c 0
 116.997070312 642.331054688 121.1640625 654.831054688 129.497070312 664.498046875 c 0
 137.830078125 674.165039062 149.497070312 678.998046875 164.497070312 678.998046875 c 0
 179.497070312 678.998046875 190.830078125 675.665039062 198.497070312 668.998046875 c 0
 206.1640625 662.331054688 213.6640625 653.831054688 220.997070312 643.498046875 c 0
 228.330078125 633.165039062 236.497070312 621.998046875 245.497070312 609.998046875 c 0
 254.497070312 597.998046875 266.997070312 586.665039062 282.997070312 575.998046875 c 1
 286.997070312 577.998046875 l 1
 286.997070312 586.998046875 l 2
 287.6640625 606.998046875 285.997070312 624.998046875 281.997070312 640.998046875 c 0
 275.330078125 672.331054688 271.830078125 695.1640625 271.497070312 709.497070312 c 0
 271.1640625 723.830078125 275.831054688 736.330078125 285.498046875 746.997070312 c 0
 295.165039062 757.6640625 307.665039062 762.997070312 322.998046875 762.997070312 c 0
 350.998046875 762.997070312 364.998046875 744.997070312 364.998046875 708.997070312 c 0
 364.331054688 697.6640625 359.998046875 682.997070312 351.998046875 664.997070312 c 0
 334.665039062 627.6640625 324.33203125 597.997070312 320.999023438 575.997070312 c 1
 338.33203125 585.997070312 352.83203125 596.997070312 364.499023438 608.997070312 c 0
 376.166015625 620.997070312 386.999023438 632.1640625 396.999023438 642.497070312 c 0
 406.999023438 652.830078125 416.666015625 661.497070312 425.999023438 668.497070312 c 0
 435.33203125 675.497070312 446.83203125 678.997070312 460.499023438 678.997070312 c 0
 474.166015625 678.997070312 484.166015625 673.997070312 490.499023438 663.997070312 c 0
 496.83203125 653.997070312 499.999023438 642.997070312 499.999023438 630.997070312 c 0
 499.999023438 605.6640625 479.33203125 588.331054688 437.999023438 578.998046875 c 0
 429.999023438 576.998046875 420.666015625 574.998046875 409.999023438 572.998046875 c 0
 381.33203125 567.665039062 356.33203125 560.33203125 334.999023438 550.999023438 c 1
 334.999023438 546.999023438 l 1
 350.999023438 538.999023438 368.999023438 532.999023438 388.999023438 528.999023438 c 0
 424.999023438 521.666015625 447.666015625 515.333007812 456.999023438 510 c 0
 472.33203125 500.666992188 479.999023438 486.333984375 479.999023438 467.000976562 c 0
 479.999023438 457.000976562 475.499023438 446.500976562 466.499023438 435.500976562 c 0
 457.499023438 424.500976562 445.83203125 419.000976562 431.499023438 419.000976562 c 0
 417.166015625 419.000976562 405.999023438 422.500976562 397.999023438 429.500976562 c 0
 389.999023438 436.500976562 382.33203125 445.16796875 374.999023438 455.500976562 c 0
 367.666015625 465.833984375 359.333007812 476.833984375 350 488.500976562 c 0
 340.666992188 500.16796875 328 510.66796875 312 520.000976562 c 1
 312 511.000976562 l 2
 312 485.66796875 314.666992188 464.66796875 320 448.000976562 c 0
 325.333007812 431.333984375 328 415.333984375 328 400.000976562 c 2
 327 390.000976562 l 2
 325.666992188 375.333984375 320.5 362.666992188 311.5 352 c 0
 302.5 341.333007812 289.666992188 336 273 336 c 0
EndSplineSet
EndChar

StartChar: plus
Encoding: 43 43 14
Width: 578
GlyphClass: 2
Flags: W
LayerCount: 2
Fore
SplineSet
61 365 m 1
 288 365 l 1
 288 612 l 1
 332 612 l 1
 332 365 l 1
 559 365 l 1
 559 321 l 1
 332 321 l 1
 332 74 l 1
 288 74 l 1
 288 321 l 1
 61 321 l 1
 61 365 l 1
EndSplineSet
EndChar

StartChar: comma
Encoding: 44 44 15
Width: 216
GlyphClass: 2
Flags: W
LayerCount: 2
Fore
SplineSet
-28 -145 m 1
 19.3330078125 -121.666992188 53.501953125 -97.498046875 74.501953125 -72.498046875 c 0
 95.501953125 -47.498046875 106.001953125 -25.3310546875 106.001953125 -5.998046875 c 0
 106.001953125 3.3349609375 104.168945312 10.001953125 100.501953125 14.001953125 c 0
 96.8349609375 18.001953125 93.16796875 20.001953125 89.5009765625 20.001953125 c 0
 85.833984375 20.001953125 82.6669921875 18.3349609375 80 15.001953125 c 0
 77.3330078125 11.6689453125 74 8.001953125 70 4.001953125 c 0
 59.3330078125 -6.6650390625 46.5 -11.83203125 31.5 -11.4990234375 c 0
 16.5 -11.166015625 4.1669921875 -5.9990234375 -5.5 4.0009765625 c 0
 -15.1669921875 14.0009765625 -20 28.0009765625 -20 46.0009765625 c 0
 -20 64.0009765625 -13.5 79.66796875 -0.5 93.0009765625 c 0
 12.5 106.333984375 31.6669921875 113.000976562 57 113.000976562 c 0
 82.3330078125 113.000976562 102.833007812 103.833984375 118.5 85.5009765625 c 0
 134.166992188 67.16796875 142 42.66796875 142 12.0009765625 c 0
 142 -18.666015625 127.666992188 -50.3330078125 99 -83 c 0
 70.3330078125 -115.666992188 32.3330078125 -144 -15 -168 c 1
 -28 -145 l 1
EndSplineSet
EndChar

StartChar: hyphen
Encoding: 45 45 16
Width: 395
GlyphClass: 2
Flags: W
LayerCount: 2
Fore
SplineSet
50 246 m 1
 345 246 l 1
 345 202 l 1
 50 202 l 1
 50 246 l 1
EndSplineSet
EndChar

StartChar: period
Encoding: 46 46 17
Width: 177
GlyphClass: 2
Flags: W
LayerCount: 2
Fore
SplineSet
-18 54 m 0
 -18 73.3330078125 -11.6669921875 89.5 1 102.5 c 0
 13.6669921875 115.5 29.6669921875 122 49 122 c 0
 68.3330078125 122 84.5 115.5 97.5 102.5 c 0
 110.5 89.5 117 73.3330078125 117 54 c 0
 117 34.6669921875 110.5 18.6669921875 97.5 6 c 0
 84.5 -6.6669921875 68.3330078125 -13 49 -13 c 0
 29.6669921875 -13 13.6669921875 -6.6669921875 1 6 c 0
 -11.6669921875 18.6669921875 -18 34.6669921875 -18 54 c 0
EndSplineSet
EndChar

StartChar: slash
Encoding: 47 47 18
Width: 254
GlyphClass: 2
Flags: W
LayerCount: 2
Fore
SplineSet
386 753 m 1
 16 0 l 1
 -43 0 l 1
 327 753 l 1
 386 753 l 1
EndSplineSet
EndChar

StartChar: zero
Encoding: 48 48 19
Width: 606
GlyphClass: 2
Flags: W
LayerCount: 2
Fore
SplineSet
182 126 m 0
 182 51.3330078125 207.000976562 14 257.000976562 14 c 0
 305.000976562 14 349.333984375 50.6669921875 390.000976562 124 c 0
 422.000976562 181.333007812 448.66796875 258 470.000976562 354 c 0
 488.66796875 436 498.000976562 504.666992188 498.000976562 560 c 0
 498.000976562 640 473.66796875 680 425.000976562 680 c 0
 378.333984375 680 334.666992188 642.666992188 294 568 c 0
 260.666992188 506.666992188 233 428 211 332 c 0
 191.666992188 246.666992188 182 178 182 126 c 0
266.000976562 -11 m 0
 234.000976562 -11 206 -3.498046875 182 11.501953125 c 0
 158 26.501953125 138.333007812 46.001953125 123 70.001953125 c 0
 93 117.334960938 78 176.66796875 78 248.000976562 c 0
 78 321.333984375 95.3330078125 394.666992188 130 468 c 0
 162.666992188 537.333007812 205 594 257 638 c 0
 311 683.333007812 364.666992188 706 418 706 c 0
 478 706 524.666992188 678 558 622 c 0
 587.333007812 572.666992188 602 513.666992188 602 445 c 0
 602 377.666992188 587.333007812 309.333984375 558 240.000976562 c 0
 527.333007812 169.333984375 487.333007812 110.666992188 438 64 c 0
 384.666992188 14.6669921875 327.333984375 -10.3330078125 266.000976562 -11 c 0
EndSplineSet
Substitution2: "'dnom' Denominators lookup 6 subtable" zero.denominator
Substitution2: "'numr' Numerators lookup 5 subtable" zero.numerator
Substitution2: "'sinf' Scientific Inferiors lookup 4 subtable" zeroinferior
Substitution2: "'sups' Superscript lookup 3 subtable" zerosuperior
EndChar

StartChar: one
Encoding: 49 49 20
Width: 360
GlyphClass: 2
Flags: W
LayerCount: 2
Fore
SplineSet
123 706 m 1
 359 706 l 1
 212 25 l 1
 336 25 l 1
 336 0 l 1
 2 0 l 1
 2 25 l 1
 104 25 l 1
 242 681 l 1
 123 681 l 1
 123 706 l 1
EndSplineSet
Substitution2: "'dnom' Denominators lookup 6 subtable" one.denominator
Substitution2: "'numr' Numerators lookup 5 subtable" one.numerator
Substitution2: "'sinf' Scientific Inferiors lookup 4 subtable" oneinferior
Substitution2: "'sups' Superscript lookup 3 subtable" onesuperior
EndChar

StartChar: two
Encoding: 50 50 21
Width: 538
GlyphClass: 2
Flags: W
LayerCount: 2
Fore
SplineSet
27 58 m 1
 267.000976562 265 l 2
 319.000976562 309.666992188 358.833984375 355.166992188 386.500976562 401.5 c 0
 414.16796875 447.833007812 428.000976562 494.666015625 428.000976562 541.999023438 c 0
 428.000976562 634.666015625 393.66796875 680.999023438 325.000976562 680.999023438 c 0
 288.333984375 680.999023438 254.000976562 668.33203125 222.000976562 642.999023438 c 0
 192.66796875 619.666015625 177.66796875 597.666015625 177.000976562 576.999023438 c 0
 177.000976562 566.33203125 181.500976562 559.33203125 190.500976562 555.999023438 c 0
 199.500976562 552.666015625 209.16796875 549.666015625 219.500976562 546.999023438 c 0
 229.833984375 544.33203125 239.500976562 539.999023438 248.500976562 533.999023438 c 0
 257.500976562 527.999023438 262.000976562 516.83203125 262.000976562 500.499023438 c 0
 262.000976562 484.166015625 256.66796875 471.333007812 246.000976562 462 c 0
 235.333984375 452.666992188 224.166992188 448 212.5 448 c 0
 200.833007812 448 190.833007812 449.5 182.5 452.5 c 0
 174.166992188 455.5 166.666992188 460.333007812 160 467 c 0
 144 481.666992188 136 502.166992188 136 528.5 c 0
 136 554.833007812 140.833007812 578.333007812 150.5 599 c 0
 160.166992188 619.666992188 174.333984375 638 193.000976562 654 c 0
 233.66796875 688.666992188 285.66796875 706 349.000976562 706 c 0
 409.000976562 706 456.66796875 691.666992188 492.000976562 663 c 0
 529.333984375 633 548.000976562 594.333007812 548.000976562 547 c 0
 548.000976562 511.666992188 536.16796875 477.666992188 512.500976562 445 c 0
 488.833984375 412.333007812 451.666992188 375 401 333 c 2
 110 93 l 1
 110 89 l 1
 377 89 l 2
 399.666992188 89 415 93.6669921875 423 103 c 0
 437 119 450 147.333007812 462 188 c 1
 487 188 l 1
 441 0 l 1
 15 0 l 1
 27 58 l 1
EndSplineSet
Substitution2: "'dnom' Denominators lookup 6 subtable" two.denominator
Substitution2: "'numr' Numerators lookup 5 subtable" two.numerator
Substitution2: "'sinf' Scientific Inferiors lookup 4 subtable" twoinferior
Substitution2: "'sups' Superscript lookup 3 subtable" twosuperior
EndChar

StartChar: three
Encoding: 51 51 22
Width: 545
GlyphClass: 2
Flags: W
LayerCount: 2
Fore
SplineSet
206 354 m 0
 186.666992188 354 176.998046875 360.993164062 176.998046875 374.993164062 c 0
 176.998046875 381.66015625 179.665039062 386.827148438 184.998046875 390.494140625 c 0
 190.331054688 394.161132812 196.331054688 395.994140625 202.998046875 395.994140625 c 0
 209.665039062 395.994140625 218.165039062 394.994140625 228.498046875 392.994140625 c 0
 238.831054688 390.994140625 250.331054688 389.994140625 262.998046875 389.994140625 c 0
 315.665039062 389.994140625 358.665039062 414.327148438 391.998046875 462.994140625 c 0
 419.998046875 503.661132812 433.998046875 547.328125 433.998046875 593.995117188 c 0
 433.998046875 621.995117188 426.165039062 644.328125 410.498046875 660.995117188 c 0
 394.831054688 677.662109375 372.1640625 685.995117188 342.497070312 685.995117188 c 0
 312.830078125 685.995117188 288.830078125 681.662109375 270.497070312 672.995117188 c 0
 252.1640625 664.328125 242.997070312 653.328125 242.997070312 639.995117188 c 0
 242.997070312 633.995117188 245.830078125 627.828125 251.497070312 621.495117188 c 0
 257.1640625 615.162109375 261.331054688 609.829101562 263.998046875 605.49609375 c 0
 266.665039062 601.163085938 267.998046875 593.663085938 267.998046875 582.99609375 c 0
 267.998046875 572.329101562 263.165039062 562.162109375 253.498046875 552.495117188 c 0
 243.831054688 542.828125 231.998046875 537.995117188 217.998046875 537.995117188 c 0
 203.998046875 537.995117188 191.665039062 542.162109375 180.998046875 550.495117188 c 0
 170.331054688 558.828125 164.998046875 571.828125 164.998046875 589.495117188 c 0
 164.998046875 607.162109375 169.998046875 623.329101562 179.998046875 637.99609375 c 0
 189.998046875 652.663085938 203.665039062 665.330078125 220.998046875 675.997070312 c 0
 258.998046875 699.330078125 304.331054688 710.997070312 356.998046875 710.997070312 c 0
 416.331054688 711.6640625 463.331054688 697.331054688 497.998046875 667.998046875 c 0
 529.998046875 641.998046875 545.831054688 609.831054688 545.498046875 571.498046875 c 0
 545.165039062 533.165039062 527.498046875 496.498046875 492.498046875 461.498046875 c 0
 457.498046875 426.498046875 406.998046875 399.665039062 340.998046875 380.998046875 c 1
 340.998046875 375.998046875 l 1
 384.331054688 375.998046875 423.331054688 359.998046875 457.998046875 327.998046875 c 0
 493.998046875 293.998046875 511.998046875 254.998046875 511.998046875 210.998046875 c 0
 511.998046875 183.665039062 504.665039062 156.665039062 489.998046875 129.998046875 c 0
 475.331054688 103.331054688 454.998046875 79.3310546875 428.998046875 57.998046875 c 0
 369.665039062 9.998046875 299.33203125 -13.6689453125 217.999023438 -13.001953125 c 0
 157.999023438 -13.6689453125 111.33203125 -0.6689453125 77.9990234375 25.998046875 c 0
 48.666015625 48.6650390625 34.3330078125 77.33203125 35 111.999023438 c 0
 35 133.33203125 40.8330078125 150.665039062 52.5 163.998046875 c 0
 64.1669921875 177.331054688 79.1669921875 183.998046875 97.5 183.998046875 c 0
 115.833007812 183.998046875 130 179.165039062 140 169.498046875 c 0
 150 159.831054688 155 147.998046875 155 133.998046875 c 0
 155 119.998046875 151.833007812 109.831054688 145.5 103.498046875 c 0
 139.166992188 97.1650390625 132 91.998046875 124 87.998046875 c 0
 116 83.998046875 108.833007812 80.3310546875 102.5 76.998046875 c 0
 96.1669921875 73.6650390625 93 68.83203125 93 62.4990234375 c 0
 93 56.166015625 96.1669921875 49.9990234375 102.5 43.9990234375 c 0
 108.833007812 37.9990234375 117.333007812 32.666015625 128 27.9990234375 c 0
 152.666992188 17.33203125 180.833984375 11.9990234375 212.500976562 11.9990234375 c 0
 244.16796875 11.9990234375 271.500976562 19.83203125 294.500976562 35.4990234375 c 0
 317.500976562 51.166015625 335.66796875 70.3330078125 349.000976562 93 c 0
 373.66796875 135 386.000976562 181.333007812 386.000976562 232 c 0
 386.000976562 282.666992188 374.16796875 317.166992188 350.500976562 335.5 c 0
 326.833984375 353.833007812 293.333984375 363 250.000976562 363 c 0
 245.333984375 363 239.166992188 361.5 231.5 358.5 c 0
 223.833007812 355.5 215.333007812 354 206 354 c 0
EndSplineSet
Substitution2: "'dnom' Denominators lookup 6 subtable" three.denominator
Substitution2: "'numr' Numerators lookup 5 subtable" three.numerator
Substitution2: "'sinf' Scientific Inferiors lookup 4 subtable" threeinferior
Substitution2: "'sups' Superscript lookup 3 subtable" threesuperior
EndChar

StartChar: four
Encoding: 52 52 23
Width: 552
GlyphClass: 2
Flags: W
LayerCount: 2
Fore
SplineSet
62 224 m 1
 305 224 l 1
 376 565 l 1
 372 565 l 1
 62 224 l 1
18 224 m 1
 464 706 l 1
 518 706 l 1
 414 224 l 1
 524 224 l 1
 540 289 l 1
 565 289 l 1
 520 108 l 1
 495 108 l 1
 517 196 l 1
 408 196 l 1
 371 25 l 1
 463 25 l 1
 463 0 l 1
 168 0 l 1
 168 25 l 1
 263 25 l 1
 299 196 l 1
 18 196 l 1
 18 224 l 1
EndSplineSet
Substitution2: "'dnom' Denominators lookup 6 subtable" four.denominator
Substitution2: "'numr' Numerators lookup 5 subtable" four.numerator
Substitution2: "'sinf' Scientific Inferiors lookup 4 subtable" fourinferior
Substitution2: "'sups' Superscript lookup 3 subtable" foursuperior
EndChar

StartChar: five
Encoding: 53 53 24
Width: 581
GlyphClass: 2
Flags: W
LayerCount: 2
Fore
SplineSet
149 366 m 1
 138 376 l 1
 232 706 l 1
 466 706 l 2
 500.666992188 706 522.833984375 708 532.500976562 712 c 0
 542.16796875 716 549.66796875 721.166992188 555.000976562 727.5 c 0
 560.333984375 733.833007812 566.333984375 742.666015625 573.000976562 753.999023438 c 1
 603.000976562 753.999023438 l 1
 535.000976562 616.999023438 l 1
 238.000976562 616.999023438 l 1
 178.000976562 410.999023438 l 1
 182.000976562 406.999023438 l 1
 229.333984375 420.999023438 271.333984375 427.999023438 308.000976562 427.999023438 c 0
 344.66796875 427.999023438 377.66796875 423.33203125 407.000976562 413.999023438 c 0
 436.333984375 404.666015625 461.333984375 391.999023438 482.000976562 375.999023438 c 0
 524.66796875 342.666015625 546.000976562 299.333007812 546.000976562 246 c 0
 546.000976562 212.666992188 537.500976562 180.666992188 520.500976562 150 c 0
 504.16796875 119.333007812 481.334960938 92.3330078125 452.001953125 69 c 0
 388.001953125 17.6669921875 315.001953125 -8 233.001953125 -8 c 0
 174.334960938 -8 127.66796875 7 93.0009765625 37 c 0
 65.66796875 60.3330078125 52.0009765625 88 52.0009765625 120 c 0
 52.0009765625 138 57.833984375 154.333007812 69.5009765625 169 c 0
 81.16796875 183.666992188 96.66796875 191 116.000976562 191 c 0
 135.333984375 191 150.500976562 186 161.500976562 176 c 0
 172.500976562 166 178.000976562 154.166992188 178.000976562 140.5 c 0
 178.000976562 126.833007812 174.833984375 116.333007812 168.500976562 109 c 0
 162.16796875 101.666992188 155.16796875 95.5 147.500976562 90.5 c 0
 139.833984375 85.5 132.833984375 81 126.500976562 77 c 0
 120.16796875 73 117.000976562 69 117.000976562 65 c 0
 117.000976562 61 119.16796875 56.3330078125 123.500976562 51 c 0
 127.833984375 46.3330078125 134.666992188 41.3330078125 144 36 c 0
 165.333007812 24 192.833007812 18 226.5 18 c 0
 260.166992188 18 289.5 26 314.5 42 c 0
 339.5 58 359.333007812 78 374 102 c 0
 401.333007812 146.666992188 415 197 415 253 c 0
 414.333007812 303 400 340 372 364 c 0
 348 384.666992188 315.833007812 395 275.5 395 c 0
 235.166992188 395 193 385.333007812 149 366 c 1
EndSplineSet
Substitution2: "'dnom' Denominators lookup 6 subtable" five.denominator
Substitution2: "'numr' Numerators lookup 5 subtable" five.numerator
Substitution2: "'sinf' Scientific Inferiors lookup 4 subtable" fiveinferior
Substitution2: "'sups' Superscript lookup 3 subtable" fivesuperior
EndChar

StartChar: six
Encoding: 54 54 25
Width: 595
GlyphClass: 2
Flags: W
LayerCount: 2
Fore
SplineSet
319 451 m 0
 339.666992188 458.333007812 362.829101562 461.999023438 388.49609375 461.999023438 c 0
 414.163085938 461.999023438 438.830078125 457.33203125 462.497070312 447.999023438 c 0
 486.1640625 438.666015625 506.331054688 425.999023438 522.998046875 409.999023438 c 0
 558.331054688 375.33203125 575.998046875 330.999023438 575.998046875 276.999023438 c 0
 575.998046875 241.666015625 568.165039062 206.833007812 552.498046875 172.5 c 0
 536.831054688 138.166992188 515.498046875 107.166992188 488.498046875 79.5 c 0
 461.498046875 51.8330078125 429.998046875 29.5 393.998046875 12.5 c 0
 357.998046875 -4.5 321.831054688 -13 285.498046875 -13 c 0
 249.165039062 -13 218.165039062 -7.1669921875 192.498046875 4.5 c 0
 166.831054688 16.1669921875 144.998046875 32.6669921875 126.998046875 54 c 0
 90.3310546875 96.6669921875 71.998046875 152.333984375 71.998046875 221.000976562 c 0
 71.998046875 303.000976562 99.3310546875 385.000976562 153.998046875 467.000976562 c 0
 204.665039062 543.66796875 269.665039062 606.66796875 348.998046875 656.000976562 c 0
 429.665039062 706.66796875 507.33203125 731.66796875 581.999023438 731.000976562 c 1
 581.999023438 706.000976562 l 1
 496.666015625 696.000976562 421.999023438 661.66796875 357.999023438 603.000976562 c 0
 298.666015625 548.333984375 260.999023438 486.333984375 244.999023438 417.000976562 c 1
 247.999023438 414.000976562 l 1
 274.666015625 431.333984375 298.333007812 443.666992188 319 451 c 0
202.495117188 40.9990234375 m 0
 218.162109375 21.666015625 239.828125 11.998046875 267.495117188 11.998046875 c 0
 295.162109375 11.998046875 318.495117188 17.3310546875 337.495117188 27.998046875 c 0
 356.495117188 38.6650390625 372.995117188 52.83203125 386.995117188 70.4990234375 c 0
 400.995117188 88.166015625 412.828125 108.166015625 422.495117188 130.499023438 c 0
 432.828125 152.83203125 440.661132812 175.665039062 445.994140625 198.998046875 c 0
 456.661132812 241.665039062 461.828125 282.83203125 461.495117188 322.499023438 c 0
 461.162109375 362.166015625 454.662109375 391.166015625 441.995117188 409.499023438 c 0
 429.328125 427.83203125 409.328125 436.999023438 381.995117188 436.999023438 c 0
 327.328125 436.999023438 272.995117188 408.666015625 218.995117188 351.999023438 c 1
 200.995117188 309.33203125 188.662109375 258.999023438 181.995117188 200.999023438 c 0
 179.328125 180.999023438 178.328125 161.33203125 178.995117188 141.999023438 c 0
 178.995117188 93.9990234375 186.828125 60.33203125 202.495117188 40.9990234375 c 0
EndSplineSet
Substitution2: "'dnom' Denominators lookup 6 subtable" six.denominator
Substitution2: "'numr' Numerators lookup 5 subtable" six.numerator
Substitution2: "'sinf' Scientific Inferiors lookup 4 subtable" sixinferior
Substitution2: "'sups' Superscript lookup 3 subtable" sixsuperior
EndChar

StartChar: seven
Encoding: 55 55 26
Width: 502
GlyphClass: 2
Flags: W
LayerCount: 2
Fore
SplineSet
307 165 m 2
 313 78 l 2
 313 51.3330078125 306.5 30 293.5 14 c 0
 280.5 -2 264 -10 244 -10 c 0
 201.333007812 -10 179.666015625 13.3330078125 178.999023438 60 c 0
 179.666015625 83.3330078125 186.666015625 108 199.999023438 134 c 0
 221.999023438 175.333007812 265.33203125 242 329.999023438 334 c 2
 527.999023438 613 l 1
 527.999023438 617 l 1
 260.999023438 617 l 2
 226.33203125 617 202.33203125 612.333007812 188.999023438 603 c 0
 175.666015625 593.666992188 164.833007812 582.5 156.5 569.5 c 0
 148.166992188 556.5 139.666992188 539.333007812 131 518 c 1
 101 518 l 1
 192 706 l 1
 613 706 l 1
 610 681 l 1
 397 378 l 2
 337 294 307 223 307 165 c 2
EndSplineSet
Substitution2: "'dnom' Denominators lookup 6 subtable" seven.denominator
Substitution2: "'numr' Numerators lookup 5 subtable" seven.numerator
Substitution2: "'sinf' Scientific Inferiors lookup 4 subtable" seveninferior
Substitution2: "'sups' Superscript lookup 3 subtable" sevensuperior
EndChar

StartChar: eight
Encoding: 56 56 27
Width: 610
GlyphClass: 2
Flags: W
LayerCount: 2
Fore
SplineSet
265 487 m 0
 265 411.666992188 295.668945312 374.000976562 357.001953125 374.000976562 c 0
 385.668945312 374.000976562 409.668945312 381.833984375 429.001953125 397.500976562 c 0
 448.334960938 412.500976562 463.66796875 431.333984375 475.000976562 454.000976562 c 0
 495.66796875 494.66796875 506.000976562 539.66796875 506.000976562 589.000976562 c 0
 506.000976562 656.333984375 478.333984375 690.000976562 423.000976562 690.000976562 c 0
 378.333984375 690.000976562 340.666992188 670.000976562 310 630.000976562 c 0
 280 591.333984375 265 543.666992188 265 487 c 0
423.501953125 319.500976562 m 0
 407.168945312 339.16796875 385.002929688 349 357.002929688 349 c 0
 329.002929688 349 304.502929688 343 283.502929688 331 c 0
 262.502929688 318.333007812 244.3359375 302 229.002929688 282 c 0
 196.3359375 238.666992188 180.002929688 186.666992188 180.002929688 126 c 0
 180.002929688 86 188.002929688 57 204.002929688 39 c 0
 220.002929688 21 244.502929688 12 277.502929688 12 c 0
 310.502929688 12 338.002929688 19.8330078125 360.002929688 35.5 c 0
 381.3359375 51.1669921875 398.668945312 70.333984375 412.001953125 93.0009765625 c 0
 436.001953125 134.333984375 448.001953125 177.500976562 448.001953125 222.500976562 c 0
 448.001953125 267.500976562 439.834960938 299.833984375 423.501953125 319.500976562 c 0
413.002929688 361 m 1
 461.002929688 349 499.001953125 327.998046875 527.001953125 297.998046875 c 0
 555.001953125 267.998046875 569.001953125 236.998046875 569.001953125 204.998046875 c 0
 569.001953125 172.998046875 561.668945312 144.331054688 547.001953125 118.998046875 c 0
 532.334960938 93.6650390625 512.001953125 71.33203125 486.001953125 51.9990234375 c 0
 428.001953125 8.666015625 360.334960938 -13.0009765625 283.001953125 -13.0009765625 c 0
 214.334960938 -13.66796875 159.334960938 2.6650390625 118.001953125 35.998046875 c 0
 76.6689453125 68.6650390625 56.3359375 109.665039062 57.0029296875 158.998046875 c 0
 57.0029296875 208.998046875 79.3359375 254.331054688 124.002929688 294.998046875 c 0
 168.002929688 334.998046875 223.002929688 358.998046875 289.002929688 366.998046875 c 1
 289.002929688 370.998046875 l 1
 247.669921875 382.331054688 215.169921875 401.498046875 191.502929688 428.498046875 c 0
 167.8359375 455.498046875 156.002929688 483.998046875 156.002929688 513.998046875 c 0
 156.002929688 543.998046875 163.169921875 570.498046875 177.502929688 593.498046875 c 0
 191.8359375 616.498046875 211.002929688 636.665039062 235.002929688 653.998046875 c 0
 286.3359375 691.331054688 346.668945312 710.331054688 416.001953125 710.998046875 c 0
 474.668945312 710.998046875 523.3359375 695.665039062 562.002929688 664.998046875 c 0
 598.002929688 636.331054688 616.3359375 600.998046875 617.002929688 558.998046875 c 0
 617.002929688 515.665039062 598.002929688 475.33203125 560.002929688 437.999023438 c 0
 520.002929688 398.666015625 471.002929688 374.333007812 413.002929688 365 c 1
 413.002929688 361 l 1
EndSplineSet
Substitution2: "'dnom' Denominators lookup 6 subtable" eight.denominator
Substitution2: "'numr' Numerators lookup 5 subtable" eight.numerator
Substitution2: "'sinf' Scientific Inferiors lookup 4 subtable" eightinferior
Substitution2: "'sups' Superscript lookup 3 subtable" eightsuperior
EndChar

StartChar: nine
Encoding: 57 57 28
Width: 595
GlyphClass: 2
Flags: W
LayerCount: 2
Fore
SplineSet
363 267 m 0
 342.333007812 259.666992188 319.170898438 255.998046875 293.50390625 255.998046875 c 0
 267.836914062 255.998046875 243.169921875 260.665039062 219.502929688 269.998046875 c 0
 195.8359375 279.331054688 175.668945312 291.998046875 159.001953125 307.998046875 c 0
 123.668945312 342.665039062 106.001953125 386.998046875 106.001953125 440.998046875 c 0
 106.001953125 475.665039062 113.834960938 510.33203125 129.501953125 544.999023438 c 0
 145.168945312 579.666015625 166.501953125 610.833007812 193.501953125 638.5 c 0
 220.501953125 666.166992188 252.001953125 688.5 288.001953125 705.5 c 0
 324.001953125 722.5 360.168945312 731 396.501953125 731 c 0
 432.834960938 731 463.834960938 725.166992188 489.501953125 713.5 c 0
 515.168945312 701.833007812 537.001953125 685.333007812 555.001953125 664 c 0
 591.668945312 621.333007812 610.001953125 565.666015625 610.001953125 496.999023438 c 0
 610.001953125 414.999023438 582.668945312 332.999023438 528.001953125 250.999023438 c 0
 477.334960938 174.33203125 412.334960938 111.33203125 333.001953125 61.9990234375 c 0
 252.334960938 11.33203125 174.66796875 -13.66796875 100.000976562 -13.0009765625 c 1
 100.000976562 11.9990234375 l 1
 184.000976562 20.666015625 258.66796875 54.9990234375 324.000976562 114.999023438 c 0
 383.333984375 169.666015625 421.000976562 231.666015625 437.000976562 300.999023438 c 1
 434.000976562 303.999023438 l 1
 407.333984375 286.666015625 383.666992188 274.333007812 363 267 c 0
479.504882812 676.998046875 m 0
 463.837890625 696.331054688 442.171875 705.999023438 414.504882812 705.999023438 c 0
 386.837890625 705.999023438 363.504882812 700.666015625 344.504882812 689.999023438 c 0
 325.504882812 679.33203125 309.004882812 665.165039062 295.004882812 647.498046875 c 0
 281.004882812 629.831054688 269.171875 609.831054688 259.504882812 587.498046875 c 0
 249.171875 565.165039062 241.338867188 542.33203125 236.005859375 518.999023438 c 0
 225.338867188 476.33203125 220.171875 435.165039062 220.504882812 395.498046875 c 0
 220.837890625 355.831054688 227.337890625 326.831054688 240.004882812 308.498046875 c 0
 252.671875 290.165039062 272.671875 280.998046875 300.004882812 280.998046875 c 0
 354.671875 280.998046875 409.004882812 309.331054688 463.004882812 365.998046875 c 1
 481.004882812 408.665039062 493.337890625 458.998046875 500.004882812 516.998046875 c 0
 502.671875 536.998046875 503.671875 556.665039062 503.004882812 575.998046875 c 0
 503.004882812 623.998046875 495.171875 657.665039062 479.504882812 676.998046875 c 0
EndSplineSet
Substitution2: "'dnom' Denominators lookup 6 subtable" nine.denominator
Substitution2: "'numr' Numerators lookup 5 subtable" nine.numerator
Substitution2: "'sinf' Scientific Inferiors lookup 4 subtable" nineinferior
Substitution2: "'sups' Superscript lookup 3 subtable" ninesuperior
EndChar

StartChar: colon
Encoding: 58 58 29
Width: 270
GlyphClass: 2
Flags: W
LayerCount: 2
Fore
SplineSet
103 386 m 0
 103 405.333007812 109.333007812 421.5 122 434.5 c 0
 134.666992188 447.5 150.666992188 454 170 454 c 0
 189.333007812 454 205.5 447.5 218.5 434.5 c 0
 231.5 421.5 238 405.333007812 238 386 c 0
 238 366.666992188 231.5 350.666992188 218.5 338 c 0
 205.5 325.333007812 189.333007812 319 170 319 c 0
 150.666992188 319 134.666992188 325.333007812 122 338 c 0
 109.333007812 350.666992188 103 366.666992188 103 386 c 0
41 54 m 0
 41 73.3330078125 47.3330078125 89.5 60 102.5 c 0
 72.6669921875 115.5 88.6669921875 122 108 122 c 0
 127.333007812 122 143.5 115.5 156.5 102.5 c 0
 169.5 89.5 176 73.3330078125 176 54 c 0
 176 34.6669921875 169.5 18.6669921875 156.5 6 c 0
 143.5 -6.6669921875 127.333007812 -13 108 -13 c 0
 88.6669921875 -13 72.6669921875 -6.6669921875 60 6 c 0
 47.3330078125 18.6669921875 41 34.6669921875 41 54 c 0
EndSplineSet
EndChar

StartChar: semicolon
Encoding: 59 59 30
Width: 231
GlyphClass: 2
Flags: W
LayerCount: 2
Fore
SplineSet
77 386 m 0
 77 405.333007812 83.3330078125 421.5 96 434.5 c 0
 108.666992188 447.5 124.666992188 454 144 454 c 0
 163.333007812 454 179.5 447.5 192.5 434.5 c 0
 205.5 421.5 212 405.333007812 212 386 c 0
 212 366.666992188 205.5 350.666992188 192.5 338 c 0
 179.5 325.333007812 163.333007812 319 144 319 c 0
 124.666992188 319 108.666992188 325.333007812 96 338 c 0
 83.3330078125 350.666992188 77 366.666992188 77 386 c 0
2 -145 m 1
 49.3330078125 -121.666992188 83.501953125 -97.498046875 104.501953125 -72.498046875 c 0
 125.501953125 -47.498046875 136.001953125 -25.3310546875 136.001953125 -5.998046875 c 0
 136.001953125 3.3349609375 134.168945312 10.001953125 130.501953125 14.001953125 c 0
 126.834960938 18.001953125 123.16796875 20.001953125 119.500976562 20.001953125 c 0
 115.833984375 20.001953125 112.666992188 18.3349609375 110 15.001953125 c 0
 107.333007812 11.6689453125 104 8.001953125 100 4.001953125 c 0
 89.3330078125 -6.6650390625 76.5 -11.83203125 61.5 -11.4990234375 c 0
 46.5 -11.166015625 34.1669921875 -5.9990234375 24.5 4.0009765625 c 0
 14.8330078125 14.0009765625 10 28.0009765625 10 46.0009765625 c 0
 10 64.0009765625 16.5 79.66796875 29.5 93.0009765625 c 0
 42.5 106.333984375 61.6669921875 113.000976562 87 113.000976562 c 0
 112.333007812 113.000976562 132.833007812 103.833984375 148.5 85.5009765625 c 0
 164.166992188 67.16796875 172 42.66796875 172 12.0009765625 c 0
 172 -18.666015625 157.666992188 -50.3330078125 129 -83 c 0
 100.333007812 -115.666992188 62.3330078125 -144 15 -168 c 1
 2 -145 l 1
EndSplineSet
EndChar

StartChar: less
Encoding: 60 60 31
Width: 588
GlyphClass: 2
Flags: W
LayerCount: 2
Fore
SplineSet
70 373 m 1
 538 607 l 1
 538 553 l 1
 124 346 l 1
 538 139 l 1
 538 82 l 1
 70 316 l 1
 70 373 l 1
EndSplineSet
EndChar

StartChar: equal
Encoding: 61 61 32
Width: 598
GlyphClass: 2
Flags: W
LayerCount: 2
Fore
SplineSet
46 283 m 1
 544 283 l 1
 544 235 l 1
 46 235 l 1
 46 283 l 1
95 450 m 1
 593 450 l 1
 593 402 l 1
 95 402 l 1
 95 450 l 1
EndSplineSet
EndChar

StartChar: greater
Encoding: 62 62 33
Width: 588
GlyphClass: 2
Flags: W
LayerCount: 2
Fore
SplineSet
595 316 m 1
 127 82 l 1
 127 139 l 1
 541 346 l 1
 127 553 l 1
 127 607 l 1
 595 373 l 1
 595 316 l 1
EndSplineSet
EndChar

StartChar: question
Encoding: 63 63 34
Width: 459
GlyphClass: 2
Flags: W
LayerCount: 2
Fore
SplineSet
177 224 m 1
 175 240.666992188 173.999023438 256.333007812 173.999023438 271 c 0
 173.999023438 337 197.33203125 390.666992188 243.999023438 432 c 0
 263.999023438 449.333007812 285.33203125 464.666015625 307.999023438 477.999023438 c 0
 330.666015625 491.33203125 351.833007812 504.499023438 371.5 517.499023438 c 0
 391.166992188 530.499023438 407.666992188 544.83203125 421 560.499023438 c 0
 434.333007812 576.166015625 441 593.833007812 441 613.5 c 0
 441 633.166992188 438.166992188 650 432.5 664 c 0
 426.833007812 678.666992188 418.666015625 691.333984375 407.999023438 702.000976562 c 0
 383.999023438 726.000976562 351.999023438 738.000976562 311.999023438 738.000976562 c 0
 282.666015625 738.000976562 259.499023438 733.500976562 242.499023438 724.500976562 c 0
 225.499023438 715.500976562 213.666015625 707.500976562 206.999023438 700.500976562 c 0
 200.33203125 693.500976562 196.999023438 686.16796875 196.999023438 678.500976562 c 0
 196.999023438 670.833984375 199.83203125 665.333984375 205.499023438 662.000976562 c 0
 211.166015625 658.000976562 217.333007812 654.66796875 224 652.000976562 c 0
 242 644.000976562 251 630.833984375 251 612.500976562 c 0
 251 594.16796875 245.5 580.16796875 234.5 570.500976562 c 0
 223.5 560.833984375 210.833007812 556.000976562 196.5 556.000976562 c 0
 182.166992188 556.000976562 168.666992188 562.000976562 156 574.000976562 c 0
 143.333007812 586.000976562 137 601.833984375 137 621.500976562 c 0
 137 641.16796875 141 659.16796875 149 675.500976562 c 0
 157 691.833984375 168.666992188 706.666992188 184 720 c 0
 218 749.333007812 261.333007812 763.666015625 314 762.999023438 c 0
 368 762.999023438 411.333007812 747.33203125 444 715.999023438 c 0
 478 683.33203125 495 638.999023438 495 582.999023438 c 0
 495 494.999023438 445.333007812 426.666015625 346 377.999023438 c 0
 285.333007812 348.666015625 243 319.333007812 219 290 c 0
 204.333007812 272.666992188 197 250.666992188 197 224 c 1
 177 224 l 1
88.9990234375 52.9990234375 m 0
 88.9990234375 70.9990234375 95.4990234375 86.4990234375 108.499023438 99.4990234375 c 0
 121.499023438 112.499023438 136.999023438 118.999023438 154.999023438 118.999023438 c 0
 172.999023438 118.999023438 188.499023438 112.499023438 201.499023438 99.4990234375 c 0
 214.499023438 86.4990234375 220.999023438 70.9990234375 220.999023438 52.9990234375 c 0
 220.999023438 34.9990234375 214.499023438 19.4990234375 201.499023438 6.4990234375 c 0
 188.499023438 -6.5009765625 172.999023438 -13.0009765625 154.999023438 -13.0009765625 c 0
 136.999023438 -13.0009765625 121.499023438 -6.5009765625 108.499023438 6.4990234375 c 0
 95.4990234375 19.4990234375 88.9990234375 34.9990234375 88.9990234375 52.9990234375 c 0
EndSplineSet
EndChar

StartChar: at
Encoding: 64 64 35
Width: 803
GlyphClass: 2
Flags: W
LayerCount: 2
Fore
SplineSet
510 313 m 1
 511.999023438 341 l 2
 511.999023438 361.666992188 507.33203125 380 497.999023438 396 c 0
 488.666015625 412 475.833007812 420 459.5 420 c 0
 443.166992188 420 427.166992188 411.666992188 411.5 395 c 0
 395.833007812 378.333007812 382 357 370 331 c 0
 342.666992188 271.666992188 329 210.666992188 329 148 c 0
 329 122.666992188 331.833007812 105 337.5 95 c 0
 343.166992188 85 351.166992188 80 361.5 80 c 0
 371.833007812 80 382 81.8330078125 392 85.5 c 0
 402 88.5 412.333007812 94.6669921875 423 104 c 0
 446.333007812 124 465.333007812 153.333007812 480 192 c 1
 510 313 l 1
457.999023438 115 m 1
 430.666015625 67.6669921875 392.994140625 43.9951171875 344.994140625 43.9951171875 c 0
 309.661132812 43.9951171875 280.661132812 55.9951171875 257.994140625 79.9951171875 c 0
 231.327148438 107.328125 218.327148438 145.328125 218.994140625 193.995117188 c 0
 219.661132812 263.328125 243.994140625 324.661132812 291.994140625 377.994140625 c 0
 313.327148438 401.994140625 337.327148438 420.661132812 363.994140625 433.994140625 c 0
 390.661132812 447.327148438 415.828125 453.994140625 439.495117188 453.994140625 c 0
 463.162109375 453.994140625 480.829101562 448.994140625 492.49609375 438.994140625 c 0
 504.163085938 428.994140625 514.663085938 412.661132812 523.99609375 389.994140625 c 1
 528.99609375 389.994140625 l 1
 541.99609375 442.994140625 l 1
 649.99609375 442.994140625 l 1
 575.99609375 130.994140625 l 2
 573.99609375 123.661132812 572.99609375 117.994140625 572.99609375 113.994140625 c 0
 572.99609375 100.661132812 581.49609375 93.994140625 598.49609375 93.994140625 c 0
 615.49609375 93.994140625 632.663085938 99.6611328125 649.99609375 110.994140625 c 0
 667.329101562 122.327148438 683.329101562 138.66015625 697.99609375 159.993164062 c 0
 729.99609375 207.326171875 745.99609375 264.326171875 745.99609375 330.993164062 c 0
 745.99609375 415.66015625 719.329101562 482.327148438 665.99609375 530.994140625 c 0
 615.329101562 576.994140625 549.329101562 599.994140625 467.99609375 599.994140625 c 0
 416.663085938 599.994140625 368.49609375 590.327148438 323.49609375 570.994140625 c 0
 278.49609375 551.661132812 239.329101562 524.328125 205.99609375 488.995117188 c 0
 172.663085938 453.662109375 146.163085938 411.329101562 126.49609375 361.99609375 c 0
 106.829101562 312.663085938 96.99609375 261.330078125 96.99609375 207.997070312 c 0
 96.99609375 154.6640625 103.49609375 108.497070312 116.49609375 69.4970703125 c 0
 129.49609375 30.4970703125 148.329101562 -3.3359375 172.99609375 -32.0029296875 c 0
 224.329101562 -92.0029296875 297.829101562 -122.002929688 393.49609375 -122.002929688 c 0
 489.163085938 -122.002929688 569.99609375 -83.669921875 635.99609375 -7.0029296875 c 1
 653.99609375 -32.0029296875 l 1
 611.329101562 -76.0029296875 568.829101562 -107.002929688 526.49609375 -125.002929688 c 0
 484.163085938 -143.002929688 439.330078125 -152.002929688 391.997070312 -152.002929688 c 0
 344.6640625 -152.002929688 301.331054688 -145.002929688 261.998046875 -131.002929688 c 0
 222.665039062 -117.002929688 188.33203125 -95.3359375 158.999023438 -66.0029296875 c 0
 95.666015625 -3.3359375 63.9990234375 84.9970703125 63.9990234375 198.997070312 c 0
 63.9990234375 267.6640625 74.9990234375 328.831054688 96.9990234375 382.498046875 c 0
 118.999023438 436.165039062 148.83203125 481.33203125 186.499023438 517.999023438 c 0
 224.166015625 554.666015625 267.499023438 582.499023438 316.499023438 601.499023438 c 0
 365.499023438 620.499023438 415.83203125 629.999023438 467.499023438 629.999023438 c 0
 519.166015625 629.999023438 564.166015625 622.33203125 602.499023438 606.999023438 c 0
 640.83203125 591.666015625 672.999023438 570.666015625 698.999023438 543.999023438 c 0
 752.33203125 489.999023438 778.999023438 420.33203125 778.999023438 334.999023438 c 0
 778.33203125 255.666015625 755.33203125 187.333007812 709.999023438 130 c 0
 688.666015625 103.333007812 663.999023438 82.3330078125 635.999023438 67 c 0
 607.999023438 51.6669921875 579.499023438 44 550.499023438 44 c 0
 521.499023438 44 499.999023438 49.5 485.999023438 60.5 c 0
 471.999023438 71.5 464.999023438 89.6669921875 464.999023438 115 c 1
 457.999023438 115 l 1
EndSplineSet
EndChar

StartChar: A
Encoding: 65 65 36
Width: 583
GlyphClass: 2
Flags: HW
LayerCount: 2
Fore
SplineSet
121 0 m 1
 -93 0 l 1
 -93 65 l 1
 -26 65 l 1
 481 764 l 1
 512 764 l 1
 464 65 l 1
 536 65 l 1
 536 0 l 1
 267 0 l 1
 267 65 l 1
 341 65 l 1
 353.461538462 227 l 1
 167.274725275 227 l 1
 48 65 l 1
 121 65 l 1
 121 0 l 1
382.378881988 540.242236025 m 1
 214.676470588 295 l 1
 359.838235294 295 l 1
 382.378881988 540.242236025 l 1
EndSplineSet
Substitution2: "Single Substitution lookup 7 subtable" ordfeminine
EndChar

StartChar: B
Encoding: 66 66 37
Width: 674
GlyphClass: 2
Flags: W
LayerCount: 2
Fore
SplineSet
354 729 m 1
 280.998046875 402.999023438 l 1
 398.998046875 402.999023438 l 2
 445.665039062 403.666015625 483.33203125 423.333007812 511.999023438 462 c 0
 539.33203125 499.333007812 552.999023438 548.333007812 552.999023438 609 c 0
 552.33203125 651 543.33203125 681 525.999023438 699 c 0
 506.666015625 719 472.333007812 729 423 729 c 2
 354 729 l 1
275.998046875 377.999023438 m 1
 196.997070312 24.9990234375 l 1
 345.997070312 24.9990234375 l 2
 388.6640625 24.33203125 425.331054688 43.33203125 455.998046875 81.9990234375 c 0
 487.331054688 121.33203125 502.998046875 169.499023438 502.998046875 226.499023438 c 0
 502.998046875 283.499023438 492.165039062 322.999023438 470.498046875 344.999023438 c 0
 448.831054688 366.999023438 417.998046875 377.999023438 377.998046875 377.999023438 c 2
 275.998046875 377.999023438 l 1
422.997070312 753.999023438 m 2
 505.6640625 753.999023438 569.665039062 738 614.998046875 706 c 0
 658.331054688 675.333007812 679.998046875 635.666015625 679.998046875 586.999023438 c 0
 679.998046875 538.33203125 660.831054688 496.83203125 622.498046875 462.499023438 c 0
 584.165039062 428.166015625 531.665039062 403.999023438 464.998046875 389.999023438 c 1
 464.998046875 385.999023438 l 1
 576.331054688 347.999023438 631.998046875 285.33203125 631.998046875 197.999023438 c 0
 631.998046875 139.33203125 609.665039062 91.9990234375 564.998046875 55.9990234375 c 0
 518.331054688 18.666015625 454.6640625 -0.0009765625 373.997070312 -0.0009765625 c 2
 -7.0029296875 -0.0009765625 l 1
 -7.0029296875 24.9990234375 l 1
 83.9970703125 24.9990234375 l 1
 236.997070312 728.999023438 l 1
 143.997070312 728.999023438 l 1
 143.997070312 753.999023438 l 1
 422.997070312 753.999023438 l 2
EndSplineSet
EndChar

StartChar: C
Encoding: 67 67 38
Width: 693
GlyphClass: 2
Flags: HW
LayerCount: 2
Fore
SplineSet
519 49 m 5
 477 -2.3330078125 403.33203125 -13 337.999023438 -13 c 0
 256.666015625 -13 200.666015625 17 149.999023438 77 c 0
 103.33203125 133 79.6650390625 203.333007812 78.998046875 288 c 0
 78.998046875 363.333007812 98.6650390625 438.333007812 137.998046875 513 c 0
 177.998046875 587 228.665039062 646.666992188 289.998046875 692 c 0
 356.665039062 740.666992188 405.33203125 765 475.999023438 765 c 0
 535.113148137 765 577.197386053 756.403026834 605.999023438 702 c 1
 654.999023438 754 l 1
 719.999023438 754 l 1
 672.999023438 541 l 1
 607.999023438 541 l 1
 607.999023438 600.333007812 600.328125 623.990234375 580.999023438 651 c 0
 562.471679688 676.888671875 534.33203125 696 488.999023438 696 c 0
 429.666015625 696 377.666015625 664 332.999023438 600 c 0
 277.666015625 519.333007812 241.333007812 449 224 309 c 0
 215.927471778 243.27114079 211.936523438 209.255859375 226 153 c 0
 240.310546875 90.38671875 280.28515625 59 355 59 c 0
 457 59 506 81.3330078125 582 206 c 1
 647 206 l 1
 594 0 l 1
 529 0 l 1
 519 49 l 5
EndSplineSet
EndChar

StartChar: D
Encoding: 68 68 39
Width: 764
GlyphClass: 2
Flags: W
LayerCount: 2
Fore
SplineSet
347 729 m 1
 191 26.9990234375 l 1
 300 26.9990234375 l 2
 346 26.9990234375 388.5 38.666015625 427.5 61.9990234375 c 0
 466.5 85.9990234375 500 118.666015625 528 159.999023438 c 0
 587.333007812 247.999023438 617 360.666015625 617 497.999023438 c 0
 617 580.666015625 600.666992188 639.999023438 568 675.999023438 c 0
 536 710.666015625 485.333007812 728.333007812 416 729 c 2
 347 729 l 1
745 427.999023438 m 0
 745 372.666015625 734.33203125 318.166015625 712.999023438 264.499023438 c 0
 691.666015625 210.83203125 661.666015625 164.499023438 622.999023438 125.499023438 c 0
 584.33203125 86.4990234375 538.499023438 55.83203125 485.499023438 33.4990234375 c 0
 432.499023438 11.166015625 374.666015625 -0.0009765625 311.999023438 -0.0009765625 c 2
 -14.0009765625 -0.0009765625 l 1
 -14.0009765625 26.9990234375 l 1
 77.9990234375 26.9990234375 l 1
 229.999023438 728.999023438 l 1
 136.999023438 728.999023438 l 1
 136.999023438 753.999023438 l 1
 415.999023438 753.999023438 l 2
 518.666015625 753.999023438 599.333007812 725.999023438 658 669.999023438 c 0
 716 613.999023438 745 533.33203125 745 427.999023438 c 0
EndSplineSet
EndChar

StartChar: E
Encoding: 69 69 40
Width: 662
GlyphClass: 2
Flags: W
LayerCount: 2
Fore
SplineSet
114 754 m 1
 673.000976562 754 l 1
 645.000976562 553 l 1
 615.000976562 553 l 1
 614.333984375 623 603.333984375 669.666992188 582.000976562 693 c 0
 560.000976562 717 514.000976562 729 444.000976562 729 c 2
 334.000976562 729 l 1
 261.000976562 403 l 1
 310.000976562 403 l 2
 350.000976562 403 380.333984375 411.833007812 401.000976562 429.5 c 0
 421.66796875 447.166992188 440.000976562 482 456.000976562 534 c 1
 481.000976562 534 l 1
 422.000976562 226 l 1
 392.000976562 226 l 1
 392.000976562 289.333007812 386.000976562 330.333007812 374.000976562 349 c 0
 367.333984375 360.333007812 357.500976562 368 344.500976562 372 c 0
 331.500976562 376 314.66796875 378 294.000976562 378 c 2
 256.000976562 378 l 1
 177.000976562 25 l 1
 356.000976562 25 l 2
 403.333984375 25.6669921875 442.666992188 39.333984375 474 66.0009765625 c 0
 510 97.333984375 546.333007812 152.666992188 583 232 c 1
 613 232 l 1
 553 0 l 1
 -37 0 l 1
 -37 25 l 1
 64 25 l 1
 217 729 l 1
 114 729 l 1
 114 754 l 1
EndSplineSet
EndChar

StartChar: F
Encoding: 70 70 41
Width: 635
GlyphClass: 2
Flags: W
LayerCount: 2
Fore
SplineSet
153 754 m 1
 711.999023438 753.999023438 l 1
 680.999023438 528.999023438 l 1
 650.999023438 528.999023438 l 1
 650.999023438 569.666015625 648.83203125 602.999023438 644.499023438 628.999023438 c 0
 640.166015625 654.999023438 631.833007812 675.33203125 619.5 689.999023438 c 0
 607.166992188 704.666015625 590 714.833007812 568 720.5 c 0
 546 726.166992188 517.666992188 729 483 729 c 2
 373 729 l 1
 300 401 l 1
 338 401 l 2
 376.666992188 401 406 409.666992188 426 427 c 0
 446.666992188 444.333007812 465 478 481 528 c 1
 506 528 l 1
 450 224 l 1
 420 224 l 1
 420 287.333007812 414 328.333007812 402 347 c 0
 395.333007812 358.333007812 385.5 366 372.5 370 c 0
 359.5 374 342.666992188 376 322 376 c 2
 294 376 l 1
 216 25 l 1
 321 25 l 1
 321 0 l 1
 2 0 l 1
 2 25 l 1
 103 25 l 1
 256 729 l 1
 153 729 l 1
 153 754 l 1
EndSplineSet
EndChar

StartChar: G
Encoding: 71 71 42
Width: 749
GlyphClass: 2
Flags: W
LayerCount: 2
Fore
SplineSet
441 278 m 1
 777.998046875 278.001953125 l 1
 777.998046875 253.001953125 l 1
 700.998046875 253.001953125 l 1
 676.331054688 164.334960938 633.331054688 96.66796875 571.998046875 50.0009765625 c 0
 516.665039062 7.333984375 450.998046875 -13.666015625 374.998046875 -12.9990234375 c 0
 318.331054688 -12.9990234375 271.331054688 -1.83203125 233.998046875 20.5009765625 c 0
 196.665039062 42.833984375 166.83203125 70.5009765625 144.499023438 103.500976562 c 0
 122.166015625 136.500976562 106.499023438 172.000976562 97.4990234375 210.000976562 c 0
 88.4990234375 248.000976562 83.9990234375 287.66796875 83.9990234375 329.000976562 c 0
 83.9990234375 370.333984375 94.33203125 417.666992188 114.999023438 471 c 0
 135.666015625 524.333007812 164.833007812 572.833007812 202.5 616.5 c 0
 240.166992188 660.166992188 285 695.833984375 337 723.500976562 c 0
 389 751.16796875 446.333007812 765.000976562 509 765.000976562 c 0
 539 765.000976562 566.833007812 760.66796875 592.5 752.000976562 c 0
 618.166992188 743.333984375 644.333984375 726.666992188 671.000976562 702 c 1
 720.000976562 754 l 1
 745.000976562 754 l 1
 698.000976562 541 l 1
 673.000976562 541 l 1
 673.000976562 601 656.66796875 648.666992188 624.000976562 684 c 0
 592.000976562 718.666992188 552.333984375 736 505.000976562 736 c 0
 443.000976562 736 388.66796875 704 342.000976562 640 c 0
 302.000976562 585.333007812 271.333984375 513.666015625 250.000976562 424.999023438 c 0
 231.333984375 347.666015625 222.000976562 274.333007812 222.000976562 205 c 0
 222.000976562 105.666992188 248.66796875 46.6669921875 302.000976562 28 c 0
 319.333984375 22 340.333984375 19 365.000976562 19 c 0
 389.66796875 19 411.66796875 22.8330078125 431.000976562 30.5 c 0
 450.333984375 38.1669921875 467.333984375 51 482.000976562 69 c 0
 509.333984375 103 530.666992188 164.333007812 546 253 c 1
 441 253 l 1
 441 278 l 1
EndSplineSet
EndChar

StartChar: H
Encoding: 72 72 43
Width: 787
GlyphClass: 2
Flags: W
LayerCount: 2
Fore
SplineSet
441 729 m 1
 350 729 l 1
 278 405 l 1
 600 405 l 1
 670 729 l 1
 580 729 l 1
 580 754 l 1
 876 754 l 1
 876 729 l 1
 787 729 l 1
 630 25 l 1
 727 25 l 1
 727 0 l 1
 431 0 l 1
 431 25 l 1
 517 25 l 1
 594 377 l 1
 272 377 l 1
 193 25 l 1
 288 25 l 1
 288 0 l 1
 -1 0 l 1
 -1 25 l 1
 80 25 l 1
 233 729 l 1
 152 729 l 1
 152 754 l 1
 441 754 l 1
 441 729 l 1
EndSplineSet
EndChar

StartChar: I
Encoding: 73 73 44
Width: 360
GlyphClass: 2
Flags: W
LayerCount: 2
Fore
SplineSet
145 754 m 1
 444 754 l 1
 444 729 l 1
 355 729 l 1
 198 25 l 1
 303 25 l 1
 303 0 l 1
 -6 0 l 1
 -6 25 l 1
 85 25 l 1
 238 729 l 1
 145 729 l 1
 145 754 l 1
EndSplineSet
EndChar

StartChar: J
Encoding: 74 74 45
Width: 368
GlyphClass: 2
Flags: W
LayerCount: 2
Fore
SplineSet
181 754 m 1
 470.002929688 753.999023438 l 1
 470.002929688 728.999023438 l 1
 381.002929688 728.999023438 l 1
 253.002929688 151.999023438 l 2
 223.002929688 19.33203125 172.669921875 -60.66796875 102.002929688 -88.0009765625 c 0
 79.3359375 -96.66796875 51.6689453125 -101.000976562 19.001953125 -101.000976562 c 0
 -13.6650390625 -101.000976562 -40.33203125 -92.0009765625 -60.9990234375 -74.0009765625 c 0
 -81.666015625 -56.0009765625 -91.9990234375 -35.16796875 -91.9990234375 -11.5009765625 c 0
 -91.9990234375 12.166015625 -86.166015625 29.9990234375 -74.4990234375 41.9990234375 c 0
 -62.83203125 53.9990234375 -48.33203125 59.9990234375 -30.9990234375 59.9990234375 c 0
 -13.666015625 59.9990234375 -0.3330078125 54.4990234375 9 43.4990234375 c 0
 18.3330078125 32.4990234375 23 21.83203125 23 11.4990234375 c 0
 23 1.166015625 21.8330078125 -6.5009765625 19.5 -11.5009765625 c 0
 17.1669921875 -16.5009765625 14.6669921875 -21.0009765625 12 -25.0009765625 c 0
 4.6669921875 -35.66796875 1 -44.0009765625 1 -50.0009765625 c 0
 1 -64.0009765625 13 -71.0009765625 37 -71.0009765625 c 0
 51 -70.333984375 62.6669921875 -64.6669921875 72 -54 c 0
 92 -30.6669921875 108.333007812 11 121 71 c 2
 264 729 l 1
 181 729 l 1
 181 754 l 1
EndSplineSet
EndChar

StartChar: K
Encoding: 75 75 46
Width: 726
GlyphClass: 2
Flags: W
LayerCount: 2
Fore
SplineSet
568 754 m 1
 833 754 l 1
 833 729 l 1
 724 729 l 1
 426 452 l 1
 664 25 l 1
 764 25 l 1
 764 0 l 1
 418 0 l 1
 418 25 l 1
 532 25 l 1
 322 395 l 1
 681 729 l 1
 568 729 l 1
 568 754 l 1
156 754 m 1
 475 754 l 1
 475 729 l 1
 376 729 l 1
 219 25 l 1
 324 25 l 1
 324 0 l 1
 15 0 l 1
 15 25 l 1
 106 25 l 1
 259 729 l 1
 156 729 l 1
 156 754 l 1
EndSplineSet
EndChar

StartChar: L
Encoding: 76 76 47
Width: 598
GlyphClass: 2
Flags: W
LayerCount: 2
Fore
SplineSet
129 754 m 1
 418.000976562 754 l 1
 418.000976562 729 l 1
 329.000976562 729 l 1
 172.000976562 25 l 1
 339.000976562 25 l 2
 386.333984375 25.6669921875 425.666992188 39.333984375 457 66.0009765625 c 0
 493 97.333984375 529.333007812 152.666992188 566 232 c 1
 596 232 l 1
 536 0 l 1
 -22 0 l 1
 -22 25 l 1
 59 25 l 1
 212 729 l 1
 129 729 l 1
 129 754 l 1
EndSplineSet
EndChar

StartChar: M
Encoding: 77 77 48
Width: 879
GlyphClass: 2
Flags: W
LayerCount: 2
Fore
SplineSet
166 754 m 1
 408 754 l 1
 454 227 l 1
 458 227 l 1
 759 754 l 1
 975 754 l 1
 975 729 l 1
 870 729 l 1
 713 25 l 1
 825 25 l 1
 825 0 l 1
 509 0 l 1
 509 25 l 1
 600 25 l 1
 735 643 l 1
 368 0 l 1
 347 0 l 1
 288 705 l 1
 284 705 l 1
 136 25 l 1
 236 25 l 1
 236 0 l 1
 14 0 l 1
 14 25 l 1
 106 25 l 1
 259 729 l 1
 166 729 l 1
 166 754 l 1
EndSplineSet
EndChar

StartChar: N
Encoding: 78 78 49
Width: 769
GlyphClass: 2
Flags: W
LayerCount: 2
Fore
SplineSet
147 754 m 1
 399 754 l 1
 608 228 l 1
 612 228 l 1
 721 729 l 1
 612 729 l 1
 612 754 l 1
 854 754 l 1
 854 729 l 1
 751 729 l 1
 590 -13 l 1
 560 -13 l 1
 279 705 l 1
 275 705 l 1
 127 25 l 1
 237 25 l 1
 237 0 l 1
 -5 0 l 1
 -5 25 l 1
 97 25 l 1
 250 729 l 1
 147 729 l 1
 147 754 l 1
EndSplineSet
EndChar

StartChar: O
Encoding: 79 79 50
Width: 769
GlyphClass: 2
Flags: W
LayerCount: 2
Fore
SplineSet
520 736 m 0
 450.666992188 736 390.999023438 703.999023438 340.999023438 639.999023438 c 0
 298.33203125 585.33203125 264.999023438 513.999023438 240.999023438 425.999023438 c 0
 220.33203125 350.666015625 209.999023438 280.499023438 209.999023438 215.499023438 c 0
 209.999023438 150.499023438 220.499023438 101.499023438 241.499023438 68.4990234375 c 0
 262.499023438 35.4990234375 298.33203125 18.9990234375 348.999023438 18.9990234375 c 0
 420.33203125 18.33203125 480.665039062 51.33203125 529.998046875 117.999023438 c 0
 569.998046875 171.33203125 601.331054688 243.33203125 623.998046875 333.999023438 c 0
 642.665039062 407.999023438 651.83203125 471.83203125 651.499023438 525.499023438 c 0
 651.166015625 579.166015625 647.333007812 618.333007812 640 643 c 0
 632.666992188 667.666992188 623 686.666992188 611 700 c 0
 590.333007812 724 560 736 520 736 c 0
340.999023438 -11.0009765625 m 0
 296.999023438 -11.0009765625 258.166015625 -2.8330078125 224.499023438 13.5 c 0
 190.83203125 29.8330078125 162.665039062 51.3330078125 139.998046875 78 c 0
 94.6650390625 132 71.998046875 199.333007812 71.998046875 280 c 0
 71.998046875 356 94.6650390625 432.666992188 139.998046875 510 c 0
 182.665039062 583.333007812 237.998046875 643.333007812 305.998046875 690 c 0
 376.665039062 738.666992188 447.33203125 763 517.999023438 763 c 0
 597.999023438 762.333007812 662.666015625 732 711.999023438 672 c 0
 757.33203125 616.666992188 780.33203125 551 780.999023438 475 c 0
 780.33203125 406.333007812 761.33203125 335 723.999023438 261 c 0
 683.999023438 184.333007812 632.666015625 121.333007812 569.999023438 72 c 0
 499.33203125 17.3330078125 422.999023438 -10.333984375 340.999023438 -11.0009765625 c 0
EndSplineSet
Substitution2: "Single Substitution lookup 7 subtable" ordmasculine
EndChar

StartChar: P
Encoding: 80 80 51
Width: 643
GlyphClass: 2
Flags: W
LayerCount: 2
Fore
SplineSet
336 729 m 1
 256.999023438 372.999023438 l 1
 341.999023438 372.999023438 l 2
 410.666015625 372.999023438 460.833007812 391.83203125 492.5 429.499023438 c 0
 524.166992188 467.166015625 540 524.333007812 540 601 c 0
 540 649.666992188 531.333007812 682.666992188 514 700 c 0
 495.333007812 719.333007812 459 729 405 729 c 2
 336 729 l 1
416.999023438 753.999023438 m 2
 498.999023438 753.999023438 563.33203125 736.33203125 609.999023438 700.999023438 c 0
 653.999023438 667.666015625 675.999023438 623.666015625 675.999023438 568.999023438 c 0
 675.999023438 502.999023438 644.999023438 449.666015625 582.999023438 408.999023438 c 0
 520.999023438 368.33203125 442.33203125 347.999023438 346.999023438 347.999023438 c 2
 250.999023438 347.999023438 l 1
 178.999023438 24.9990234375 l 1
 293.999023438 24.9990234375 l 1
 293.999023438 -0.0009765625 l 1
 -25.0009765625 -0.0009765625 l 1
 -25.0009765625 24.9990234375 l 1
 65.9990234375 24.9990234375 l 1
 218.999023438 728.999023438 l 1
 125.999023438 728.999023438 l 1
 125.999023438 753.999023438 l 1
 416.999023438 753.999023438 l 2
EndSplineSet
EndChar

StartChar: Q
Encoding: 81 81 52
Width: 769
GlyphClass: 2
Flags: W
LayerCount: 2
Fore
SplineSet
520 736 m 0
 450.666992188 736 390.999023438 703.999023438 340.999023438 639.999023438 c 0
 298.33203125 585.33203125 264.999023438 513.999023438 240.999023438 425.999023438 c 0
 220.33203125 350.666015625 209.999023438 280.499023438 209.999023438 215.499023438 c 0
 209.999023438 150.499023438 220.499023438 101.499023438 241.499023438 68.4990234375 c 0
 262.499023438 35.4990234375 298.33203125 18.9990234375 348.999023438 18.9990234375 c 0
 420.33203125 18.33203125 480.665039062 51.33203125 529.998046875 117.999023438 c 0
 569.998046875 171.33203125 601.331054688 243.33203125 623.998046875 333.999023438 c 0
 642.665039062 407.999023438 651.83203125 471.83203125 651.499023438 525.499023438 c 0
 651.166015625 579.166015625 647.333007812 618.333007812 640 643 c 0
 632.666992188 667.666992188 623 686.666992188 611 700 c 0
 590.333007812 724 560 736 520 736 c 0
617.999023438 -232.000976562 m 1
 576.666015625 -238.66796875 539.33203125 -242.001953125 505.999023438 -242.001953125 c 0
 427.33203125 -242.001953125 366.999023438 -225.001953125 324.999023438 -191.001953125 c 0
 282.999023438 -157.001953125 261.999023438 -106.668945312 261.999023438 -40.001953125 c 2
 261.999023438 -21.001953125 l 2
 261.999023438 -14.3349609375 262.666015625 -7.66796875 263.999023438 -1.0009765625 c 1
 202.666015625 15.666015625 154.666015625 51.3330078125 119.999023438 106 c 0
 87.9990234375 156 71.9990234375 214 71.9990234375 280 c 0
 71.9990234375 356 94.666015625 432.666992188 139.999023438 510 c 0
 182.666015625 583.333007812 237.999023438 643.333007812 305.999023438 690 c 0
 376.666015625 738.666992188 447.333007812 763 518 763 c 0
 598 762.333007812 662.666992188 732 712 672 c 0
 757.333007812 616.666992188 780.333007812 551 781 475 c 0
 781 414.333007812 766 350.666015625 736 283.999023438 c 0
 705.333007812 217.33203125 663.333007812 157.999023438 610 105.999023438 c 0
 553.333007812 50.666015625 491.333007812 14.9990234375 424 -1.0009765625 c 1
 410.666992188 -25.66796875 404 -53.66796875 404 -85.0009765625 c 0
 404 -129.000976562 416 -160.833984375 440 -180.500976562 c 0
 464 -200.16796875 497.666992188 -210.000976562 541 -210.000976562 c 0
 566.333007812 -210.000976562 589.666015625 -207.333984375 610.999023438 -202.000976562 c 1
 617.999023438 -232.000976562 l 1
EndSplineSet
EndChar

StartChar: R
Encoding: 82 82 53
Width: 703
GlyphClass: 2
Flags: W
LayerCount: 2
Fore
SplineSet
360 729 m 1
 290 415.999023438 l 1
 392 415.999023438 l 2
 447.333007812 415.999023438 489.833007812 433.33203125 519.5 467.999023438 c 0
 549.166992188 502.666015625 564 553.333007812 564 620 c 0
 564 662.666992188 555.666992188 690.666992188 539 704 c 0
 519.666992188 720 483 728.333007812 429 729 c 2
 360 729 l 1
-1 -0.0009765625 m 1
 -1.0029296875 24.9990234375 l 1
 89.9970703125 24.9990234375 l 1
 242.997070312 728.999023438 l 1
 149.997070312 728.999023438 l 1
 149.997070312 753.999023438 l 1
 440.997070312 753.999023438 l 2
 526.330078125 753.999023438 590.830078125 738.33203125 634.497070312 706.999023438 c 0
 678.1640625 675.666015625 699.997070312 634.499023438 699.997070312 583.499023438 c 0
 699.997070312 532.499023438 677.330078125 489.999023438 631.997070312 455.999023438 c 0
 586.6640625 421.999023438 521.997070312 401.33203125 437.997070312 393.999023438 c 1
 437.997070312 388.999023438 l 1
 504.6640625 364.33203125 547.997070312 333.999023438 567.997070312 297.999023438 c 0
 585.997070312 266.666015625 596.6640625 213.333007812 599.997070312 138 c 0
 601.330078125 93.3330078125 604.497070312 65.166015625 609.497070312 53.4990234375 c 0
 614.497070312 41.83203125 621.1640625 33.83203125 629.497070312 29.4990234375 c 0
 637.830078125 25.166015625 650.830078125 22.9990234375 668.497070312 22.9990234375 c 0
 686.1640625 22.9990234375 700.331054688 28.33203125 710.998046875 38.9990234375 c 1
 726.998046875 24.9990234375 l 1
 717.665039062 14.33203125 706.498046875 5.83203125 693.498046875 -0.5009765625 c 0
 680.498046875 -6.833984375 659.331054688 -10.0009765625 629.998046875 -10.0009765625 c 0
 600.665039062 -10.0009765625 575.83203125 -5.833984375 555.499023438 2.4990234375 c 0
 535.166015625 10.83203125 518.666015625 21.83203125 505.999023438 35.4990234375 c 0
 493.33203125 49.166015625 483.83203125 64.666015625 477.499023438 81.9990234375 c 0
 471.166015625 99.33203125 466.666015625 116.999023438 463.999023438 134.999023438 c 0
 461.33203125 152.999023438 459.83203125 170.499023438 459.499023438 187.499023438 c 0
 459.166015625 204.499023438 458.333007812 223.33203125 457 243.999023438 c 0
 455.666992188 264.666015625 451.166992188 284.999023438 443.5 304.999023438 c 0
 435.833007812 324.999023438 426 341.33203125 414 353.999023438 c 0
 390 378.666015625 360 390.999023438 324 390.999023438 c 2
 285 390.999023438 l 1
 203 24.9990234375 l 1
 318 24.9990234375 l 1
 318 -0.0009765625 l 1
 -1 -0.0009765625 l 1
EndSplineSet
EndChar

StartChar: S
Encoding: 83 83 54
Width: 577
GlyphClass: 2
Flags: W
LayerCount: 2
Fore
SplineSet
528 708 m 1
 570 754 l 1
 595 754 l 1
 555 555 l 1
 530 555 l 1
 530 609.666992188 516.5 653.833984375 489.5 687.500976562 c 0
 462.5 721.16796875 424 738.000976562 374 738.000976562 c 0
 334 738.000976562 298 727.333984375 266 706.000976562 c 0
 230 682.66796875 212 653.000976562 212 617.000976562 c 0
 212 591.66796875 220 570.500976562 236 553.500976562 c 0
 252 536.500976562 272 521.16796875 296 507.500976562 c 0
 320 493.833984375 345.833007812 480.166992188 373.5 466.5 c 0
 401.166992188 452.833007812 427 436.666015625 451 417.999023438 c 0
 507 373.999023438 535 316.999023438 535 246.999023438 c 0
 535 171.666015625 509.333007812 109.333007812 458 60 c 0
 407.333007812 11.3330078125 345.666015625 -13 272.999023438 -13 c 0
 200.33203125 -13 142.33203125 9.3330078125 98.9990234375 54 c 1
 41.9990234375 0 l 1
 16.9990234375 0 l 1
 61.9990234375 213 l 1
 86.9990234375 213 l 1
 105.666015625 79 168.333007812 12 275 12 c 0
 333.666992188 12 381 30 417 66 c 0
 449.666992188 98.6669921875 466 135.666992188 466 177 c 0
 466 205.666992188 458.166992188 229.333984375 442.5 248.000976562 c 0
 426.833007812 266.66796875 407.333007812 283.334960938 384 298.001953125 c 0
 360.666992188 312.668945312 335.166992188 326.668945312 307.5 340.001953125 c 0
 279.833007812 353.334960938 254.333007812 368.66796875 231 386.000976562 c 0
 207.666992188 403.333984375 188.166992188 424.333984375 172.5 449.000976562 c 0
 156.833007812 473.66796875 149 502.66796875 149 536.000976562 c 0
 149 569.333984375 153.666992188 599.333984375 163 626.000976562 c 0
 173 652.66796875 187.333007812 676.000976562 206 696.000976562 c 0
 247.333007812 740.000976562 302.5 762.16796875 371.5 762.500976562 c 0
 440.5 762.833984375 492.666992188 744.666992188 528 708 c 1
EndSplineSet
EndChar

StartChar: T
Encoding: 84 84 55
Width: 681
GlyphClass: 2
Flags: W
LayerCount: 2
Fore
SplineSet
160 754 m 1
 764.000976562 754 l 1
 731.000976562 513 l 1
 701.000976562 513 l 1
 701.000976562 601.666992188 692.66796875 659.333984375 676.000976562 686.000976562 c 0
 666.000976562 702.000976562 652.16796875 713.16796875 634.500976562 719.500976562 c 0
 616.833984375 725.833984375 593.666992188 729.000976562 565 729.000976562 c 2
 515 729.000976562 l 1
 358 25.0009765625 l 1
 473 25.0009765625 l 1
 473 0.0009765625 l 1
 134 0.0009765625 l 1
 134 25.0009765625 l 1
 245 25.0009765625 l 1
 398 729.000976562 l 1
 344 729.000976562 l 2
 304.666992188 729.000976562 264.666992188 711.66796875 224 677.000976562 c 0
 183.333007812 642.333984375 148 587.666992188 118 513 c 1
 88 513 l 1
 160 754 l 1
EndSplineSet
EndChar

StartChar: U
Encoding: 85 85 56
Width: 732
GlyphClass: 2
Flags: W
LayerCount: 2
Fore
SplineSet
448 729 m 1
 355 729 l 1
 250 266 l 2
 241.333007812 230 237 197 237 167 c 0
 237 118.333007812 250.333007812 81.166015625 277 55.4990234375 c 0
 303.666992188 29.83203125 342 16.9990234375 392 16.9990234375 c 0
 442 16.9990234375 485.666992188 33.33203125 523 65.9990234375 c 0
 560.333007812 98.666015625 585.333007812 144.999023438 598 204.999023438 c 2
 709 728.999023438 l 1
 600 728.999023438 l 1
 600 753.999023438 l 1
 842 753.999023438 l 1
 842 728.999023438 l 1
 739 728.999023438 l 1
 633 230.999023438 l 2
 616.333007812 154.33203125 589.333007812 96.33203125 552 56.9990234375 c 0
 507.333007812 10.33203125 442.333007812 -13.0009765625 357 -13.0009765625 c 0
 285 -13.0009765625 228.5 2.83203125 187.5 34.4990234375 c 0
 146.5 66.166015625 126 113.333007812 126 176 c 0
 126 201.333007812 129.666992188 231.333007812 137 266 c 2
 238 729 l 1
 125 729 l 1
 125 754 l 1
 448 754 l 1
 448 729 l 1
EndSplineSet
EndChar

StartChar: V
Encoding: 86 86 57
Width: 564
GlyphClass: 2
Flags: W
LayerCount: 2
Fore
SplineSet
526 754 m 1
 740 754 l 1
 740 729 l 1
 663 729 l 1
 156 -10 l 1
 135 -10 l 1
 189 729 l 1
 111 729 l 1
 111 754 l 1
 380 754 l 1
 380 729 l 1
 311 729 l 1
 264 207 l 1
 268 207 l 1
 624 729 l 1
 526 729 l 1
 526 754 l 1
EndSplineSet
EndChar

StartChar: W
Encoding: 87 87 58
Width: 870
GlyphClass: 2
Flags: W
LayerCount: 2
Fore
SplineSet
583 729 m 1
 569 571 l 1
 693 729 l 1
 583 729 l 1
267 202 m 1
 438 421 l 1
 461 729 l 1
 306 729 l 1
 263 202 l 1
 267 202 l 1
838 754 m 1
 1052 754 l 1
 1052 729 l 1
 975 729 l 1
 428 -10 l 1
 407 -10 l 1
 435 371 l 1
 150 -10 l 1
 129 -10 l 1
 183 729 l 1
 105 729 l 1
 105 754 l 1
 796 754 l 1
 796 729 l 1
 726 729 l 1
 564 512 l 1
 537 200 l 1
 541 200 l 1
 942 729 l 1
 838 729 l 1
 838 754 l 1
EndSplineSet
EndChar

StartChar: X
Encoding: 88 88 59
Width: 603
GlyphClass: 2
Flags: W
LayerCount: 2
Fore
SplineSet
487 754 m 1
 732 754 l 1
 732 729 l 1
 637 729 l 1
 396 428 l 1
 546 25 l 1
 650 25 l 1
 650 0 l 1
 321 0 l 1
 321 25 l 1
 425 25 l 1
 313 323 l 1
 309 323 l 1
 77 25 l 1
 202 25 l 1
 202 0 l 1
 -55 0 l 1
 -55 25 l 1
 42 25 l 1
 300 355 l 1
 158 729 l 1
 62 729 l 1
 62 754 l 1
 381 754 l 1
 381 729 l 1
 283 729 l 1
 383 462 l 1
 387 462 l 1
 602 729 l 1
 487 729 l 1
 487 754 l 1
EndSplineSet
EndChar

StartChar: Y
Encoding: 89 89 60
Width: 583
GlyphClass: 2
Flags: W
LayerCount: 2
Fore
SplineSet
510 754 m 1
 755 754 l 1
 755 729 l 1
 660 729 l 1
 395 350 l 1
 322 25 l 1
 447 25 l 1
 447 0 l 1
 95 0 l 1
 95 25 l 1
 209 25 l 1
 278 349 l 1
 133 729 l 1
 42 729 l 1
 42 754 l 1
 376 754 l 1
 376 729 l 1
 258 729 l 1
 384 390 l 1
 388 390 l 1
 625 729 l 1
 510 729 l 1
 510 754 l 1
EndSplineSet
EndChar

StartChar: Z
Encoding: 90 90 61
Width: 649
GlyphClass: 2
Flags: W
LayerCount: 2
Fore
SplineSet
9 25 m 1
 556 725 l 1
 556 729 l 1
 407 729 l 2
 360.333007812 728.333007812 321 716 289 692 c 0
 251.666992188 664 215.333984375 614 180.000976562 542 c 1
 150.000976562 542 l 1
 210.000976562 754 l 1
 702.000976562 754 l 1
 702.000976562 729 l 1
 149.000976562 29 l 1
 149.000976562 25 l 1
 353.000976562 25 l 2
 400.333984375 25.6669921875 439.666992188 39.333984375 471 66.0009765625 c 0
 507 97.333984375 543.333007812 152.666992188 580 232 c 1
 610 232 l 1
 550 0 l 1
 9 0 l 1
 9 25 l 1
EndSplineSet
EndChar

StartChar: bracketleft
Encoding: 91 91 62
Width: 319
GlyphClass: 2
Flags: W
LayerCount: 2
Fore
SplineSet
-9 -115 m 1
 182 754 l 1
 401 754 l 1
 396 729 l 1
 285 729 l 1
 101 -105 l 1
 211 -105 l 1
 206 -130 l 1
 -9 -130 l 1
 -9 -115 l 1
EndSplineSet
EndChar

StartChar: backslash
Encoding: 92 92 63
Width: 205
GlyphClass: 2
Flags: W
LayerCount: 2
Fore
SplineSet
129 753 m 1
 208 0 l 1
 149 0 l 1
 70 753 l 1
 129 753 l 1
EndSplineSet
EndChar

StartChar: bracketright
Encoding: 93 93 64
Width: 319
GlyphClass: 2
Flags: W
LayerCount: 2
Fore
SplineSet
368 739 m 1
 177 -130 l 1
 -42 -130 l 1
 -37 -105 l 1
 73 -105 l 1
 258 729 l 1
 148 729 l 1
 153 754 l 1
 368 754 l 1
 368 739 l 1
EndSplineSet
EndChar

StartChar: asciicircum
Encoding: 94 94 65
Width: 501
GlyphClass: 2
Flags: W
LayerCount: 2
Fore
SplineSet
8 173 m 1
 223 645 l 1
 272 645 l 1
 489 173 l 1
 435 173 l 1
 247 581 l 1
 62 173 l 1
 8 173 l 1
EndSplineSet
EndChar

StartChar: underscore
Encoding: 95 95 66
Width: 538
GlyphClass: 2
Flags: W
LayerCount: 2
Fore
SplineSet
-62 -70 m 1
 476 -70 l 1
 476 -114 l 1
 -62 -114 l 1
 -62 -70 l 1
EndSplineSet
EndChar

StartChar: grave
Encoding: 96 96 67
Width: 248
GlyphClass: 2
Flags: W
LayerCount: 2
Fore
SplineSet
318 554 m 1
 183 647.999023438 l 2
 161.666992188 662.666015625 148 674.833007812 142 684.5 c 0
 136 694.166992188 133 704.166992188 133 714.5 c 0
 133 724.833007812 137 734 145 742 c 0
 153 750 163.333007812 754 176 754 c 0
 200.666992188 754 223 740.666992188 243 714 c 2
 361 554 l 1
 318 554 l 1
EndSplineSet
EndChar

StartChar: a
Encoding: 97 97 68
Width: 609
VWidth: 1100
GlyphClass: 2
Flags: HW
LayerCount: 2
Fore
SplineSet
239 65 m 0
 298 65 346 76 386 185 c 1
 417 310 l 2
 418 317 418 323 419 328 c 0
 420 333 420 340 420 347 c 0
 420 400 383 432 334 432 c 0
 260 432 236 400 214 344 c 0
 204 319 196 294 189 268 c 0
 165 175 141 65 239 65 c 0
443 428 m 1
 460 495 l 1
 566 495 l 1
 485 162 l 2
 476 125 450 66 487 66 c 4
 516 66 542 129 568 188 c 1
 612 156 l 1
 582 80 545 29 502 1 c 0
 486 -9 469 -14 451 -14 c 0
 433 -14 416 -8 400 5 c 0
 384 18 374 42 372 77 c 1
 367 77 l 1
 350 48 328 25 302 9 c 0
 276 -7 249 -14 222 -14 c 0
 195 -14 172 -10 151 0 c 0
 130 10 112 23 97 41 c 0
 64 78 47 128 47 190 c 0
 47 233 55 274 71 312 c 0
 87 350 109 384 135 413 c 0
 161 442 191 465 225 482 c 0
 259 499 293 508 327 508 c 0
 361 508 386 500 402 485 c 0
 418 470 430 451 438 428 c 1
 443 428 l 1
EndSplineSet
Substitution2: "Single Substitution lookup 7 subtable" ordfeminine
EndChar

StartChar: b
Encoding: 98 98 69
Width: 567
VWidth: 1100
GlyphClass: 2
Flags: HW
LayerCount: 2
Fore
SplineSet
355 473 m 0
 303 473 258 437 220 367 c 1
 168 152 l 2
 164 128 162 106 162 87 c 0
 162 68 167 52 179 38 c 0
 191 24 208 18 231 18 c 0
 254 18 276 28 299 48 c 0
 322 69 342 96 360 128 c 0
 399 200 418 279 418 368 c 0
 418 405 413 433 404 449 c 0
 395 465 378 473 355 473 c 0
103 829 m 1
 331 829 l 1
 241 458 l 1
 247 458 l 1
 261 472 279 483 301 493 c 0
 323 503 345 508 368 508 c 0
 391 508 413 504 433 495 c 0
 453 486 471 474 486 457 c 0
 519 421 536 372 536 312 c 0
 536 269 527 228 510 189 c 0
 493 150 469 115 440 85 c 0
 411 55 377 31 339 13 c 0
 301 -5 266 -14 232 -14 c 0
 198 -14 171 -10 150 -2 c 0
 129 5 112 16 99 31 c 0
 71 60 57 98 57 144 c 0
 57 163 61 190 70 224 c 2
 207 802 l 1
 103 802 l 1
 103 829 l 1
EndSplineSet
EndChar

StartChar: c
Encoding: 99 99 70
Width: 517
VWidth: 1100
GlyphClass: 2
Flags: HW
LayerCount: 2
Fore
SplineSet
466 131 m 1
 415 34 344 -14 255 -14 c 0
 193 -15 142 8 103 55 c 0
 66 98 48 150 48 210 c 0
 48 248 57 285 74 321 c 0
 91 357 113 388 142 416 c 0
 171 444 203 466 241 483 c 0
 279 500 319 508 362 508 c 0
 405 508 440 499 466 480 c 0
 492 461 506 437 506 406 c 0
 506 385 500 370 488 359 c 0
 476 348 462 342 444 342 c 0
 426 342 411 346 399 355 c 0
 387 364 382 375 382 389 c 0
 382 403 384 412 387 418 c 0
 390 424 394 429 398 433 c 0
 402 437 407 440 410 443 c 0
 413 446 415 449 415 453 c 0
 415 468 396 475 360 475 c 0
 324 475 294 464 269 441 c 0
 244 418 224 389 209 355 c 0
 179 289 164 220 164 147 c 0
 164 106 171 74 186 52 c 0
 201 30 227 19 264 19 c 0
 336 19 396 61 444 146 c 1
 466 131 l 1
EndSplineSet
EndChar

StartChar: d
Encoding: 100 100 71
Width: 616
VWidth: 1100
GlyphClass: 2
Flags: HW
LayerCount: 2
Fore
SplineSet
161 132 m 0
 161 58 187 21 239 21 c 0
 265 20 286 28 304 44 c 0
 338 74 366 122 388 187 c 1
 424 334 l 2
 425 346 426 356 426 366 c 0
 426 397 417 423 399 444 c 0
 381 465 362 476 340 476 c 0
 318 476 299 471 283 459 c 0
 267 447 253 432 240 413 c 0
 227 394 216 373 206 348 c 0
 196 323 187 298 180 273 c 0
 167 223 161 176 161 132 c 0
455 -14 m 0
 401 -14 373 16 372 77 c 1
 367 77 l 1
 352 51 334 30 309 12 c 0
 284 -6 257 -14 227 -14 c 0
 197 -14 170 -10 148 -1 c 0
 126 8 106 22 90 39 c 0
 53 76 35 125 35 186 c 0
 35 229 44 269 62 308 c 0
 80 347 102 381 130 411 c 0
 158 441 189 464 223 482 c 0
 257 500 290 508 323 508 c 0
 356 508 381 501 399 486 c 0
 417 471 430 451 440 428 c 1
 445 428 l 1
 535 802 l 1
 431 802 l 1
 431 829 l 1
 659 829 l 1
 481 107 l 2
 477 91 475 78 475 69 c 0
 475 51 483 42 500 42 c 0
 538 42 582 89 630 183 c 1
 652 173 l 1
 620 111 594 69 575 48 c 0
 537 6 497 -14 455 -14 c 0
EndSplineSet
EndChar

StartChar: e
Encoding: 101 101 72
Width: 512
VWidth: 1100
GlyphClass: 2
Flags: HW
LayerCount: 2
Fore
SplineSet
403 363 m 0
 403 418 379 431 334 431 c 0
 250 431 194 361 179 276 c 1
 188 275 197 274 204 274 c 2
 228 274 l 2
 312 275 403 286 403 363 c 0
173 212 m 1
 170 189 168 155 168 134 c 4
 168 88 212 56 271 56 c 0
 349 56 393 82 444 167 c 1
 487 131 l 1
 464 88 434 53 397 26 c 0
 360 -1 316 -14 264 -14 c 0
 197 -13 142 10 99 55 c 0
 57 99 36 150 36 209 c 0
 36 246 45 282 62 318 c 0
 79 354 102 386 131 414 c 0
 160 442 192 465 229 482 c 0
 266 499 299 508 330 508 c 0
 361 508 386 505 405 499 c 0
 424 493 441 484 455 472 c 0
 484 447 499 415 499 378 c 0
 499 331 477 294 434 266 c 0
 370 224 288 208 173 212 c 1
EndSplineSet
EndChar

StartChar: f
Encoding: 102 102 73
Width: 343
VWidth: 1100
GlyphClass: 2
Flags: HW
LayerCount: 2
Fore
SplineSet
-101 -304 m 2
 -101 -317 -94 -323 -79 -323 c 0
 -64 -323 -52 -321 -41 -316 c 0
 -30 -311 -21 -301 -11 -288 c 0
 10 -259 26 -215 38 -154 c 2
 168 467 l 1
 68 467 l 1
 68 495 l 1
 174 495 l 1
 198 604 239 690 297 755 c 0
 350 814 406 843 466 843 c 0
 500 843 529 834 552 816 c 0
 577 798 589 775 588 749 c 0
 588 732 583 718 573 706 c 0
 563 694 549 688 531 688 c 0
 513 688 499 692 489 702 c 0
 479 712 474 722 474 732 c 0
 474 742 475 750 478 755 c 0
 481 760 483 764 486 768 c 0
 489 772 490 776 493 779 c 0
 496 782 497 786 497 791 c 0
 497 796 494 800 487 804 c 0
 480 808 469 810 455 810 c 0
 441 810 428 805 414 797 c 0
 400 789 387 775 375 755 c 0
 351 717 328 649 305 551 c 2
 291 495 l 1
 421 495 l 1
 421 467 l 1
 285 467 l 1
 188 49 l 2
 154 -101 109 -210 55 -277 c 0
 12 -330 -36 -356 -90 -356 c 0
 -122 -356 -149 -349 -171 -334 c 0
 -193 -319 -204 -301 -204 -282 c 0
 -204 -263 -198 -248 -188 -238 c 0
 -178 -228 -165 -223 -150 -223 c 0
 -135 -223 -122 -228 -112 -238 c 0
 -102 -248 -98 -259 -98 -272 c 2
 -101 -304 l 2
EndSplineSet
EndChar

StartChar: g
Encoding: 103 103 74
Width: 568
VWidth: 1100
GlyphClass: 2
Flags: HW
LayerCount: 2
Fore
SplineSet
254 172 m 0
 275 172 293 179 309 193 c 0
 325 207 338 226 349 249 c 0
 371 294 382 346 382 404 c 0
 382 432 378 452 370 466 c 0
 362 480 348 486 328 486 c 0
 308 486 290 479 274 466 c 0
 258 453 245 436 234 414 c 0
 212 371 201 320 201 261 c 0
 201 233 205 211 212 195 c 0
 219 179 233 172 254 172 c 0
162 -40 m 1
 85 -70 39 -107 26 -152 c 0
 22 -166 20 -181 20 -196 c 0
 20 -238 34 -270 62 -292 c 0
 90 -314 128 -326 176 -326 c 0
 224 -326 265 -319 297 -306 c 0
 329 -293 356 -276 377 -256 c 0
 398 -236 413 -215 424 -192 c 0
 435 -169 440 -148 440 -127 c 0
 440 -106 434 -89 421 -77 c 0
 408 -65 391 -57 370 -56 c 2
 162 -40 l 1
129 208 m 1
 108 237 97 267 97 301 c 0
 97 335 103 364 115 388 c 0
 127 412 144 433 165 451 c 0
 209 488 261 507 321 508 c 0
 361 508 394 499 419 480 c 0
 444 461 461 437 471 406 c 1
 475 406 l 1
 485 440 497 465 510 482 c 0
 523 499 538 508 555 508 c 0
 572 508 586 504 595 495 c 0
 604 486 608 476 608 465 c 0
 608 454 605 444 598 434 c 0
 591 424 583 420 572 420 c 0
 561 420 553 422 549 425 c 0
 545 428 540 431 537 435 c 0
 534 439 531 443 529 446 c 0
 527 449 524 450 521 450 c 0
 514 450 509 439 502 416 c 0
 495 393 486 361 476 319 c 0
 468 268 444 228 403 196 c 0
 362 165 316 150 268 150 c 0
 220 150 182 161 155 182 c 1
 107 173 84 151 84 116 c 0
 84 101 90 89 103 82 c 0
 117 75 146 71 189 68 c 2
 363 57 l 2
 406 54 436 39 455 12 c 0
 474 -15 484 -47 484 -83 c 0
 484 -119 478 -153 466 -185 c 0
 453 -217 434 -246 409 -272 c 0
 352 -330 274 -359 174 -359 c 0
 101 -359 43 -344 1 -314 c 0
 -41 -284 -62 -245 -62 -195 c 0
 -62 -146 -35 -104 18 -70 c 0
 39 -57 66 -44 100 -32 c 1
 57 -20 28 2 13 33 c 0
 7 45 4 59 4 76 c 0
 4 135 46 179 129 208 c 1
EndSplineSet
EndChar

StartChar: h
Encoding: 104 104 75
Width: 609
VWidth: 1100
GlyphClass: 2
Flags: HW
LayerCount: 2
Fore
SplineSet
425 426 m 0
 425 450 411 462 384 462 c 0
 351 462 316 443 279 405 c 0
 242 366 215 318 197 261 c 2
 134 -0 l 1
 21 -0 l 1
 210 802 l 1
 108 802 l 1
 108 829 l 1
 334 829 l 1
 230 399 l 1
 235 399 l 1
 273 448 320 481 375 499 c 0
 394 505 416 508 440 508 c 0
 464 508 487 501 507 487 c 0
 527 473 537 451 537 420 c 0
 537 406 534 390 530 372 c 2
 463 107 l 2
 459 91 458 78 458 69 c 0
 458 51 466 42 482 42 c 0
 515 42 553 89 596 183 c 1
 618 173 l 1
 592 116 569 75 548 52 c 0
 527 29 507 11 488 1 c 0
 469 -9 448 -14 424 -14 c 0
 400 -14 381 -7 366 7 c 0
 351 21 343 39 343 62 c 0
 343 74 345 86 348 96 c 2
 420 397 l 2
 423 409 425 419 425 426 c 0
EndSplineSet
EndChar

StartChar: i
Encoding: 105 105 76
Width: 343
VWidth: 1100
GlyphClass: 2
Flags: HW
LayerCount: 2
Fore
SplineSet
179 734 m 0
 179 754 187 771 201 785 c 0
 215 799 232 806 252 806 c 0
 272 806 289 799 303 785 c 0
 317 771 324 754 324 734 c 0
 324 714 317 697 303 683 c 0
 289 669 272 661 252 661 c 0
 232 661 215 669 201 683 c 0
 187 697 179 714 179 734 c 0
196 73 m 4
 233 73 250 111 297 205 c 1
 341 173 l 1
 315 117 290 76 268 53 c 0
 226 8 184 -14 140 -14 c 0
 113 -14 92 -7 77 7 c 0
 62 21 55 39 55 62 c 0
 55 74 56 86 59 96 c 2
 138 424 l 1
 52 424 l 1
 52 495 l 1
 273 495 l 1
 177 138 l 6
 173 122 172 109 172 100 c 4
 172 82 180 73 196 73 c 4
EndSplineSet
EndChar

StartChar: j
Encoding: 106 106 77
Width: 320
VWidth: 1100
GlyphClass: 2
Flags: HW
LayerCount: 2
Fore
SplineSet
190 734 m 0
 190 754 198 771 212 785 c 0
 226 799 243 806 263 806 c 0
 283 806 300 799 314 785 c 0
 328 771 336 754 336 734 c 0
 336 714 328 697 314 683 c 0
 300 669 283 661 263 661 c 0
 243 661 226 669 212 683 c 0
 198 697 190 714 190 734 c 0
-77 -271 m 2
 -80 -306 l 2
 -80 -318 -72 -323 -56 -323 c 0
 -42 -323 -31 -318 -22 -306 c 0
 -3 -280 14 -234 28 -167 c 2
 160 468 l 1
 62 468 l 1
 62 495 l 1
 283 495 l 1
 142 -147 l 2
 128 -212 99 -264 56 -302 c 0
 16 -338 -28 -356 -74 -356 c 0
 -103 -356 -125 -351 -141 -341 c 0
 -169 -322 -183 -303 -183 -282 c 0
 -183 -261 -177 -246 -167 -237 c 0
 -157 -228 -144 -223 -128 -223 c 0
 -112 -223 -100 -228 -91 -238 c 0
 -82 -248 -77 -259 -77 -271 c 2
EndSplineSet
EndChar

StartChar: k
Encoding: 107 107 78
Width: 575
VWidth: 1100
GlyphClass: 2
Flags: HW
LayerCount: 2
Fore
SplineSet
448 459 m 0
 448 469 443 473 432 473 c 0
 421 473 411 466 401 453 c 0
 391 440 381 425 372 407 c 0
 363 389 354 372 345 354 c 0
 336 336 328 322 319 312 c 1
 351 295 374 277 386 257 c 0
 398 237 404 217 404 196 c 0
 404 175 402 155 398 133 c 0
 394 111 393 93 393 80 c 0
 393 67 394 59 397 55 c 0
 400 51 404 49 410 49 c 0
 426 49 444 60 463 81 c 0
 482 102 499 133 515 173 c 1
 540 161 l 1
 495 44 439 -14 370 -14 c 0
 329 -14 301 1 286 33 c 0
 281 44 278 56 278 70 c 0
 278 84 280 99 284 114 c 0
 288 129 293 145 297 161 c 0
 309 201 315 228 315 242 c 0
 315 268 310 283 300 290 c 1
 280 278 263 270 249 266 c 0
 235 262 217 261 196 261 c 1
 136 0 l 1
 23 0 l 1
 201 802 l 1
 104 802 l 1
 104 829 l 1
 326 829 l 1
 206 307 l 1
 237 311 255 314 262 314 c 2
 275 314 l 1
 293 331 307 350 319 372 c 0
 331 394 342 416 354 436 c 0
 366 456 379 473 394 487 c 0
 409 501 426 508 445 508 c 0
 464 508 480 505 491 499 c 0
 502 493 510 486 517 477 c 0
 530 459 537 442 537 424 c 0
 537 406 532 392 522 381 c 0
 512 370 499 365 483 365 c 0
 467 365 455 369 445 376 c 0
 435 383 430 394 430 408 c 0
 430 422 433 432 439 439 c 0
 445 446 448 452 448 459 c 0
EndSplineSet
EndChar

StartChar: l
Encoding: 108 108 79
Width: 356
VWidth: 1100
GlyphClass: 2
Flags: HW
LayerCount: 2
Fore
SplineSet
339 173 m 1
 280 48 211 -14 132 -14 c 0
 105 -14 84 -7 69 7 c 0
 54 21 47 39 47 62 c 0
 47 74 49 86 52 96 c 2
 221 802 l 1
 118 802 l 1
 118 829 l 1
 345 829 l 1
 167 107 l 2
 163 91 162 78 162 69 c 0
 162 51 170 42 186 42 c 0
 205 42 225 53 246 74 c 0
 267 95 291 132 317 183 c 1
 339 173 l 1
EndSplineSet
EndChar

StartChar: m
Encoding: 109 109 80
Width: 893
VWidth: 1100
GlyphClass: 2
Flags: HW
LayerCount: 2
Fore
SplineSet
403 380 m 0
 403 406 389 418 362 418 c 0
 331 418 300 400 268 365 c 0
 236 328 224 295 208 242 c 2
 142 -0 l 1
 29 -0 l 1
 129 423 l 1
 43 423 l 1
 43 495 l 1
 264 495 l 1
 240 397 l 1
 244 397 l 1
 298 471 360 508 427 508 c 0
 454 508 478 501 498 487 c 0
 518 473 528 450 528 418 c 2
 528 407 l 2
 528 404 528 401 527 397 c 2
 532 397 l 1
 586 471 648 508 716 508 c 0
 744 508 768 501 788 487 c 0
 808 473 817 450 817 418 c 0
 817 404 815 388 811 370 c 2
 745 140 l 2
 741 124 739 111 739 102 c 0
 739 84 747 75 763 75 c 0
 796 75 813 111 856 205 c 5
 900 173 l 1
 874 116 850 75 829 52 c 0
 808 29 788 11 769 1 c 0
 750 -9 730 -14 706 -14 c 0
 682 -14 662 -7 647 7 c 0
 632 21 625 39 625 62 c 0
 625 74 626 86 629 96 c 2
 688 351 l 2
 691 363 692 372 692 379 c 0
 692 405 678 418 651 418 c 0
 619 418 586 399 552 359 c 0
 517 317 495 278 482 222 c 2
 431 -0 l 1
 317 -0 l 1
 398 351 l 2
 401 363 403 373 403 380 c 0
EndSplineSet
EndChar

StartChar: n
Encoding: 110 110 81
Width: 616
VWidth: 1100
GlyphClass: 2
Flags: HW
LayerCount: 2
Fore
SplineSet
364 418 m 0
 330 418 307 402 271 364 c 0
 234 325 210 282 195 223 c 2
 142 0 l 1
 29 0 l 1
 133 424 l 1
 43 424 l 1
 43 495 l 1
 264 495 l 1
 240 397 l 1
 244 397 l 1
 303 471 368 508 438 508 c 0
 466 508 490 501 510 487 c 0
 530 473 540 451 540 419 c 0
 540 404 538 388 534 370 c 2
 468 151 l 2
 464 135 462 122 462 113 c 0
 462 95 470 86 486 86 c 0
 519 86 539 107 582 201 c 5
 623 173 l 1
 597 116 573 75 552 52 c 0
 531 29 511 11 492 1 c 0
 473 -9 452 -14 428 -14 c 0
 404 -14 385 -7 370 7 c 0
 355 21 348 39 348 62 c 0
 348 74 349 86 352 96 c 2
 400 351 l 2
 409 388 405 418 364 418 c 0
EndSplineSet
EndChar

StartChar: o
Encoding: 111 111 82
Width: 576
VWidth: 1100
GlyphClass: 2
Flags: HW
LayerCount: 2
Fore
SplineSet
349 14 m 0
 311 -5 275 -14 240 -14 c 0
 205 -14 175 -9 150 2 c 0
 125 13 104 27 86 46 c 0
 49 85 31 133 31 191 c 0
 31 230 40 269 57 307 c 0
 74 345 97 379 126 409 c 0
 155 439 188 463 226 481 c 0
 264 499 300 508 336 508 c 0
 372 508 401 503 426 493 c 0
 451 483 472 469 490 451 c 0
 527 414 546 366 546 308 c 0
 546 269 537 230 520 192 c 0
 503 154 479 119 450 89 c 0
 421 59 387 33 349 14 c 0
261 61 m 4
 360 61 419 215 419 334 c 0
 419 404 395 440 329 440 c 0
 194 440 155 282 156 154 c 0
 156 82 194 61 261 61 c 4
EndSplineSet
Substitution2: "Single Substitution lookup 7 subtable" ordmasculine
EndChar

StartChar: p
Encoding: 112 112 83
Width: 632
VWidth: 1100
GlyphClass: 2
Flags: HW
LayerCount: 2
Fore
SplineSet
384 431 m 0
 308 431 251 371 219 302 c 1
 195 174 l 1
 195 100 208 62 276 62 c 0
 335 62 382 83 410 155 c 0
 420 181 427 207 434 233 c 0
 447 286 454 321 454 360 c 0
 454 406 441 431 384 431 c 0
288 -14 m 0
 234 -14 197 9 175 55 c 1
 168 55 l 1
 100 -274 l 1
 188 -274 l 1
 188 -345 l 1
 -123 -345 l 1
 -123 -274 l 1
 -12 -274 l 1
 135 424 l 1
 46 424 l 1
 46 495 l 1
 267 495 l 1
 251 425 l 1
 255 425 l 1
 271 448 292 468 317 484 c 0
 342 500 369 508 397 508 c 0
 425 508 450 504 471 495 c 0
 492 486 511 473 527 455 c 0
 562 418 580 369 580 310 c 0
 580 267 571 227 554 188 c 0
 537 149 514 114 486 84 c 0
 458 54 427 31 392 13 c 0
 357 -5 322 -14 288 -14 c 0
EndSplineSet
EndChar

StartChar: q
Encoding: 113 113 84
Width: 594
VWidth: 1100
GlyphClass: 2
Flags: HW
LayerCount: 2
Fore
SplineSet
402 207 m 5
 422 319 l 2
 423 326 425 333 425 339 c 2
 425 358 l 2
 425 415 399 454 344 454 c 0
 280 454 240 396 218 343 c 0
 203 306 192 268 184 229 c 0
 176 190 173 154 173 122 c 0
 173 65 198 43 252 43 c 0
 335 43 375 130 402 207 c 5
371 63 m 1
 337 12 289 -14 230 -14 c 0
 178 -14 135 4 101 40 c 0
 64 79 46 128 47 189 c 0
 47 232 56 273 74 311 c 0
 92 349 113 383 141 412 c 0
 169 441 200 465 234 482 c 0
 268 499 302 508 334 508 c 0
 366 508 390 501 408 487 c 0
 426 473 440 453 450 430 c 1
 456 430 l 1
 472 495 l 1
 590 495 l 1
 407 -274 l 1
 482 -274 l 1
 482 -345 l 1
 188 -345 l 1
 188 -274 l 1
 294 -274 l 1
 371 63 l 1
EndSplineSet
EndChar

StartChar: r
Encoding: 114 114 85
Width: 467
VWidth: 1100
GlyphClass: 2
Flags: HW
LayerCount: 2
Fore
SplineSet
72 495 m 1
 293 495 l 1
 267 394 l 1
 273 394 l 1
 293 426 316 453 342 475 c 0
 368 497 393 508 416 508 c 0
 439 508 457 503 468 491 c 0
 479 479 485 465 485 449 c 0
 485 433 480 419 471 407 c 0
 462 395 449 388 433 388 c 0
 404 388 399 392 389 400 c 0
 380 407 370 413 356 413 c 0
 300 413 230 242 221 202 c 6
 170 0 l 1
 57 0 l 1
 157 424 l 1
 72 424 l 1
 72 495 l 1
EndSplineSet
EndChar

StartChar: s
Encoding: 115 115 86
Width: 412
VWidth: 1100
GlyphClass: 2
Flags: HW
LayerCount: 2
Fore
SplineSet
318 438 m 0
 318 459 296 470 253 470 c 0
 225 470 202 464 184 453 c 0
 166 442 157 427 157 408 c 0
 157 389 162 372 172 361 c 0
 182 350 195 339 210 329 c 0
 225 319 242 310 259 300 c 0
 276 290 293 279 308 266 c 0
 343 237 361 201 361 158 c 0
 361 109 340 68 298 34 c 0
 258 2 208 -14 148 -14 c 0
 102 -14 64 -3 35 18 c 0
 9 37 -4 61 -4 91 c 0
 -4 109 0 124 10 134 c 0
 20 144 32 148 47 148 c 0
 76 148 90 136 90 112 c 0
 90 99 87 88 80 79 c 0
 73 70 70 61 70 52 c 0
 70 43 77 36 90 29 c 0
 103 22 127 19 163 19 c 0
 199 19 228 27 250 44 c 0
 272 61 283 79 283 100 c 0
 283 121 277 137 267 149 c 0
 257 161 244 172 229 182 c 0
 214 192 198 202 180 212 c 0
 161 222 145 232 130 244 c 0
 95 273 77 308 77 349 c 0
 77 391 92 425 124 454 c 0
 157 484 199 499 248 499 c 0
 297 499 332 491 354 475 c 0
 376 459 387 440 387 419 c 0
 387 398 383 382 373 372 c 0
 363 362 352 356 339 356 c 0
 313 356 299 367 300 389 c 0
 300 400 303 409 309 415 c 0
 315 421 318 429 318 438 c 0
EndSplineSet
EndChar

StartChar: t
Encoding: 116 116 87
Width: 360
VWidth: 1100
GlyphClass: 2
Flags: HW
LayerCount: 2
Fore
SplineSet
202 81 m 0
 239 81 249 111 296 205 c 1
 340 173 l 1
 314 117 289 76 267 53 c 0
 225 8 183 -14 139 -14 c 0
 112 -14 91 -7 76 7 c 0
 61 21 54 39 54 62 c 0
 54 74 55 86 58 96 c 2
 138 424 l 1
 76 424 l 1
 76 495 l 1
 154 495 l 1
 185 619 l 1
 302 619 l 1
 271 495 l 1
 370 495 l 1
 370 424 l 1
 254 424 l 1
 184 146 l 2
 180 130 178 118 178 109 c 0
 178 91 186 81 202 81 c 0
EndSplineSet
EndChar

StartChar: u
Encoding: 117 117 88
Width: 628
VWidth: 1100
GlyphClass: 2
Flags: HW
LayerCount: 2
Fore
SplineSet
185 95 m 0
 185 71 199 58 226 58 c 4
 259 58 273 68 308 108 c 0
 341 145 375 213 392 271 c 2
 453 495 l 1
 565 495 l 1
 487 192 l 2
 476 147 471 114 471 94 c 0
 471 74 478 64 493 64 c 0
 525 64 534 99 576 188 c 1
 620 156 l 1
 597 102 573 61 547 31 c 0
 521 1 489 -13 453 -13 c 0
 412 -13 385 5 372 40 c 0
 367 53 364 69 364 90 c 2
 364 106 l 1
 360 106 l 1
 300 27 235 -13 165 -13 c 0
 137 -13 113 -6 92 8 c 0
 71 22 62 45 62 77 c 0
 62 90 64 106 68 125 c 2
 142 424 l 1
 72 424 l 1
 72 495 l 1
 273 495 l 1
 189 123 l 2
 186 111 185 102 185 95 c 0
EndSplineSet
EndChar

StartChar: v
Encoding: 118 118 89
Width: 550
VWidth: 1100
GlyphClass: 2
Flags: HW
LayerCount: 2
Fore
SplineSet
478 296 m 0
 484 317 486 336 486 352 c 0
 486 368 482 380 474 387 c 0
 466 394 457 401 447 405 c 0
 437 409 428 415 420 421 c 0
 412 427 408 438 408 453 c 0
 408 468 413 481 422 492 c 0
 431 503 445 508 464 508 c 0
 507 508 529 476 529 412 c 0
 530 325 504 236 451 144 c 0
 414 80 369 35 315 7 c 0
 287 -8 256 -15 222 -15 c 0
 188 -15 158 -5 134 13 c 0
 110 31 98 59 98 96 c 0
 98 111 100 126 104 144 c 2
 172 394 l 2
 176 410 177 422 177 431 c 0
 177 445 171 452 159 452 c 0
 144 452 129 443 112 425 c 0
 95 407 73 374 49 329 c 1
 27 339 l 1
 53 391 77 428 98 449 c 0
 119 470 138 485 156 494 c 0
 174 503 195 508 217 508 c 0
 267 508 291 485 291 437 c 0
 291 427 287 405 278 370 c 2
 214 119 l 2
 211 107 210 94 210 80 c 0
 210 66 216 55 227 46 c 0
 238 37 251 32 268 32 c 0
 285 32 303 38 321 50 c 0
 339 62 357 76 373 95 c 0
 389 114 404 135 418 158 c 0
 432 181 444 205 454 229 c 0
 464 253 472 275 478 296 c 0
EndSplineSet
EndChar

StartChar: w
Encoding: 119 119 90
Width: 843
VWidth: 1100
GlyphClass: 2
Flags: HW
LayerCount: 2
Fore
SplineSet
158 452 m 0
 129 452 94 411 50 329 c 1
 28 339 l 1
 54 391 77 428 98 449 c 0
 119 470 138 485 156 494 c 0
 174 503 195 508 217 508 c 0
 267 508 292 485 292 437 c 0
 292 427 287 405 278 370 c 2
 209 98 l 2
 206 87 205 77 205 67 c 0
 205 44 215 32 236 32 c 0
 257 32 277 40 296 57 c 0
 315 74 333 96 350 123 c 0
 367 150 383 181 398 215 c 0
 413 249 426 283 438 317 c 0
 454 362 472 422 492 495 c 1
 606 495 l 1
 561 316 538 191 538 118 c 0
 538 61 555 32 589 32 c 0
 621 31 652 52 684 95 c 0
 725 149 754 216 772 295 c 0
 776 316 779 334 779 350 c 0
 779 366 776 379 768 387 c 0
 760 395 751 401 741 405 c 0
 731 409 722 415 714 421 c 0
 706 427 702 438 702 453 c 0
 702 468 707 481 716 492 c 0
 725 503 739 508 758 508 c 0
 801 508 823 476 823 411 c 0
 823 360 812 301 791 236 c 0
 754 122 702 47 634 7 c 0
 610 -8 581 -15 549 -15 c 0
 517 -15 489 -1 466 25 c 0
 443 51 432 91 432 145 c 0
 432 162 434 183 438 207 c 1
 433 207 l 1
 390 104 338 35 273 3 c 0
 250 -9 223 -14 194 -14 c 0
 165 -14 141 -5 122 13 c 0
 103 31 94 55 94 84 c 0
 94 92 95 105 99 123 c 2
 172 394 l 2
 176 410 177 422 177 431 c 0
 177 445 170 452 158 452 c 0
EndSplineSet
EndChar

StartChar: x
Encoding: 120 120 91
Width: 605
VWidth: 1100
GlyphClass: 2
Flags: HW
LayerCount: 2
Fore
SplineSet
264 177 m 1
 181 49 112 -14 56 -14 c 0
 38 -14 26 -9 18 2 c 0
 10 13 7 24 7 36 c 0
 7 48 11 59 19 71 c 0
 27 83 39 89 51 89 c 0
 63 89 72 87 78 84 c 0
 84 81 89 77 94 73 c 0
 99 69 103 64 107 61 c 0
 111 58 115 56 121 56 c 0
 127 56 135 61 147 71 c 0
 159 81 172 94 185 110 c 0
 217 148 242 185 261 221 c 1
 227 404 l 2
 220 436 210 452 196 452 c 0
 171 452 138 409 97 322 c 1
 75 332 l 1
 103 390 125 429 143 449 c 0
 178 489 214 508 251 508 c 0
 275 508 295 500 309 484 c 0
 323 468 334 440 341 400 c 2
 351 341 l 1
 358 341 l 1
 395 419 438 470 486 494 c 0
 502 502 519 506 535 506 c 0
 551 506 564 501 571 490 c 0
 578 479 582 469 582 458 c 0
 582 447 578 436 570 426 c 0
 562 416 552 411 540 411 c 0
 528 411 519 412 513 415 c 0
 507 418 501 420 497 423 c 0
 484 431 474 436 467 436 c 0
 460 436 452 431 442 423 c 0
 432 415 424 404 414 389 c 0
 395 360 377 324 362 280 c 1
 396 90 l 2
 399 75 405 62 413 54 c 0
 422 46 432 42 444 42 c 0
 470 42 505 85 547 172 c 1
 569 162 l 1
 540 101 515 61 496 41 c 0
 460 4 422 -14 382 -14 c 0
 356 -14 335 -7 320 6 c 0
 305 19 294 42 288 76 c 2
 270 177 l 1
 264 177 l 1
EndSplineSet
EndChar

StartChar: y
Encoding: 121 121 92
Width: 579
VWidth: 1100
GlyphClass: 2
Flags: HW
LayerCount: 2
Fore
SplineSet
397 67 m 2
 352 -64 299 -167 239 -241 c 0
 183 -311 95 -345 43 -345 c 0
 22 -345 5 -340 -6 -329 c 0
 -17 -318 -23 -306 -23 -292 c 0
 -23 -278 -20 -265 -12 -255 c 0
 -4 -245 7 -240 20 -240 c 0
 60 -240 66 -274 93 -274 c 0
 172 -274 257 -112 286 -45 c 1
 164 349 l 2
 158 369 147 404 129 404 c 0
 107 404 94 365 66 300 c 1
 22 332 l 1
 45 391 65 431 81 452 c 0
 97 473 113 488 128 496 c 0
 143 504 160 508 180 508 c 0
 200 508 217 502 230 491 c 0
 243 480 254 459 263 429 c 2
 351 132 l 1
 355 132 l 1
 460 440 l 2
 476 485 530 517 566 517 c 4
 584 517 598 511 607 499 c 4
 614 490 618 479 618 465 c 4
 618 451 618 434 609 424 c 4
 600 414 590 409 579 409 c 4
 568 409 554 413 549 417 c 4
 539 425 515 404 508 387 c 2
 397 67 l 2
EndSplineSet
EndChar

StartChar: z
Encoding: 122 122 93
Width: 521
VWidth: 1100
GlyphClass: 2
Flags: HW
LayerCount: 2
Fore
SplineSet
371 393 m 1
 315 380 267 373 229 373 c 0
 191 373 158 378 130 389 c 1
 90 316 l 1
 72 323 l 1
 153 495 l 1
 169 495 l 1
 228 477 270 466 296 462 c 0
 330 456 377 453 436 453 c 0
 443 453 447 456 449 461 c 0
 451 466 453 472 454 478 c 0
 455 484 457 490 460 495 c 0
 463 500 468 503 478 503 c 0
 491 503 498 497 498 485 c 0
 498 475 482 454 448 420 c 2
 146 132 l 1
 146 128 l 1
 184 128 222 122 259 110 c 0
 296 98 323 90 340 85 c 0
 357 80 373 77 387 77 c 0
 401 77 410 80 416 87 c 0
 422 94 426 102 426 109 c 0
 426 116 422 121 416 123 c 0
 410 125 403 127 395 129 c 0
 387 131 381 135 375 139 c 0
 369 143 365 151 365 164 c 0
 365 177 369 187 377 194 c 0
 385 201 396 204 409 204 c 0
 422 204 432 196 440 182 c 0
 448 168 452 151 452 131 c 0
 452 111 447 93 439 75 c 0
 431 57 420 42 405 29 c 0
 390 16 373 5 354 -3 c 0
 335 -11 314 -14 293 -14 c 0
 272 -14 250 -11 229 -4 c 0
 208 3 189 11 171 19 c 0
 153 27 137 34 122 41 c 0
 107 48 95 52 85 52 c 0
 75 52 70 48 68 42 c 0
 66 36 64 29 64 21 c 0
 64 13 62 7 60 1 c 0
 58 -5 52 -9 42 -9 c 0
 27 -9 19 -1 19 16 c 0
 19 39 44 75 95 123 c 2
 373 389 l 1
 371 393 l 1
EndSplineSet
EndChar

StartChar: braceleft
Encoding: 123 123 94
Width: 300
GlyphClass: 2
Flags: W
LayerCount: 2
Fore
SplineSet
51 321 m 1
 77 321 96.4990234375 329.663085938 109.499023438 346.99609375 c 0
 122.499023438 364.329101562 134.33203125 396.329101562 144.999023438 442.99609375 c 2
 172.999023438 571.99609375 l 2
 180.33203125 605.329101562 188.83203125 633.662109375 198.499023438 656.995117188 c 0
 207.499023438 680.328125 220.666015625 699.328125 237.999023438 713.995117188 c 0
 269.999023438 740.662109375 327.999023438 753.995117188 411.999023438 753.995117188 c 1
 406.999023438 728.995117188 l 1
 371.666015625 728.995117188 345.499023438 718.828125 328.499023438 698.495117188 c 0
 311.499023438 678.162109375 297.999023438 644.995117188 287.999023438 598.995117188 c 2
 252.999023438 439.995117188 l 2
 242.999023438 397.995117188 228.666015625 367.995117188 209.999023438 349.995117188 c 0
 189.999023438 330.662109375 160.999023438 318.995117188 122.999023438 314.995117188 c 1
 121.999023438 310.995117188 l 1
 150.666015625 307.662109375 171.333007812 300.329101562 184 288.99609375 c 0
 196.666992188 277.663085938 203 260.330078125 203 236.997070312 c 0
 203 220.997070312 194.333007812 174.497070312 177 97.4970703125 c 0
 159.666992188 20.4970703125 151 -27.0029296875 151 -45.0029296875 c 0
 151 -63.0029296875 156.5 -77.5029296875 167.5 -88.5029296875 c 0
 178.5 -99.5029296875 196.666992188 -105.002929688 222 -105.002929688 c 1
 217 -130.002929688 l 1
 124.333007812 -130.002929688 70 -114.002929688 54 -82.0029296875 c 0
 48.6669921875 -70.0029296875 45.6669921875 -57.3359375 45 -44.0029296875 c 0
 45 -21.3359375 49.3330078125 10.3310546875 58 50.998046875 c 0
 66.6669921875 91.6650390625 73.6669921875 124.33203125 79 148.999023438 c 0
 84.3330078125 173.666015625 88.3330078125 192.999023438 91 206.999023438 c 0
 95.6669921875 231.666015625 98 250.333007812 98 263 c 0
 98 290.333007812 81.3330078125 304 48 304 c 1
 51 321 l 1
EndSplineSet
EndChar

StartChar: bar
Encoding: 124 124 95
Width: 367
GlyphClass: 2
Flags: W
LayerCount: 2
Fore
SplineSet
233 763 m 1
 233 -157 l 1
 174 -157 l 1
 174 763 l 1
 233 763 l 1
EndSplineSet
EndChar

StartChar: braceright
Encoding: 125 125 96
Width: 300
GlyphClass: 2
Flags: W
LayerCount: 2
Fore
SplineSet
308 303 m 1
 282 303 262.500976562 294.3359375 249.500976562 277.002929688 c 0
 236.500976562 259.669921875 224.66796875 227.669921875 214.000976562 181.002929688 c 2
 186.000976562 52.0029296875 l 2
 178.66796875 18.669921875 170.16796875 -9.6630859375 160.500976562 -32.99609375 c 0
 150.833984375 -56.3291015625 137.333984375 -75.3291015625 120.000976562 -89.99609375 c 0
 88.0009765625 -116.663085938 30.333984375 -129.99609375 -52.9990234375 -129.99609375 c 1
 -47.9990234375 -104.99609375 l 1
 -12.666015625 -104.99609375 13.5009765625 -94.8291015625 30.5009765625 -74.49609375 c 0
 47.5009765625 -54.1630859375 61.0009765625 -20.99609375 71.0009765625 25.00390625 c 2
 106.000976562 184.00390625 l 2
 115.333984375 226.00390625 129.333984375 256.00390625 148.000976562 274.00390625 c 0
 168.000976562 293.336914062 197.333984375 305.00390625 236.000976562 309.00390625 c 1
 237.000976562 313.00390625 l 1
 208.333984375 316.336914062 187.666992188 323.669921875 175 335.002929688 c 0
 162.333007812 346.3359375 156 363.668945312 156 387.001953125 c 0
 156 401.668945312 164.666992188 447.8359375 182 525.502929688 c 0
 199.333007812 603.169921875 208 651.002929688 208 669.002929688 c 0
 208 687.002929688 202.5 701.502929688 191.5 712.502929688 c 0
 180.5 723.502929688 162.333007812 729.002929688 137 729.002929688 c 1
 142 754.002929688 l 1
 235.333007812 754.002929688 290 738.002929688 306 706.002929688 c 0
 311.333007812 694.002929688 314 681.3359375 314 668.002929688 c 0
 314 645.3359375 309.666992188 613.668945312 301 573.001953125 c 0
 292.333007812 532.334960938 285.333007812 499.66796875 280 475.000976562 c 0
 274.666992188 450.333984375 270.666992188 431.000976562 268 417.000976562 c 0
 263.333007812 392.333984375 261 373.666992188 261 361 c 0
 261 333.666992188 277.666992188 320 311 320 c 1
 308 303 l 1
EndSplineSet
EndChar

StartChar: asciitilde
Encoding: 126 126 97
Width: 475
GlyphClass: 2
Flags: W
LayerCount: 2
Fore
SplineSet
485 320 m 1
 463 288.666992188 446.331054688 268.333007812 434.998046875 259 c 0
 411.665039062 239.666992188 388.83203125 230 366.499023438 230 c 0
 344.166015625 230 324.999023438 233.166992188 308.999023438 239.5 c 0
 292.999023438 245.833007812 277.166015625 252.833007812 261.499023438 260.5 c 0
 245.83203125 268.166992188 230.165039062 275.166992188 214.498046875 281.5 c 0
 198.831054688 287.833007812 183.831054688 291 169.498046875 291 c 0
 155.165039062 291 143.33203125 289.166992188 133.999023438 285.5 c 0
 124.666015625 281.833007812 116.333007812 276.666015625 109 269.999023438 c 0
 96.3330078125 258.666015625 83.3330078125 242.333007812 70 221 c 1
 30 248 l 1
 50 278.666992188 66.6669921875 299.5 80 310.5 c 0
 93.3330078125 321.5 106.666015625 329.666992188 119.999023438 335 c 0
 133.33203125 340.333007812 148.33203125 343 164.999023438 343 c 0
 181.666015625 343 198.166015625 339.833007812 214.499023438 333.5 c 0
 230.83203125 327.166992188 246.665039062 320 261.998046875 312 c 0
 302.665039062 292 333.83203125 282 355.499023438 282 c 0
 377.166015625 282 394.333007812 288 407 300 c 0
 419.666992188 312 432 327 444 345 c 1
 485 320 l 1
EndSplineSet
EndChar

StartChar: exclamdown
Encoding: 161 161 99
Width: 308
GlyphClass: 2
Flags: W
LayerCount: 2
Fore
SplineSet
131 -138 m 2
 132.000976562 -220.000976562 l 2
 132.000976562 -255.333984375 125.333984375 -281.166992188 112.000976562 -297.5 c 0
 98.66796875 -313.833007812 80.66796875 -322 58.0009765625 -322 c 0
 35.333984375 -322 18.1669921875 -315 6.5 -301 c 0
 -5.1669921875 -287 -11 -270.666992188 -11 -252 c 0
 -11 -233.333007812 -5.5 -211 5.5 -185 c 0
 16.5 -159 30 -127.333007812 46 -90 c 0
 90 14 121.333007812 116.333007812 140 217 c 1
 165 217 l 1
 142.333007812 83 131 -35.3330078125 131 -138 c 2
254.000976562 387.999023438 m 0
 254.000976562 369.999023438 247.500976562 354.499023438 234.500976562 341.499023438 c 0
 221.500976562 328.499023438 206.000976562 321.999023438 188.000976562 321.999023438 c 0
 170.000976562 321.999023438 154.500976562 328.499023438 141.500976562 341.499023438 c 0
 128.500976562 354.499023438 122.000976562 369.999023438 122.000976562 387.999023438 c 0
 122.000976562 405.999023438 128.500976562 421.499023438 141.500976562 434.499023438 c 0
 154.500976562 447.499023438 170.000976562 453.999023438 188.000976562 453.999023438 c 0
 206.000976562 453.999023438 221.500976562 447.499023438 234.500976562 434.499023438 c 0
 247.500976562 421.499023438 254.000976562 405.999023438 254.000976562 387.999023438 c 0
EndSplineSet
EndChar

StartChar: cent
Encoding: 162 162 100
Width: 466
GlyphClass: 2
Flags: W
LayerCount: 2
Fore
SplineSet
186.5 359 m 0
 180.833007812 326.333007812 178 296 178 268 c 0
 178 240 182.333007812 217.166992188 191 199.5 c 0
 199.666992188 181.833007812 217.333984375 171.333007812 244.000976562 168 c 1
 335.000976562 572 l 1
 307.000976562 566.666992188 283.000976562 553 263.000976562 531 c 0
 243.000976562 509 226.66796875 483 214.000976562 453 c 0
 201.333984375 423 192.166992188 391.666992188 186.5 359 c 0
274 167 m 1
 337.333007812 170.333007812 390.334960938 208.999023438 433.001953125 282.999023438 c 1
 453.001953125 268.999023438 l 1
 407.668945312 183.666015625 345.668945312 139.666015625 267.001953125 136.999023438 c 1
 237.001953125 4.9990234375 l 1
 207.001953125 4.9990234375 l 1
 237.001953125 137.999023438 l 1
 184.334960938 143.33203125 143.334960938 165.33203125 114.001953125 203.999023438 c 0
 86.001953125 239.999023438 72.3349609375 282.33203125 73.001953125 330.999023438 c 0
 72.3349609375 398.999023438 98.66796875 460.666015625 152.000976562 515.999023438 c 0
 204.66796875 570.666015625 268.000976562 599.999023438 342.000976562 603.999023438 c 1
 372.000976562 732.999023438 l 1
 402.000976562 732.999023438 l 1
 372.000976562 602.999023438 l 1
 407.333984375 600.33203125 435.666992188 590.83203125 457 574.499023438 c 0
 478.333007812 558.166015625 489 538.666015625 489 515.999023438 c 0
 489 473.999023438 469.666992188 452.999023438 431 452.999023438 c 0
 415.666992188 452.999023438 402.666992188 457.166015625 392 465.499023438 c 0
 381.333007812 473.83203125 376 483.999023438 376 495.999023438 c 0
 376 507.999023438 377.5 516.666015625 380.5 521.999023438 c 0
 383.5 527.33203125 387 531.83203125 391 535.499023438 c 0
 395 539.166015625 398.5 542.333007812 401.5 545 c 0
 404.5 547.666992188 406 550.666992188 406 554 c 0
 406 563.333007812 392.666992188 570 366 574 c 1
 274 167 l 1
EndSplineSet
EndChar

StartChar: sterling
Encoding: 163 163 101
Width: 559
GlyphClass: 2
Flags: W
LayerCount: 2
Fore
SplineSet
117.5 101 m 0
 102.5 107 86.83203125 110.000976562 70.4990234375 110.000976562 c 0
 54.166015625 110.000976562 39.8330078125 105.000976562 27.5 95.0009765625 c 0
 15.1669921875 85.0009765625 9 72.16796875 9 56.5009765625 c 0
 9 40.833984375 13.5 29.1669921875 22.5 21.5 c 0
 31.5 13.8330078125 42.5 10 55.5 10 c 0
 68.5 10 79.8330078125 12.1669921875 89.5 16.5 c 0
 99.1669921875 20.8330078125 108 26.3330078125 116 33 c 0
 130 45 141.666992188 60 151 78 c 1
 143.666992188 87.3330078125 132.5 95 117.5 101 c 0
39.9990234375 136.500976562 m 0
 53.9990234375 141.500976562 70.6650390625 144.00390625 89.998046875 144.00390625 c 0
 109.331054688 144.00390625 135.998046875 138.00390625 169.998046875 126.00390625 c 1
 177.998046875 148.00390625 181.998046875 171.50390625 181.998046875 196.50390625 c 0
 181.998046875 221.50390625 179.998046875 247.170898438 175.998046875 273.50390625 c 0
 171.998046875 299.836914062 169.331054688 327.00390625 167.998046875 355.00390625 c 1
 59.998046875 355.00390625 l 1
 69.998046875 399.00390625 l 1
 168.998046875 399.00390625 l 1
 174.998046875 481.00390625 200.998046875 550.670898438 246.998046875 608.00390625 c 0
 298.998046875 673.336914062 366.665039062 706.00390625 449.998046875 706.00390625 c 0
 491.998046875 706.00390625 525.165039062 697.670898438 549.498046875 681.00390625 c 0
 573.831054688 664.336914062 585.998046875 641.00390625 585.998046875 611.00390625 c 0
 585.998046875 595.00390625 581.498046875 580.836914062 572.498046875 568.50390625 c 0
 563.498046875 556.170898438 550.831054688 550.00390625 534.498046875 550.00390625 c 0
 518.165039062 550.00390625 506.498046875 551.670898438 499.498046875 555.00390625 c 0
 492.498046875 558.336914062 486.998046875 562.669921875 482.998046875 568.002929688 c 0
 476.331054688 576.002929688 472.998046875 585.3359375 472.998046875 596.002929688 c 0
 472.998046875 606.669921875 474.498046875 614.669921875 477.498046875 620.002929688 c 0
 480.498046875 625.3359375 483.998046875 630.002929688 487.998046875 634.002929688 c 0
 497.998046875 644.002929688 502.998046875 651.3359375 502.998046875 656.002929688 c 0
 502.998046875 669.3359375 486.998046875 676.002929688 454.998046875 676.002929688 c 0
 422.998046875 676.002929688 397.331054688 670.669921875 377.998046875 660.002929688 c 0
 357.998046875 649.3359375 342.665039062 634.668945312 331.998046875 616.001953125 c 0
 311.998046875 582.668945312 302.331054688 534.3359375 302.998046875 471.002929688 c 2
 302.998046875 399.002929688 l 1
 443.998046875 399.002929688 l 1
 433.998046875 355.002929688 l 1
 300.998046875 355.002929688 l 1
 296.998046875 276.3359375 268.998046875 195.002929688 216.998046875 111.002929688 c 1
 251.665039062 89.669921875 289.665039062 79.0029296875 330.998046875 79.0029296875 c 0
 372.331054688 79.0029296875 406.998046875 88.5029296875 434.998046875 107.502929688 c 0
 462.998046875 126.502929688 482.665039062 158.669921875 493.998046875 204.002929688 c 1
 517.998046875 204.002929688 l 1
 504.665039062 140.002929688 485.33203125 90.0029296875 459.999023438 54.0029296875 c 0
 425.33203125 4.669921875 377.999023438 -19.9970703125 317.999023438 -19.9970703125 c 0
 293.999023438 -19.9970703125 274.666015625 -16.330078125 259.999023438 -8.9970703125 c 0
 233.33203125 4.3359375 206.999023438 25.3359375 180.999023438 54.0029296875 c 1
 167.666015625 33.3359375 149.999023438 15.8359375 127.999023438 1.5029296875 c 0
 105.999023438 -12.830078125 82.33203125 -19.9970703125 56.9990234375 -19.9970703125 c 0
 31.666015625 -19.9970703125 10.9990234375 -13.830078125 -5.0009765625 -1.4970703125 c 0
 -21.0009765625 10.8359375 -29.0009765625 25.6689453125 -29.0009765625 43.001953125 c 0
 -29.0009765625 60.3349609375 -26.16796875 74.66796875 -20.5009765625 86.0009765625 c 0
 -14.833984375 97.333984375 -6.833984375 107.333984375 3.4990234375 116.000976562 c 0
 13.83203125 124.66796875 25.9990234375 131.500976562 39.9990234375 136.500976562 c 0
EndSplineSet
EndChar

StartChar: currency
Encoding: 164 164 102
Width: 669
GlyphClass: 2
Flags: W
LayerCount: 2
Fore
SplineSet
195 368 m 0
 195 344.666992188 199.333007812 322.833984375 208 302.500976562 c 0
 216.666992188 282.16796875 228.666992188 264.334960938 244 249.001953125 c 0
 259.333007812 233.668945312 277.333007812 221.668945312 298 213.001953125 c 0
 318.666992188 204.334960938 340.666992188 200.001953125 364 200.001953125 c 0
 387.333007812 200.001953125 409.333007812 204.334960938 430 213.001953125 c 0
 450.666992188 221.668945312 468.666992188 233.668945312 484 249.001953125 c 0
 499.333007812 264.334960938 511.5 282.16796875 520.5 302.500976562 c 0
 529.5 322.833984375 534 344.666992188 534 368 c 0
 534 391.333007812 529.5 413.166015625 520.5 433.499023438 c 0
 511.5 453.83203125 499.333007812 471.665039062 484 486.998046875 c 0
 468.666992188 502.331054688 450.666992188 514.498046875 430 523.498046875 c 0
 409.333007812 532.498046875 387.333007812 536.998046875 364 536.998046875 c 0
 340.666992188 536.998046875 318.666992188 532.498046875 298 523.498046875 c 0
 277.333007812 514.498046875 259.333007812 502.331054688 244 486.998046875 c 0
 228.666992188 471.665039062 216.666992188 453.83203125 208 433.499023438 c 0
 199.333007812 413.166015625 195 391.333007812 195 368 c 0
522 196 m 1
 478.666992188 155.333007812 426.333007812 135 365 135 c 0
 303.666992188 135 250.666992188 155.333007812 206 196 c 1
 152 135 l 1
 130 152 l 1
 185 217 l 1
 148.333007812 259 130 308.833007812 130 366.5 c 0
 130 424.166992188 148.333007812 475 185 519 c 1
 130 584 l 1
 152 601 l 1
 206 540 l 1
 250 581.333007812 302.5 602 363.5 602 c 0
 424.5 602 477.666992188 581.333007812 523 540 c 1
 577 601 l 1
 599 584 l 1
 543 519 l 1
 580.333007812 474.333007812 599 424 599 368 c 0
 599 312 580.333007812 261.666992188 543 217 c 1
 599 152 l 1
 577 135 l 1
 522 196 l 1
EndSplineSet
EndChar

StartChar: yen
Encoding: 165 165 103
Width: 607
GlyphClass: 2
Flags: W
LayerCount: 2
Fore
SplineSet
519 707 m 1
 764 707 l 1
 764 682 l 1
 669 682 l 1
 456 378 l 1
 613 378 l 1
 602 334 l 1
 425 334 l 1
 404 303 l 1
 392 252 l 1
 582 252 l 1
 570 208 l 1
 382 208 l 1
 340 25 l 1
 465 25 l 1
 465 0 l 1
 113 0 l 1
 113 25 l 1
 227 25 l 1
 267 208 l 1
 78 208 l 1
 90 252 l 1
 276 252 l 1
 287 302 l 1
 275 334 l 1
 110 334 l 1
 121 378 l 1
 258 378 l 1
 142 682 l 1
 51 682 l 1
 51 707 l 1
 385 707 l 1
 385 682 l 1
 267 682 l 1
 380 378 l 1
 421 378 l 1
 634 682 l 1
 519 682 l 1
 519 707 l 1
EndSplineSet
EndChar

StartChar: brokenbar
Encoding: 166 166 104
Width: 367
GlyphClass: 2
Flags: W
LayerCount: 2
Fore
SplineSet
233 249 m 1
 233 -157 l 1
 174 -157 l 1
 174 249 l 1
 233 249 l 1
233 763 m 1
 233 347 l 1
 174 347 l 1
 174 763 l 1
 233 763 l 1
EndSplineSet
EndChar

StartChar: section
Encoding: 167 167 105
Width: 499
GlyphClass: 2
Flags: W
LayerCount: 2
Fore
SplineSet
383.5 190 m 0
 387.833007812 196.666992188 389.999023438 207.83203125 389.999023438 223.499023438 c 0
 389.999023438 239.166015625 383.166015625 255.499023438 369.499023438 272.499023438 c 0
 355.83203125 289.499023438 339.33203125 306.83203125 319.999023438 324.499023438 c 0
 300.666015625 342.166015625 280.499023438 360.499023438 259.499023438 379.499023438 c 0
 238.499023438 398.499023438 220.33203125 419.999023438 204.999023438 443.999023438 c 1
 197.666015625 440.666015625 190.166015625 437.333007812 182.499023438 434 c 0
 175.499023438 431.333007812 168.666015625 427.333007812 161.999023438 422 c 0
 147.33203125 410.666992188 139.999023438 395.166992188 139.999023438 375.5 c 0
 139.999023438 355.833007812 146.666015625 337.666015625 159.999023438 320.999023438 c 0
 173.33203125 304.33203125 189.499023438 287.499023438 208.499023438 270.499023438 c 0
 227.499023438 253.499023438 247.499023438 235.666015625 268.499023438 216.999023438 c 0
 289.499023438 198.33203125 307.666015625 177.33203125 322.999023438 153.999023438 c 1
 345.666015625 161.999023438 360.333007812 168.33203125 367 172.999023438 c 0
 373.666992188 177.666015625 379.166992188 183.333007812 383.5 190 c 0
189.999023438 470.998046875 m 1
 177.999023438 499.665039062 171.997070312 527.333007812 171.997070312 554 c 0
 171.997070312 580.666992188 176.330078125 606 184.997070312 630 c 0
 193.6640625 654 206.6640625 675.333007812 223.997070312 694 c 0
 261.330078125 734 310.330078125 754 370.997070312 754 c 0
 412.997070312 754 445.830078125 744.666992188 469.497070312 726 c 0
 493.1640625 707.333007812 504.997070312 685 504.997070312 659 c 0
 504.997070312 633 497.997070312 612.5 483.997070312 597.5 c 0
 469.330078125 582.5 453.997070312 575 437.997070312 575 c 0
 403.330078125 575 386.330078125 589.333007812 386.997070312 618 c 0
 386.997070312 635.333007812 395.997070312 650.666015625 413.997070312 663.999023438 c 0
 420.6640625 669.33203125 426.831054688 673.83203125 432.498046875 677.499023438 c 0
 438.165039062 681.166015625 440.998046875 685.666015625 440.998046875 690.999023438 c 0
 440.998046875 699.666015625 433.831054688 707.333007812 419.498046875 714 c 0
 405.165039062 720.666992188 388.498046875 724 369.498046875 724 c 0
 350.498046875 724 333.165039062 721.5 317.498046875 716.5 c 0
 301.831054688 711.5 287.998046875 704.666992188 275.998046875 696 c 0
 247.998046875 676.666992188 233.998046875 653 233.998046875 625 c 0
 233.998046875 607 239.831054688 590.166992188 251.498046875 574.5 c 0
 263.165039062 558.833007812 277.665039062 543.166015625 294.998046875 527.499023438 c 0
 312.331054688 511.83203125 330.998046875 495.83203125 350.998046875 479.499023438 c 0
 370.998046875 462.499023438 389.665039062 444.666015625 406.998046875 425.999023438 c 0
 447.665039062 381.33203125 467.998046875 337.165039062 467.998046875 293.498046875 c 0
 467.998046875 249.831054688 456.665039062 213.6640625 433.998046875 184.997070312 c 0
 411.331054688 156.330078125 379.331054688 136.663085938 337.998046875 125.99609375 c 1
 351.998046875 97.99609375 358.998046875 69.99609375 358.998046875 41.99609375 c 0
 358.998046875 13.99609375 354.998046875 -11.50390625 346.998046875 -34.50390625 c 0
 338.998046875 -57.50390625 326.665039062 -78.00390625 309.998046875 -96.00390625 c 0
 272.665039062 -136.00390625 221.665039062 -156.00390625 156.998046875 -156.00390625 c 0
 110.331054688 -156.00390625 75.3310546875 -146.170898438 51.998046875 -126.50390625 c 0
 28.6650390625 -106.836914062 16.998046875 -82.50390625 16.998046875 -53.50390625 c 0
 16.998046875 -24.50390625 23.498046875 -3.00390625 36.498046875 10.99609375 c 0
 49.498046875 24.99609375 65.6650390625 31.99609375 84.998046875 31.99609375 c 0
 104.331054688 31.99609375 117.1640625 27.1630859375 123.497070312 17.49609375 c 0
 129.830078125 7.8291015625 132.997070312 -2.6708984375 132.997070312 -14.00390625 c 0
 132.997070312 -25.3369140625 130.1640625 -34.669921875 124.497070312 -42.0029296875 c 0
 118.830078125 -49.3359375 112.830078125 -55.5029296875 106.497070312 -60.5029296875 c 0
 100.1640625 -65.5029296875 94.1640625 -70.169921875 88.4970703125 -74.5029296875 c 0
 82.830078125 -78.8359375 79.9970703125 -85.0029296875 79.9970703125 -93.0029296875 c 0
 79.9970703125 -101.002929688 86.6640625 -108.502929688 99.9970703125 -115.502929688 c 0
 113.330078125 -122.502929688 136.997070312 -126.002929688 170.997070312 -126.002929688 c 0
 204.997070312 -126.002929688 233.6640625 -118.8359375 256.997070312 -104.502929688 c 0
 280.330078125 -90.169921875 291.997070312 -72.169921875 291.997070312 -50.5029296875 c 0
 291.997070312 -28.8359375 286.330078125 -9.5029296875 274.997070312 7.4970703125 c 0
 263.6640625 24.4970703125 249.331054688 41.4970703125 231.998046875 58.4970703125 c 0
 214.665039062 75.4970703125 196.165039062 93.330078125 176.498046875 111.997070312 c 0
 156.831054688 130.6640625 138.331054688 149.997070312 120.998046875 169.997070312 c 0
 80.998046875 216.6640625 60.998046875 262.331054688 60.998046875 306.998046875 c 0
 60.998046875 351.665039062 72.8310546875 387.498046875 96.498046875 414.498046875 c 0
 120.165039062 441.498046875 151.33203125 460.331054688 189.999023438 470.998046875 c 1
EndSplineSet
EndChar

StartChar: dieresis
Encoding: 168 168 106
Width: 320
GlyphClass: 2
Flags: W
LayerCount: 2
Fore
SplineSet
312 667 m 0
 312 682.333007812 317.333007812 695.333007812 328 706 c 0
 338.666992188 716.666992188 351.666992188 722 367 722 c 0
 382.333007812 722 395.333007812 716.666992188 406 706 c 0
 416.666992188 695.333007812 422 682.333007812 422 667 c 0
 422 651.666992188 416.666992188 638.666992188 406 628 c 0
 395.333007812 617.333007812 382.333007812 612 367 612 c 0
 351.666992188 612 338.666992188 617.333007812 328 628 c 0
 317.333007812 638.666992188 312 651.666992188 312 667 c 0
122 667 m 0
 122 682.333007812 127.333007812 695.333007812 138 706 c 0
 148.666992188 716.666992188 161.666992188 722 177 722 c 0
 192.333007812 722 205.333007812 716.666992188 216 706 c 0
 226.666992188 695.333007812 232 682.333007812 232 667 c 0
 232 651.666992188 226.666992188 638.666992188 216 628 c 0
 205.333007812 617.333007812 192.333007812 612 177 612 c 0
 161.666992188 612 148.666992188 617.333007812 138 628 c 0
 127.333007812 638.666992188 122 651.666992188 122 667 c 0
EndSplineSet
EndChar

StartChar: copyright
Encoding: 169 169 107
Width: 833
GlyphClass: 2
Flags: W
LayerCount: 2
Fore
SplineSet
551 187 m 1
 509.666992188 163.666992188 466.334960938 151.997070312 421.001953125 151.997070312 c 0
 365.001953125 151.997070312 319.668945312 169.997070312 285.001953125 205.997070312 c 0
 251.668945312 240.6640625 235.001953125 284.331054688 235.001953125 336.998046875 c 0
 235.001953125 371.665039062 242.834960938 405.33203125 258.501953125 437.999023438 c 0
 274.168945312 470.666015625 295.001953125 499.666015625 321.001953125 524.999023438 c 0
 347.001953125 550.33203125 377.334960938 570.665039062 412.001953125 585.998046875 c 0
 446.668945312 601.331054688 484.168945312 608.998046875 524.501953125 608.998046875 c 0
 564.834960938 608.998046875 598.66796875 597.665039062 626.000976562 574.998046875 c 1
 655.000976562 603.998046875 l 1
 669.000976562 603.998046875 l 1
 641.000976562 470.998046875 l 1
 622.000976562 470.998046875 l 1
 622.000976562 523.665039062 603.333984375 559.33203125 566.000976562 577.999023438 c 0
 552.66796875 584.666015625 537.000976562 587.666015625 519.000976562 586.999023438 c 0
 483.000976562 586.999023438 453.16796875 575.666015625 429.500976562 552.999023438 c 0
 405.833984375 529.666015625 387.000976562 501.999023438 373.000976562 469.999023438 c 0
 347.000976562 409.999023438 334.000976562 345.666015625 334.000976562 276.999023438 c 0
 334.000976562 239.666015625 340.500976562 213.333007812 353.500976562 198 c 0
 366.500976562 182.666992188 390.000976562 175 424.000976562 175 c 0
 499.333984375 175 553.666992188 211.666992188 587 285 c 1
 607 285 l 1
 580 160 l 1
 565 160 l 1
 551 187 l 1
647.000976562 694.497070312 m 0
 613.66796875 708.1640625 573.66796875 714.995117188 527.000976562 714.995117188 c 0
 480.333984375 714.995117188 432.000976562 703.495117188 382.000976562 680.495117188 c 0
 332.000976562 657.495117188 287.333984375 626.662109375 248.000976562 587.995117188 c 0
 208.66796875 549.328125 177.16796875 504.995117188 153.500976562 454.995117188 c 0
 129.833984375 404.995117188 118.000976562 356.828125 118.000976562 310.495117188 c 0
 118.000976562 264.162109375 124.333984375 224.495117188 137.000976562 191.495117188 c 0
 149.66796875 158.495117188 168.000976562 129.995117188 192.000976562 105.995117188 c 0
 242.66796875 54.662109375 309.000976562 28.9951171875 391.000976562 28.9951171875 c 0
 445.66796875 28.9951171875 498.16796875 40.4951171875 548.500976562 63.4951171875 c 0
 598.833984375 86.4951171875 643.333984375 116.995117188 682.000976562 154.995117188 c 0
 720.66796875 192.995117188 751.500976562 236.828125 774.500976562 286.495117188 c 0
 797.500976562 336.162109375 809.000976562 384.329101562 809.000976562 430.99609375 c 0
 809.000976562 477.663085938 802.333984375 517.830078125 789.000976562 551.497070312 c 0
 775.66796875 585.1640625 757.000976562 613.997070312 733.000976562 637.997070312 c 0
 709.000976562 661.997070312 680.333984375 680.830078125 647.000976562 694.497070312 c 0
564.000976562 26.4951171875 m 0
 508.000976562 2.162109375 452.333984375 -10.0078125 397.000976562 -10.0078125 c 0
 341.66796875 -10.0078125 295.16796875 -2.6748046875 257.500976562 11.9921875 c 0
 219.833984375 26.6591796875 187.666992188 47.326171875 161 73.9931640625 c 0
 106.333007812 128.66015625 79 202.327148438 79 294.994140625 c 0
 79 358.327148438 91.8330078125 417.827148438 117.5 473.494140625 c 0
 143.166992188 529.161132812 177.333984375 577.828125 220.000976562 619.495117188 c 0
 262.66796875 661.162109375 311.66796875 693.995117188 367.000976562 717.995117188 c 0
 422.333984375 741.995117188 476.500976562 753.995117188 529.500976562 753.995117188 c 0
 582.500976562 753.995117188 628.16796875 746.328125 666.500976562 730.995117188 c 0
 704.833984375 715.662109375 737.333984375 694.329101562 764.000976562 666.99609375 c 0
 820.000976562 609.663085938 848.333984375 534.663085938 849.000976562 441.99609375 c 0
 849.000976562 381.99609375 836.66796875 324.663085938 812.000976562 269.99609375 c 0
 787.333984375 215.329101562 753.833984375 167.162109375 711.500976562 125.495117188 c 0
 669.16796875 83.828125 620.000976562 50.828125 564.000976562 26.4951171875 c 0
EndSplineSet
EndChar

StartChar: ordfeminine
Encoding: 170 170 108
Width: 370
GlyphClass: 2
Flags: W
LayerCount: 2
Fore
SplineSet
336 658 m 1
 337 679 l 2
 337 692.333007812 333.833007812 704.833007812 327.5 716.5 c 0
 321.166992188 728.166992188 311.166992188 734 297.5 734 c 0
 283.833007812 734 271.333007812 727 260 713 c 0
 248.666992188 699 239 682 231 662 c 0
 215 622 207 583 207 545 c 0
 207 507 217.666992188 488 239 488 c 0
 250.333007812 488 263 494.166992188 277 506.5 c 0
 291 518.833007812 304 542 316 576 c 2
 336 658 l 1
305 512 m 1
 287 476 260 458.002929688 224 458.002929688 c 0
 197.333007812 458.002929688 174.166015625 468.002929688 154.499023438 488.002929688 c 0
 134.83203125 508.002929688 124.999023438 533.3359375 124.999023438 564.002929688 c 0
 124.999023438 594.669921875 129.83203125 621.502929688 139.499023438 644.502929688 c 0
 149.166015625 668.169921875 161.999023438 688.669921875 177.999023438 706.002929688 c 0
 211.999023438 744.669921875 248.999023438 763.669921875 288.999023438 763.002929688 c 0
 307.666015625 763.002929688 320.666015625 758.502929688 327.999023438 749.502929688 c 0
 335.33203125 740.502929688 341.33203125 729.002929688 345.999023438 715.002929688 c 1
 349.999023438 715.002929688 l 1
 358.999023438 753.002929688 l 1
 431.999023438 753.002929688 l 1
 383.999023438 562.002929688 l 2
 377.999023438 541.3359375 374.999023438 525.168945312 374.999023438 513.501953125 c 0
 374.999023438 501.834960938 378.33203125 496.001953125 384.999023438 496.001953125 c 0
 400.33203125 496.001953125 417.665039062 519.001953125 436.998046875 565.001953125 c 1
 459.998046875 559.001953125 l 1
 445.998046875 528.334960938 433.998046875 506.66796875 423.998046875 494.000976562 c 0
 403.998046875 470.000976562 383.331054688 458.000976562 361.998046875 458.000976562 c 0
 350.665039062 458.000976562 339.33203125 461.66796875 327.999023438 469.000976562 c 0
 316.666015625 476.333984375 310.333007812 490.666992188 309 512 c 1
 305 512 l 1
EndSplineSet
EndChar

StartChar: guillemotleft
Encoding: 171 171 109
Width: 508
GlyphClass: 2
Flags: W
LayerCount: 2
Fore
SplineSet
392 38 m 1
 230 209 l 1
 235 231 l 1
 473 402 l 1
 485 391 l 1
 337 220 l 1
 410 53 l 1
 392 38 l 1
229 38 m 1
 67 209 l 1
 72 231 l 1
 310 402 l 1
 322 391 l 1
 174 220 l 1
 247 53 l 1
 229 38 l 1
EndSplineSet
EndChar

StartChar: logicalnot
Encoding: 172 172 110
Width: 538
GlyphClass: 2
Flags: W
LayerCount: 2
Fore
SplineSet
20 326 m 1
 518 326 l 1
 518 72 l 1
 441 72 l 1
 441 282 l 1
 20 282 l 1
 20 326 l 1
EndSplineSet
EndChar

StartChar: uni00AD
Encoding: 173 173 111
Width: 395
GlyphClass: 2
Flags: W
LayerCount: 2
Fore
SplineSet
50 246 m 1
 345 246 l 1
 345 202 l 1
 50 202 l 1
 50 246 l 1
EndSplineSet
EndChar

StartChar: registered
Encoding: 174 174 112
Width: 833
GlyphClass: 2
Flags: W
LayerCount: 2
Fore
SplineSet
437 580 m 1
 397.999023438 407 l 1
 456.999023438 407 l 2
 485.666015625 407 507.666015625 417.166992188 522.999023438 437.5 c 0
 538.33203125 457.833007812 545.999023438 485 545.999023438 519 c 0
 545.999023438 540.333007812 542.666015625 554.333007812 535.999023438 561 c 0
 524.666015625 573.666992188 505.333007812 580 478 580 c 2
 437 580 l 1
484.999023438 602 m 2
 537.666015625 602 577.5 593.000976562 604.5 575.000976562 c 0
 631.5 557.000976562 645 533.16796875 645 503.500976562 c 0
 645 473.833984375 630.666992188 449.000976562 602 429.000976562 c 0
 573.333007812 409.000976562 533.666015625 397.333984375 482.999023438 394.000976562 c 1
 482.999023438 390.000976562 l 1
 520.999023438 374.66796875 545.999023438 357.000976562 557.999023438 337.000976562 c 0
 567.33203125 321.000976562 573.165039062 296.66796875 575.498046875 264.000976562 c 0
 577.831054688 231.333984375 580.498046875 210.000976562 583.498046875 200.000976562 c 0
 586.498046875 190.000976562 595.165039062 185.000976562 609.498046875 185.000976562 c 0
 623.831054688 185.000976562 634.331054688 188.333984375 640.998046875 195.000976562 c 1
 649.998046875 181.000976562 l 1
 644.665039062 175.000976562 638.33203125 170.16796875 630.999023438 166.500976562 c 0
 623.666015625 162.833984375 608.166015625 161.000976562 584.499023438 161.000976562 c 0
 560.83203125 161.000976562 540.999023438 164.833984375 524.999023438 172.500976562 c 0
 509.666015625 180.16796875 497.999023438 190.66796875 489.999023438 204.000976562 c 0
 478.666015625 223.333984375 471.999023438 255.666992188 469.999023438 301 c 0
 467.999023438 328.333007812 464.999023438 347 460.999023438 357 c 0
 451.666015625 377.666992188 438.666015625 389.666992188 421.999023438 393 c 2
 394.999023438 393 l 1
 347.999023438 183 l 1
 427.999023438 183 l 1
 423.999023438 161 l 1
 206.999023438 161 l 1
 210.999023438 183 l 1
 257.999023438 183 l 1
 343.999023438 580 l 1
 293.999023438 580 l 1
 296.999023438 602 l 1
 484.999023438 602 l 2
631 694.500976562 m 0
 597.666992188 708.16796875 557.666992188 714.999023438 511 714.999023438 c 0
 464.333007812 714.999023438 416 703.499023438 366 680.499023438 c 0
 316 657.499023438 271.333007812 626.666015625 232 587.999023438 c 0
 192.666992188 549.33203125 161.166992188 504.999023438 137.5 454.999023438 c 0
 113.833007812 404.999023438 102 356.83203125 102 310.499023438 c 0
 102 264.166015625 108.333007812 224.499023438 121 191.499023438 c 0
 133.666992188 158.499023438 152 129.999023438 176 105.999023438 c 0
 226.666992188 54.666015625 293 28.9990234375 375 28.9990234375 c 0
 429.666992188 28.9990234375 482.166992188 40.4990234375 532.5 63.4990234375 c 0
 582.833007812 86.4990234375 627.333007812 116.999023438 666 154.999023438 c 0
 704.666992188 192.999023438 735.5 236.83203125 758.5 286.499023438 c 0
 781.5 336.166015625 793 384.333007812 793 431 c 0
 793 477.666992188 786.333007812 517.833984375 773 551.500976562 c 0
 759.666992188 585.16796875 741 614.000976562 717 638.000976562 c 0
 693 662.000976562 664.333007812 680.833984375 631 694.500976562 c 0
548 26.4990234375 m 0
 492 2.166015625 436.333007812 -10.00390625 381 -10.00390625 c 0
 325.666992188 -10.00390625 279.166992188 -2.6708984375 241.5 11.99609375 c 0
 203.833007812 26.6630859375 171.666015625 47.330078125 144.999023438 73.9970703125 c 0
 90.33203125 128.6640625 62.9990234375 202.331054688 62.9990234375 294.998046875 c 0
 62.9990234375 358.331054688 75.83203125 417.831054688 101.499023438 473.498046875 c 0
 127.166015625 529.165039062 161.333007812 577.83203125 204 619.499023438 c 0
 246.666992188 661.166015625 295.666992188 693.999023438 351 717.999023438 c 0
 406.333007812 741.999023438 460.5 753.999023438 513.5 753.999023438 c 0
 566.5 753.999023438 612.166992188 746.33203125 650.5 730.999023438 c 0
 688.833007812 715.666015625 721.333007812 694.333007812 748 667 c 0
 804 609.666992188 832.333007812 534.666992188 833 442 c 0
 833 382 820.666992188 324.666992188 796 270 c 0
 771.333007812 215.333007812 737.833007812 167.166015625 695.5 125.499023438 c 0
 653.166992188 83.83203125 604 50.83203125 548 26.4990234375 c 0
EndSplineSet
EndChar

StartChar: macron
Encoding: 175 175 113
Width: 355
GlyphClass: 2
Flags: W
LayerCount: 2
Fore
SplineSet
135 703 m 1
 455 703 l 1
 440 637 l 1
 120 637 l 1
 135 703 l 1
EndSplineSet
EndChar

StartChar: degree
Encoding: 176 176 114
Width: 363
GlyphClass: 2
Flags: W
LayerCount: 2
Fore
SplineSet
351.5 687 m 0
 335.833007812 707.666992188 312.33203125 718 280.999023438 718 c 0
 249.666015625 718 225.333007812 708.333007812 208 689 c 0
 190.666992188 669.666992188 182 644 182 612 c 0
 182 580 190.833007812 553.833007812 208.5 533.5 c 0
 226.166992188 513.166992188 250 503 280 503 c 0
 310 503 333.333007812 513 350 533 c 0
 366.666992188 553 375 578.5 375 609.5 c 0
 375 640.5 367.166992188 666.333007812 351.5 687 c 0
279.999023438 763 m 0
 301.33203125 763 321.165039062 758.83203125 339.498046875 750.499023438 c 0
 357.165039062 742.166015625 372.665039062 730.999023438 385.998046875 716.999023438 c 0
 412.665039062 687.666015625 426.33203125 651.333007812 426.999023438 608 c 0
 426.999023438 562.666992188 412.33203125 526 382.999023438 498 c 0
 355.666015625 471.333007812 320.666015625 458.166015625 277.999023438 458.499023438 c 0
 235.33203125 458.166015625 200.33203125 471.333007812 172.999023438 498 c 0
 143.666015625 526.666992188 128.999023438 564 128.999023438 610 c 0
 129.666015625 656 144.666015625 693.333007812 173.999023438 722 c 0
 201.999023438 749.333007812 237.33203125 763 279.999023438 763 c 0
EndSplineSet
EndChar

StartChar: plusminus
Encoding: 177 177 115
Width: 578
GlyphClass: 2
Flags: W
LayerCount: 2
Fore
SplineSet
59 87 m 1
 557 87 l 1
 557 43 l 1
 59 43 l 1
 59 87 l 1
99 455 m 1
 326 455 l 1
 326 702 l 1
 370 702 l 1
 370 455 l 1
 597 455 l 1
 597 411 l 1
 370 411 l 1
 370 164 l 1
 326 164 l 1
 326 411 l 1
 99 411 l 1
 99 455 l 1
EndSplineSet
EndChar

StartChar: twosuperior
Encoding: 178 178 116
Width: 350
GlyphClass: 2
Flags: W
LayerCount: 2
Fore
SplineSet
322 752 m 0
 322 801.333007812 303.66796875 825.999023438 267.000976562 825.999023438 c 0
 249.000976562 825.999023438 234.66796875 821.999023438 224.000976562 813.999023438 c 0
 206.66796875 800.666015625 198.000976562 790.833007812 198.000976562 784.5 c 0
 198.000976562 778.166992188 200.833984375 774 206.500976562 772 c 0
 212.833984375 770 219.333984375 767.666992188 226.000976562 765 c 0
 244.66796875 757.666992188 254.000976562 746.166992188 254.000976562 730.5 c 0
 254.000976562 714.833007812 249.66796875 703.166015625 241.000976562 695.499023438 c 0
 232.333984375 687.83203125 224.166992188 683.999023438 216.5 683.999023438 c 0
 208.833007812 683.999023438 202 684.666015625 196 685.999023438 c 0
 189.333007812 687.33203125 183.333007812 689.999023438 178 693.999023438 c 0
 164.666992188 703.33203125 158 715.999023438 158 731.999023438 c 0
 158 747.999023438 160.5 762.33203125 165.5 774.999023438 c 0
 169.833007812 787.666015625 177.333007812 799.333007812 188 810 c 0
 212 834.666992188 245.333007812 847 288 847 c 0
 326 847.666992188 357.333007812 838.666992188 382 820 c 0
 408 800.666992188 421 775.666992188 421 745 c 0
 421 727.666992188 414.666992188 708 402 686 c 0
 389.333007812 664 364.666015625 642.666992188 327.999023438 622 c 2
 187.999023438 542 l 1
 187.999023438 538 l 1
 342.999023438 538 l 2
 351.666015625 538 357.333007812 540 360 544 c 0
 365.333007812 550.666992188 370 564 374 584 c 1
 392 584 l 1
 360 458 l 1
 101 458 l 1
 114 516 l 1
 219 589 l 2
 277 629.666992188 310 672 318 716 c 0
 320.666992188 728.666992188 322 740.666992188 322 752 c 0
EndSplineSet
EndChar

StartChar: threesuperior
Encoding: 179 179 117
Width: 337
GlyphClass: 2
Flags: W
LayerCount: 2
Fore
SplineSet
197 680 m 2
 228.001953125 677.001953125 l 2
 253.334960938 677.668945312 273.66796875 690.668945312 289.000976562 716.001953125 c 0
 302.333984375 738.001953125 309.000976562 760.168945312 309.000976562 782.501953125 c 0
 309.000976562 804.834960938 305.16796875 818.66796875 297.500976562 824.000976562 c 0
 289.833984375 829.333984375 279.333984375 832.000976562 266.000976562 832.000976562 c 0
 252.66796875 832.000976562 242.500976562 830.000976562 235.500976562 826.000976562 c 0
 228.500976562 822.000976562 225.000976562 817.500976562 225.000976562 812.500976562 c 0
 225.000976562 807.500976562 226.16796875 803.833984375 228.500976562 801.500976562 c 2
 236.000976562 794.000976562 l 2
 242.66796875 787.333984375 246.000976562 780.000976562 246.000976562 772.000976562 c 0
 246.000976562 764.000976562 242.66796875 756.66796875 236.000976562 750.000976562 c 0
 229.333984375 743.333984375 221.166992188 740.000976562 211.5 740.000976562 c 0
 201.833007812 740.000976562 193.5 742.833984375 186.5 748.500976562 c 0
 179.5 754.16796875 176 763.334960938 176 776.001953125 c 0
 176 797.334960938 186.333007812 815.001953125 207 829.001953125 c 0
 227.666992188 843.001953125 254.5 850.001953125 287.5 850.001953125 c 0
 320.5 850.001953125 345.833007812 842.001953125 363.5 826.001953125 c 0
 381.166992188 810.001953125 390 791.001953125 390 769.001953125 c 0
 390 747.001953125 380.666992188 727.334960938 362 710.001953125 c 0
 343.333007812 692.668945312 315.666015625 679.001953125 278.999023438 669.001953125 c 1
 278.999023438 665.001953125 l 1
 304.999023438 664.334960938 327.999023438 655.334960938 347.999023438 638.001953125 c 0
 368.666015625 619.334960938 378.999023438 599.001953125 378.999023438 577.001953125 c 0
 378.999023438 555.001953125 374.83203125 536.834960938 366.499023438 522.501953125 c 0
 358.166015625 508.168945312 346.666015625 495.668945312 331.999023438 485.001953125 c 0
 299.999023438 462.334960938 262.33203125 451.001953125 218.999023438 451.001953125 c 0
 175.666015625 451.001953125 145.833007812 458.001953125 129.5 472.001953125 c 0
 113.166992188 486.668945312 105 501.3359375 105 516.002929688 c 0
 105 550.669921875 117 567.669921875 141 567.002929688 c 0
 151 567.002929688 159.5 564.002929688 166.5 558.002929688 c 0
 173.5 552.002929688 177 544.669921875 177 536.002929688 c 0
 177 527.3359375 175.166992188 521.168945312 171.5 517.501953125 c 0
 167.833007812 513.834960938 164 510.66796875 160 508.000976562 c 0
 156 505.333984375 152.166992188 503.000976562 148.5 501.000976562 c 0
 144.833007812 499.000976562 143 496.16796875 143 492.500976562 c 0
 143 488.833984375 145 485.500976562 149 482.500976562 c 0
 153 479.500976562 158 477.000976562 164 475.000976562 c 0
 178 470.333984375 191 468.000976562 203 468.000976562 c 0
 255.666992188 468.000976562 282 504.000976562 282 576.000976562 c 0
 282 603.333984375 278.166992188 623.166992188 270.5 635.5 c 0
 262.833007812 647.833007812 249.333007812 654 230 654 c 0
 224.666992188 654 220.5 653.666992188 217.5 653 c 0
 214.5 652.333007812 212.166992188 651.833007812 210.5 651.5 c 0
 208.833007812 651.166992188 207.333007812 650.666992188 206 650 c 0
 204.666992188 649.333007812 202.666992188 649 200 649 c 0
 188 649 182 654 182 664 c 0
 182 669.333007812 183.5 673.333007812 186.5 676 c 0
 189.5 678.666992188 193 680 197 680 c 2
EndSplineSet
EndChar

StartChar: acute
Encoding: 180 180 118
Width: 279
GlyphClass: 2
Flags: W
LayerCount: 2
Fore
SplineSet
152 554 m 1
 110.000976562 554 l 1
 241.000976562 704 l 2
 258.333984375 724 273.166992188 737.333007812 285.5 744 c 0
 297.833007812 750.666992188 311.5 754 326.5 754 c 0
 341.5 754 352.333007812 750 359 742 c 0
 365.666992188 734 369 725.333007812 369 716 c 0
 369 696 355.666992188 677.666992188 329 661 c 2
 152 554 l 1
EndSplineSet
EndChar

StartChar: mu
Encoding: 181 181 119
Width: 571
GlyphClass: 2
Flags: W
LayerCount: 2
Fore
SplineSet
158 65 m 0
 158 43 170.333984375 31.998046875 195.000976562 31.998046875 c 0
 225.000976562 31.998046875 256.000976562 49.998046875 288.000976562 85.998046875 c 0
 318.000976562 119.998046875 340.66796875 163.331054688 356.000976562 215.998046875 c 2
 412.000976562 449.998046875 l 1
 514.000976562 449.998046875 l 1
 439.000976562 146.998046875 l 2
 429.000976562 105.665039062 424.000976562 75.83203125 424.000976562 57.4990234375 c 0
 424.000976562 39.166015625 430.66796875 29.9990234375 444.000976562 29.9990234375 c 0
 472.66796875 29.9990234375 506.000976562 70.33203125 544.000976562 150.999023438 c 1
 564.000976562 141.999023438 l 1
 543.333984375 93.33203125 521.000976562 55.4990234375 497.000976562 28.4990234375 c 0
 473.000976562 1.4990234375 444.66796875 -12.0009765625 412.000976562 -12.0009765625 c 0
 374.66796875 -12.0009765625 350.000976562 3.9990234375 338.000976562 35.9990234375 c 0
 333.333984375 47.9990234375 331.000976562 63.33203125 331.000976562 81.9990234375 c 2
 331.000976562 95.9990234375 l 1
 327.000976562 95.9990234375 l 1
 272.333984375 23.9990234375 213.333984375 -12.0009765625 150.000976562 -12.0009765625 c 0
 113.333984375 -12.0009765625 86.6669921875 -1.0009765625 70 20.9990234375 c 1
 65 20.9990234375 l 1
 61.6669921875 -2.333984375 60 -29.333984375 60 -60.0009765625 c 0
 60 -90.66796875 61.3330078125 -113.500976562 64 -128.500976562 c 0
 66.6669921875 -143.500976562 68 -158.66796875 68 -174.000976562 c 0
 68 -205.333984375 61.3330078125 -227.666992188 48 -241 c 0
 34.6669921875 -254.333007812 19 -261 1 -261 c 0
 -27 -261 -41 -246.333007812 -41 -217 c 0
 -41 -202.333007812 -38.1669921875 -187.166015625 -32.5 -171.499023438 c 0
 -26.8330078125 -155.83203125 -19.3330078125 -135.999023438 -10 -111.999023438 c 0
 20 -35.9990234375 44 39.333984375 62 114.000976562 c 2
 138 425.000976562 l 1
 65 425.000976562 l 1
 65 450.000976562 l 1
 248 450.000976562 l 1
 162 91.0009765625 l 2
 159.333007812 80.333984375 158 71.6669921875 158 65 c 0
EndSplineSet
EndChar

StartChar: paragraph
Encoding: 182 182 120
Width: 608
GlyphClass: 2
Flags: W
LayerCount: 2
Fore
SplineSet
703 754 m 1
 688 685 l 1
 593 685 l 1
 407 -157 l 1
 335 -157 l 1
 521 685 l 1
 429 685 l 1
 243 -157 l 1
 171 -157 l 1
 274 309 l 1
 210.666992188 313 163.5 332.166992188 132.5 366.5 c 0
 101.5 400.833007812 86 444 86 496 c 0
 86 566.666992188 111.333007812 626.666992188 162 676 c 0
 215.333007812 728 285.333007812 754 372 754 c 2
 703 754 l 1
EndSplineSet
EndChar

StartChar: periodcentered
Encoding: 183 183 121
Width: 166
GlyphClass: 2
Flags: W
LayerCount: 2
Fore
SplineSet
26 251 m 0
 26 270.333007812 32.3330078125 286.5 45 299.5 c 0
 57.6669921875 312.5 73.6669921875 319 93 319 c 0
 112.333007812 319 128.5 312.5 141.5 299.5 c 0
 154.5 286.5 161 270.333007812 161 251 c 0
 161 231.666992188 154.5 215.666992188 141.5 203 c 0
 128.5 190.333007812 112.333007812 184 93 184 c 0
 73.6669921875 184 57.6669921875 190.333007812 45 203 c 0
 32.3330078125 215.666992188 26 231.666992188 26 251 c 0
EndSplineSet
EndChar

StartChar: cedilla
Encoding: 184 184 122
Width: 245
GlyphClass: 2
Flags: W
LayerCount: 2
Fore
SplineSet
79 -138 m 0
 79 -107.333007812 58.001953125 -91.33203125 16.001953125 -89.9990234375 c 1
 75.001953125 10.0009765625 l 1
 105.001953125 10.0009765625 l 1
 62.001953125 -65.9990234375 l 1
 81.001953125 -65.9990234375 l 2
 107.001953125 -65.9990234375 127.168945312 -71.83203125 141.501953125 -83.4990234375 c 0
 155.834960938 -95.166015625 163.001953125 -109.999023438 163.001953125 -127.999023438 c 0
 163.001953125 -145.999023438 158.001953125 -160.999023438 148.001953125 -172.999023438 c 0
 137.334960938 -184.999023438 124.66796875 -194.999023438 110.000976562 -202.999023438 c 0
 81.333984375 -218.33203125 47.6669921875 -225.999023438 9 -225.999023438 c 0
 -22.3330078125 -225.999023438 -47 -220.33203125 -65 -208.999023438 c 1
 -48 -183.999023438 l 1
 -39.3330078125 -191.33203125 -23.5 -194.999023438 -0.5 -194.999023438 c 0
 22.5 -194.999023438 41.5 -190.33203125 56.5 -180.999023438 c 0
 71.5 -171.666015625 79 -157.333007812 79 -138 c 0
EndSplineSet
EndChar

StartChar: onesuperior
Encoding: 185 185 123
Width: 278
GlyphClass: 2
Flags: W
LayerCount: 2
Fore
SplineSet
152 848 m 1
 323 848 l 1
 243 480 l 1
 317 480 l 1
 317 459 l 1
 86 459 l 1
 86 480 l 1
 157 480 l 1
 228 827 l 1
 152 827 l 1
 152 848 l 1
EndSplineSet
EndChar

StartChar: ordmasculine
Encoding: 186 186 124
Width: 346
GlyphClass: 2
Flags: W
LayerCount: 2
Fore
SplineSet
305 473.5 m 0
 282.333007812 462.5 255.833007812 456.999023438 225.5 456.999023438 c 0
 195.166992188 456.999023438 169.166992188 468.33203125 147.5 490.999023438 c 0
 125.833007812 513.666015625 115 539.166015625 115 567.499023438 c 0
 115 595.83203125 120.166992188 621.165039062 130.5 643.498046875 c 0
 140.833007812 666.498046875 154.666015625 686.665039062 171.999023438 703.998046875 c 0
 210.666015625 743.998046875 253.999023438 763.665039062 301.999023438 762.998046875 c 0
 337.999023438 762.998046875 366.999023438 751.831054688 388.999023438 729.498046875 c 0
 410.999023438 707.165039062 421.999023438 681.83203125 421.999023438 653.499023438 c 0
 421.999023438 625.166015625 416.83203125 599.833007812 406.499023438 577.5 c 0
 396.166015625 555.166992188 382.333007812 535 365 517 c 0
 347.666992188 499 327.666992188 484.5 305 473.5 c 0
291 736.999023438 m 0
 262.333007812 736.33203125 239.333007812 714.666015625 222 671.999023438 c 0
 206 634.666015625 198.333007812 593.666015625 199 548.999023438 c 0
 199 527.666015625 202.333007812 511.499023438 209 500.499023438 c 0
 215.666992188 489.499023438 227 483.999023438 243 483.999023438 c 0
 259 483.999023438 272.833007812 489.83203125 284.5 501.499023438 c 0
 296.166992188 513.166015625 306 527.999023438 314 545.999023438 c 0
 330 582.666015625 337.833007812 623.666015625 337.5 668.999023438 c 0
 337.166992188 714.33203125 321.666992188 736.999023438 291 736.999023438 c 0
EndSplineSet
EndChar

StartChar: guillemotright
Encoding: 187 187 125
Width: 508
GlyphClass: 2
Flags: W
LayerCount: 2
Fore
SplineSet
32 53 m 1
 181 220 l 1
 107 391 l 1
 125 402 l 1
 287 231 l 1
 282 209 l 1
 44 38 l 1
 32 53 l 1
195 53 m 1
 344 220 l 1
 270 391 l 1
 288 402 l 1
 450 231 l 1
 445 209 l 1
 207 38 l 1
 195 53 l 1
EndSplineSet
EndChar

StartChar: onequarter
Encoding: 188 188 126
Width: 913
GlyphClass: 3
Flags: W
LayerCount: 2
Fore
SplineSet
834 753 m 1
 244 0 l 1
 185 0 l 1
 775 753 l 1
 834 753 l 1
203 748 m 1
 374 748 l 1
 294 380 l 1
 368 380 l 1
 368 359 l 1
 137 359 l 1
 137 380 l 1
 208 380 l 1
 279 727 l 1
 203 727 l 1
 203 748 l 1
536 123 m 1
 655 123 l 1
 690 291 l 1
 685 291 l 1
 536 123 l 1
512 123 m 1
 756 389 l 1
 799 389 l 1
 742 123 l 1
 792 123 l 1
 801 159 l 1
 818 159 l 1
 793 60 l 1
 776 60 l 1
 787 104 l 1
 738 104 l 1
 719 17 l 1
 762 17 l 1
 762 0 l 1
 594 0 l 1
 594 17 l 1
 632 17 l 1
 651 104 l 1
 512 104 l 1
 512 123 l 1
EndSplineSet
Ligature2: "'frac' Diagonal Fractions lookup 2 subtable" one fraction four
Ligature2: "'frac' Diagonal Fractions lookup 2 subtable" one slash four
EndChar

StartChar: onehalf
Encoding: 189 189 127
Width: 913
GlyphClass: 3
Flags: W
LayerCount: 2
Fore
SplineSet
726 294 m 0
 726 343.333007812 707.66796875 367.999023438 671.000976562 367.999023438 c 0
 653.000976562 367.999023438 638.66796875 363.999023438 628.000976562 355.999023438 c 0
 610.66796875 342.666015625 602.000976562 332.833007812 602.000976562 326.5 c 0
 602.000976562 320.166992188 604.833984375 316 610.500976562 314 c 0
 616.833984375 312 623.333984375 309.666992188 630.000976562 307 c 0
 648.66796875 299.666992188 658.000976562 288.166992188 658.000976562 272.5 c 0
 658.000976562 256.833007812 653.66796875 245.166015625 645.000976562 237.499023438 c 0
 636.333984375 229.83203125 628.166992188 225.999023438 620.5 225.999023438 c 0
 612.833007812 225.999023438 606 226.666015625 600 227.999023438 c 0
 593.333007812 229.33203125 587.333007812 231.999023438 582 235.999023438 c 0
 568.666992188 245.33203125 562 257.999023438 562 273.999023438 c 0
 562 289.999023438 564.5 304.33203125 569.5 316.999023438 c 0
 573.833007812 329.666015625 581.333007812 341.333007812 592 352 c 0
 616 376.666992188 649.333007812 389 692 389 c 0
 730 389.666992188 761.333007812 380.666992188 786 362 c 0
 812 342.666992188 825 317.666992188 825 287 c 0
 825 269.666992188 818.666992188 250 806 228 c 0
 793.333007812 206 768.666015625 184.666992188 731.999023438 164 c 2
 591.999023438 84 l 1
 591.999023438 80 l 1
 746.999023438 80 l 2
 755.666015625 80 761.333007812 82 764 86 c 0
 769.333007812 92.6669921875 774 106 778 126 c 1
 796 126 l 1
 764 0 l 1
 505 0 l 1
 518 58 l 1
 623 131 l 2
 681 171.666992188 714 214 722 258 c 0
 724.666992188 270.666992188 726 282.666992188 726 294 c 0
203.000976562 747.999023438 m 1
 374.000976562 747.999023438 l 1
 294.000976562 379.999023438 l 1
 368.000976562 379.999023438 l 1
 368.000976562 358.999023438 l 1
 137.000976562 358.999023438 l 1
 137.000976562 379.999023438 l 1
 208.000976562 379.999023438 l 1
 279.000976562 726.999023438 l 1
 203.000976562 726.999023438 l 1
 203.000976562 747.999023438 l 1
809.000976562 752.999023438 m 1
 219.000976562 -0.0009765625 l 1
 160.000976562 -0.0009765625 l 1
 750.000976562 752.999023438 l 1
 809.000976562 752.999023438 l 1
EndSplineSet
Ligature2: "'frac' Diagonal Fractions lookup 2 subtable" one fraction two
Ligature2: "'frac' Diagonal Fractions lookup 2 subtable" one slash two
EndChar

StartChar: threequarters
Encoding: 190 190 128
Width: 913
GlyphClass: 3
Flags: W
LayerCount: 2
Fore
SplineSet
536 123 m 1
 655 123 l 1
 690 291 l 1
 685 291 l 1
 536 123 l 1
512 123 m 1
 756 389 l 1
 799 389 l 1
 742 123 l 1
 792 123 l 1
 801 159 l 1
 818 159 l 1
 793 60 l 1
 776 60 l 1
 787 104 l 1
 738 104 l 1
 719 17 l 1
 762 17 l 1
 762 0 l 1
 594 0 l 1
 594 17 l 1
 632 17 l 1
 651 104 l 1
 512 104 l 1
 512 123 l 1
855 753 m 1
 265 0 l 1
 206 0 l 1
 796 753 l 1
 855 753 l 1
238 580 m 2
 269.002929688 577.001953125 l 2
 294.3359375 577.668945312 314.668945312 590.668945312 330.001953125 616.001953125 c 0
 343.334960938 638.001953125 350.001953125 660.168945312 350.001953125 682.501953125 c 0
 350.001953125 704.834960938 346.168945312 718.66796875 338.501953125 724.000976562 c 0
 330.834960938 729.333984375 320.334960938 732.000976562 307.001953125 732.000976562 c 0
 293.668945312 732.000976562 283.501953125 730.000976562 276.501953125 726.000976562 c 0
 269.501953125 722.000976562 266.001953125 717.500976562 266.001953125 712.500976562 c 0
 266.001953125 707.500976562 267.168945312 703.833984375 269.501953125 701.500976562 c 0
 271.168945312 699.16796875 273.3359375 696.66796875 276.002929688 694.000976562 c 0
 282.669921875 687.333984375 286.169921875 680.000976562 286.502929688 672.000976562 c 0
 286.8359375 664.000976562 283.668945312 656.66796875 277.001953125 650.000976562 c 0
 270.334960938 643.333984375 262.16796875 640.000976562 252.500976562 640.000976562 c 0
 242.833984375 640.000976562 234.500976562 642.833984375 227.500976562 648.500976562 c 0
 220.500976562 654.16796875 217.000976562 663.334960938 217.000976562 676.001953125 c 0
 217.000976562 697.334960938 227.333984375 715.001953125 248.000976562 729.001953125 c 0
 268.66796875 743.001953125 295.500976562 750.001953125 328.500976562 750.001953125 c 0
 361.500976562 750.001953125 386.833984375 742.001953125 404.500976562 726.001953125 c 0
 422.16796875 710.001953125 431.000976562 691.001953125 431.000976562 669.001953125 c 0
 431.000976562 647.001953125 421.66796875 627.334960938 403.000976562 610.001953125 c 0
 384.333984375 592.668945312 356.666992188 579.001953125 320 569.001953125 c 1
 320 565.001953125 l 1
 346 564.334960938 369 555.334960938 389 538.001953125 c 0
 409.666992188 519.334960938 420 499.001953125 420 477.001953125 c 0
 420 455.001953125 415.833007812 436.834960938 407.5 422.501953125 c 0
 398.5 408.168945312 386.666992188 395.668945312 372 385.001953125 c 0
 340 362.334960938 302.5 351.001953125 259.5 351.001953125 c 0
 216.5 351.001953125 186.833007812 358.001953125 170.5 372.001953125 c 0
 154.166992188 386.668945312 146 401.3359375 146 416.002929688 c 0
 146 450.669921875 158 467.669921875 182 467.002929688 c 0
 192 467.002929688 200.5 464.002929688 207.5 458.002929688 c 0
 214.5 452.002929688 218 444.669921875 218 436.002929688 c 0
 218 427.3359375 216.166992188 421.168945312 212.5 417.501953125 c 0
 208.833007812 413.834960938 205 410.66796875 201 408.000976562 c 0
 197 405.333984375 193.166992188 403.000976562 189.5 401.000976562 c 0
 185.833007812 399.000976562 184 396.16796875 184 392.500976562 c 0
 184 388.833984375 186 385.500976562 190 382.500976562 c 0
 194 379.500976562 199 377.000976562 205 375.000976562 c 0
 219 370.333984375 232 368.000976562 244 368.000976562 c 0
 296.666992188 368.000976562 323 404.000976562 323 476.000976562 c 0
 323 503.333984375 319.166992188 523.166992188 311.5 535.5 c 0
 303.833007812 547.833007812 290.333007812 554 271 554 c 0
 265.666992188 554 261.5 553.666992188 258.5 553 c 0
 255.5 552.333007812 253.166992188 551.833007812 251.5 551.5 c 0
 249.833007812 551.166992188 248.333007812 550.666992188 247 550 c 0
 245.666992188 549.333007812 243.666992188 549 241 549 c 0
 229 549 223 554 223 564 c 0
 223 569.333007812 224.5 573.333007812 227.5 576 c 0
 230.5 578.666992188 234 580 238 580 c 2
EndSplineSet
Ligature2: "'frac' Diagonal Fractions lookup 2 subtable" three fraction four
Ligature2: "'frac' Diagonal Fractions lookup 2 subtable" three slash four
EndChar

StartChar: questiondown
Encoding: 191 191 129
Width: 459
GlyphClass: 2
Flags: W
LayerCount: 2
Fore
SplineSet
311 217 m 1
 313 199.666992188 314.000976562 184.000976562 314.000976562 170.000976562 c 0
 314.000976562 103.333984375 290.66796875 49.333984375 244.000976562 8.0009765625 c 0
 224.000976562 -9.33203125 202.66796875 -24.4990234375 180.000976562 -37.4990234375 c 0
 157.333984375 -50.4990234375 136.166992188 -63.4990234375 116.5 -76.4990234375 c 0
 96.8330078125 -89.4990234375 80.3330078125 -103.83203125 67 -119.499023438 c 0
 53.6669921875 -135.166015625 47 -152.833007812 47 -172.5 c 0
 47 -192.166992188 49.8330078125 -209 55.5 -223 c 0
 61.1669921875 -237 69.333984375 -249.333007812 80.0009765625 -260 c 0
 104.000976562 -284 136.000976562 -296.333007812 176.000976562 -297 c 0
 205.333984375 -297 228.500976562 -292.5 245.500976562 -283.5 c 0
 262.500976562 -274.5 274.333984375 -266.5 281.000976562 -259.5 c 0
 287.66796875 -252.5 291.000976562 -245.166992188 291.000976562 -237.5 c 0
 291.000976562 -229.833007812 288.16796875 -224.333007812 282.500976562 -221 c 0
 276.833984375 -217.666992188 270.666992188 -214.666992188 264 -212 c 0
 246 -204 237 -190.666992188 237 -172 c 0
 237 -153.333007812 242.5 -139.166015625 253.5 -129.499023438 c 0
 264.5 -119.83203125 277.166992188 -114.999023438 291.5 -114.999023438 c 0
 305.833007812 -114.999023438 319.333007812 -120.999023438 332 -132.999023438 c 0
 344.666992188 -144.999023438 351 -160.83203125 351 -180.499023438 c 0
 351 -200.166015625 347 -218.166015625 339 -234.499023438 c 0
 331 -250.166015625 319.333007812 -264.666015625 304 -277.999023438 c 0
 270 -307.33203125 226.666992188 -321.999023438 174 -321.999023438 c 0
 120 -321.999023438 76.6669921875 -306.33203125 44 -274.999023438 c 0
 10 -242.33203125 -7 -197.999023438 -7 -141.999023438 c 0
 -7 -53.9990234375 42.6669921875 14.333984375 142 63.0009765625 c 0
 202.666992188 91.66796875 245 120.66796875 269 150.000976562 c 0
 283.666992188 167.333984375 291 189.666992188 291 217 c 1
 311 217 l 1
399.000976562 388.000976562 m 0
 399.000976562 370.000976562 392.500976562 354.500976562 379.500976562 341.500976562 c 0
 366.500976562 328.500976562 351.000976562 322.000976562 333.000976562 322.000976562 c 0
 315.000976562 322.000976562 299.500976562 328.500976562 286.500976562 341.500976562 c 0
 273.500976562 354.500976562 267.000976562 370.000976562 267.000976562 388.000976562 c 0
 267.000976562 406.000976562 273.500976562 421.500976562 286.500976562 434.500976562 c 0
 299.500976562 447.500976562 315.000976562 454.000976562 333.000976562 454.000976562 c 0
 351.000976562 454.000976562 366.500976562 447.500976562 379.500976562 434.500976562 c 0
 392.500976562 421.500976562 399.000976562 406.000976562 399.000976562 388.000976562 c 0
EndSplineSet
EndChar

StartChar: Agrave
Encoding: 192 192 130
Width: 585
GlyphClass: 2
Flags: W
LayerCount: 2
Fore
SplineSet
366 828 m 2
 339.333007812 834.666992188 325.999023438 849 325.999023438 871 c 0
 325.999023438 885 330.999023438 897.333007812 340.999023438 908 c 0
 350.999023438 918.666992188 361.999023438 924 373.999023438 924 c 0
 385.999023438 924 396.33203125 921.5 404.999023438 916.5 c 0
 413.666015625 911.5 427.333007812 902 446 888 c 2
 585 784 l 1
 532 784 l 1
 366 828 l 2
380.999023438 547 m 1
 194.999023438 275 l 1
 359.999023438 275 l 1
 384.999023438 547 l 1
 380.999023438 547 l 1
122.999023438 0 m 1
 -91.0009765625 0 l 1
 -91.0009765625 25 l 1
 -14.0009765625 25 l 1
 492.999023438 764 l 1
 513.999023438 764 l 1
 459.999023438 25 l 1
 537.999023438 25 l 1
 537.999023438 0 l 1
 268.999023438 0 l 1
 268.999023438 25 l 1
 336.999023438 25 l 1
 356.999023438 247 l 1
 175.999023438 247 l 1
 23.9990234375 25 l 1
 122.999023438 25 l 1
 122.999023438 0 l 1
EndSplineSet
EndChar

StartChar: Aacute
Encoding: 193 193 131
Width: 585
GlyphClass: 2
Flags: W
LayerCount: 2
Fore
SplineSet
440 784 m 1
 387.999023438 784 l 1
 559.999023438 888 l 2
 598.666015625 912 625.333007812 924 640 924 c 0
 668.666992188 924 683 911 683 885 c 0
 683 853.666992188 660 833 614 823 c 2
 440 784 l 1
380.999023438 547 m 1
 194.999023438 275 l 1
 359.999023438 275 l 1
 384.999023438 547 l 1
 380.999023438 547 l 1
122.999023438 0 m 1
 -91.0009765625 0 l 1
 -91.0009765625 25 l 1
 -14.0009765625 25 l 1
 492.999023438 764 l 1
 513.999023438 764 l 1
 459.999023438 25 l 1
 537.999023438 25 l 1
 537.999023438 0 l 1
 268.999023438 0 l 1
 268.999023438 25 l 1
 336.999023438 25 l 1
 356.999023438 247 l 1
 175.999023438 247 l 1
 23.9990234375 25 l 1
 122.999023438 25 l 1
 122.999023438 0 l 1
EndSplineSet
EndChar

StartChar: Acircumflex
Encoding: 194 194 132
Width: 585
GlyphClass: 2
Flags: W
LayerCount: 2
Fore
SplineSet
621 784 m 1
 515 845 l 1
 383 784 l 1
 341 784 l 1
 500 924 l 1
 562 924 l 1
 664 784 l 1
 621 784 l 1
381 547 m 1
 195 275 l 1
 360 275 l 1
 385 547 l 1
 381 547 l 1
123 0 m 1
 -91 0 l 1
 -91 25 l 1
 -14 25 l 1
 493 764 l 1
 514 764 l 1
 460 25 l 1
 538 25 l 1
 538 0 l 1
 269 0 l 1
 269 25 l 1
 337 25 l 1
 357 247 l 1
 176 247 l 1
 24 25 l 1
 123 25 l 1
 123 0 l 1
EndSplineSet
EndChar

StartChar: Atilde
Encoding: 195 195 133
Width: 585
GlyphClass: 2
Flags: W
LayerCount: 2
Fore
SplineSet
713 924 m 1
 699.666992188 880 681.166992188 847.833984375 657.5 827.500976562 c 0
 633.833007812 807.16796875 608 797.000976562 580 797.000976562 c 0
 558 797.000976562 534.666992188 805.000976562 510 821.000976562 c 0
 500.666992188 827.000976562 491.333984375 832.500976562 482.000976562 837.500976562 c 0
 472.66796875 842.500976562 460.834960938 845.000976562 446.501953125 845.000976562 c 0
 432.168945312 845.000976562 418.668945312 840.333984375 406.001953125 831.000976562 c 0
 393.334960938 821.66796875 383.66796875 810.000976562 377.000976562 796.000976562 c 1
 345.000976562 796.000976562 l 1
 355.000976562 832.000976562 372.000976562 861.833984375 396.000976562 885.500976562 c 0
 420.000976562 909.16796875 447.000976562 921.000976562 477.000976562 921.000976562 c 0
 496.333984375 921.000976562 518.666992188 913.000976562 544 897.000976562 c 0
 553.333007812 891.000976562 562.833007812 885.500976562 572.5 880.500976562 c 0
 582.166992188 875.500976562 594.5 873.000976562 609.5 873.000976562 c 0
 624.5 873.000976562 638.166992188 878.66796875 650.5 890.000976562 c 0
 662.833007812 901.333984375 672.333007812 912.666992188 679 924 c 1
 713 924 l 1
381 547.000976562 m 1
 195 275.000976562 l 1
 360 275.000976562 l 1
 385 547.000976562 l 1
 381 547.000976562 l 1
123 0.0009765625 m 1
 -91 0.0009765625 l 1
 -91 25.0009765625 l 1
 -14 25.0009765625 l 1
 493 764.000976562 l 1
 514 764.000976562 l 1
 460 25.0009765625 l 1
 538 25.0009765625 l 1
 538 0.0009765625 l 1
 269 0.0009765625 l 1
 269 25.0009765625 l 1
 337 25.0009765625 l 1
 357 247.000976562 l 1
 176 247.000976562 l 1
 24 25.0009765625 l 1
 123 25.0009765625 l 1
 123 0.0009765625 l 1
EndSplineSet
EndChar

StartChar: Adieresis
Encoding: 196 196 134
Width: 585
GlyphClass: 2
Flags: W
LayerCount: 2
Fore
SplineSet
569 869 m 0
 569 884.333007812 574.333007812 897.333007812 585 908 c 0
 595.666992188 918.666992188 608.666992188 924 624 924 c 0
 639.333007812 924 652.333007812 918.666992188 663 908 c 0
 673.666992188 897.333007812 679 884.333007812 679 869 c 0
 679 853.666992188 673.666992188 840.666992188 663 830 c 0
 652.333007812 819.333007812 639.333007812 814 624 814 c 0
 608.666992188 814 595.666992188 819.333007812 585 830 c 0
 574.333007812 840.666992188 569 853.666992188 569 869 c 0
379 869 m 0
 379 884.333007812 384.333007812 897.333007812 395 908 c 0
 405.666992188 918.666992188 418.666992188 924 434 924 c 0
 449.333007812 924 462.333007812 918.666992188 473 908 c 0
 483.666992188 897.333007812 489 884.333007812 489 869 c 0
 489 853.666992188 483.666992188 840.666992188 473 830 c 0
 462.333007812 819.333007812 449.333007812 814 434 814 c 0
 418.666992188 814 405.666992188 819.333007812 395 830 c 0
 384.333007812 840.666992188 379 853.666992188 379 869 c 0
381 547 m 1
 195 275 l 1
 360 275 l 1
 385 547 l 1
 381 547 l 1
123 0 m 1
 -91 0 l 1
 -91 25 l 1
 -14 25 l 1
 493 764 l 1
 514 764 l 1
 460 25 l 1
 538 25 l 1
 538 0 l 1
 269 0 l 1
 269 25 l 1
 337 25 l 1
 357 247 l 1
 176 247 l 1
 24 25 l 1
 123 25 l 1
 123 0 l 1
EndSplineSet
EndChar

StartChar: Aring
Encoding: 197 197 135
Width: 585
GlyphClass: 2
Flags: W
LayerCount: 2
Fore
SplineSet
519 891 m 0
 508.333007812 891 498.833007812 887.166992188 490.5 879.5 c 0
 482.166992188 871.833007812 478 862.5 478 851.5 c 0
 478 840.5 482 830.833007812 490 822.5 c 0
 498 814.166992188 507.666992188 810 519 810 c 0
 530.333007812 810 539.833007812 814.166992188 547.5 822.5 c 0
 555.166992188 830.833007812 559 840.5 559 851.5 c 0
 559 862.5 555 871.833007812 547 879.5 c 0
 539 887.166992188 529.666992188 891 519 891 c 0
571 799 m 0
 557 784.333007812 539.833007812 777.001953125 519.5 777.001953125 c 0
 499.166992188 777.001953125 481.666992188 784.334960938 467 799.001953125 c 0
 452.333007812 813.668945312 445 831.168945312 445 851.501953125 c 0
 445 871.834960938 452.333007812 889.001953125 467 903.001953125 c 0
 481.666992188 917.001953125 499 924.001953125 519 924.001953125 c 0
 539 924.001953125 556.166992188 917.168945312 570.5 903.501953125 c 0
 584.833007812 889.834960938 592 872.66796875 592 852.000976562 c 0
 592 831.333984375 585 813.666992188 571 799 c 0
381 547.001953125 m 1
 195 275.001953125 l 1
 360 275.001953125 l 1
 385 547.001953125 l 1
 381 547.001953125 l 1
123 0.001953125 m 1
 -91 0.001953125 l 1
 -91 25.001953125 l 1
 -14 25.001953125 l 1
 493 764.001953125 l 1
 514 764.001953125 l 1
 460 25.001953125 l 1
 538 25.001953125 l 1
 538 0.001953125 l 1
 269 0.001953125 l 1
 269 25.001953125 l 1
 337 25.001953125 l 1
 357 247.001953125 l 1
 176 247.001953125 l 1
 24 25.001953125 l 1
 123 25.001953125 l 1
 123 0.001953125 l 1
EndSplineSet
EndChar

StartChar: AE
Encoding: 198 198 136
Width: 946
GlyphClass: 2
Flags: W
LayerCount: 2
Fore
SplineSet
403 275 m 1
 501 729 l 1
 482 729 l 1
 173 275 l 1
 403 275 l 1
247 25 m 1
 348.000976562 25 l 1
 397.000976562 247 l 1
 154.000976562 247 l 1
 2.0009765625 25 l 1
 101.000976562 25 l 1
 101.000976562 0 l 1
 -112.999023438 0 l 1
 -112.999023438 25 l 1
 -35.9990234375 25 l 1
 447.000976562 729 l 1
 338.000976562 729 l 1
 338.000976562 754 l 1
 957.000976562 754 l 1
 929.000976562 553 l 1
 899.000976562 553 l 1
 898.333984375 623 887.333984375 669.666992188 866.000976562 693 c 0
 844.000976562 717 798.000976562 729 728.000976562 729 c 2
 618.000976562 729 l 1
 545.000976562 403 l 1
 594.000976562 403 l 2
 634.000976562 403 664.333984375 411.833007812 685.000976562 429.5 c 0
 705.66796875 447.166992188 724.000976562 482 740.000976562 534 c 1
 765.000976562 534 l 1
 706.000976562 226 l 1
 676.000976562 226 l 1
 676.000976562 289.333007812 670.000976562 330.333007812 658.000976562 349 c 0
 651.333984375 360.333007812 641.500976562 368 628.500976562 372 c 0
 615.500976562 376 598.66796875 378 578.000976562 378 c 2
 540.000976562 378 l 1
 461.000976562 25 l 1
 640.000976562 25 l 2
 687.333984375 25.6669921875 726.666992188 39.333984375 758 66.0009765625 c 0
 794 97.333984375 830.333007812 152.666992188 867 232 c 1
 897 232 l 1
 837 0 l 1
 247 0 l 1
 247 25 l 1
EndSplineSet
EndChar

StartChar: Ccedilla
Encoding: 199 199 137
Width: 693
GlyphClass: 2
Flags: W
LayerCount: 2
Fore
SplineSet
354 -142 m 0
 354 -111.333007812 332.998046875 -95.33203125 290.998046875 -93.9990234375 c 1
 338.998046875 -11.9990234375 l 1
 258.998046875 -9.33203125 194.998046875 21.66796875 146.998046875 81.0009765625 c 0
 101.665039062 137.000976562 78.998046875 206.000976562 78.998046875 288.000976562 c 0
 78.998046875 363.333984375 98.6650390625 438.333984375 137.998046875 513.000976562 c 0
 177.998046875 587.000976562 228.665039062 646.66796875 289.998046875 692.000976562 c 0
 356.665039062 740.66796875 425.33203125 765.000976562 495.999023438 765.000976562 c 0
 526.666015625 765.000976562 553.666015625 760.000976562 576.999023438 750.000976562 c 0
 600.33203125 740.000976562 623.33203125 724.000976562 645.999023438 702.000976562 c 1
 694.999023438 754.000976562 l 1
 719.999023438 754.000976562 l 1
 672.999023438 541.000976562 l 1
 647.999023438 541.000976562 l 1
 647.999023438 600.333984375 632.666015625 648.000976562 601.999023438 684.000976562 c 0
 571.999023438 718.66796875 534.33203125 736.000976562 488.999023438 736.000976562 c 0
 429.666015625 736.000976562 377.666015625 704.000976562 332.999023438 640.000976562 c 0
 277.666015625 559.333984375 241.333007812 449.000976562 224 309.000976562 c 0
 219.333007812 271.000976562 217 235.500976562 217 202.500976562 c 0
 217 169.500976562 220 141.000976562 226 117.000976562 c 0
 231.333007812 93.66796875 240 74.66796875 252 60.0009765625 c 0
 274 32.66796875 308.333007812 19.0009765625 355 19.0009765625 c 0
 457 19.0009765625 546 81.333984375 622 206.000976562 c 1
 647 206.000976562 l 1
 594 0.0009765625 l 1
 569 0.0009765625 l 1
 539 49.0009765625 l 1
 485 12.333984375 428.333007812 -7.9990234375 369 -11.9990234375 c 1
 337 -69.9990234375 l 1
 356 -69.9990234375 l 2
 382 -69.9990234375 402.166992188 -75.83203125 416.5 -87.4990234375 c 0
 430.833007812 -99.166015625 438 -113.999023438 438 -131.999023438 c 0
 438 -149.999023438 433 -164.999023438 423 -176.999023438 c 0
 413 -188.999023438 400.666992188 -198.999023438 386 -206.999023438 c 0
 357.333007812 -222.33203125 323.333007812 -229.999023438 284 -229.999023438 c 0
 252.666992188 -229.999023438 228 -224.33203125 210 -212.999023438 c 1
 227 -187.999023438 l 1
 235.666992188 -195.33203125 251.5 -198.999023438 274.5 -198.999023438 c 0
 297.5 -198.999023438 316.5 -194.33203125 331.5 -184.999023438 c 0
 346.5 -175.666015625 354 -161.333007812 354 -142 c 0
EndSplineSet
EndChar

StartChar: Egrave
Encoding: 200 200 138
Width: 662
GlyphClass: 2
Flags: W
LayerCount: 2
Fore
SplineSet
349 828 m 2
 322.333007812 834.666992188 309.000976562 849 309.000976562 871 c 0
 309.000976562 885 314.000976562 897.333007812 324.000976562 908 c 0
 334.000976562 918.666992188 345.16796875 924 357.500976562 924 c 0
 369.833984375 924 380.166992188 921.5 388.5 916.5 c 0
 396.833007812 911.5 410.333007812 902 429 888 c 2
 568 784 l 1
 515 784 l 1
 349 828 l 2
114.000976562 754 m 1
 673.001953125 754 l 1
 645.001953125 553 l 1
 615.001953125 553 l 1
 614.334960938 623 603.334960938 669.666992188 582.001953125 693 c 0
 560.001953125 717 514.001953125 729 444.001953125 729 c 2
 334.001953125 729 l 1
 261.001953125 403 l 1
 310.001953125 403 l 2
 350.001953125 403 380.334960938 411.833007812 401.001953125 429.5 c 0
 421.668945312 447.166992188 440.001953125 482 456.001953125 534 c 1
 481.001953125 534 l 1
 422.001953125 226 l 1
 392.001953125 226 l 1
 392.001953125 289.333007812 386.001953125 330.333007812 374.001953125 349 c 0
 367.334960938 360.333007812 357.501953125 368 344.501953125 372 c 0
 331.501953125 376 314.668945312 378 294.001953125 378 c 2
 256.001953125 378 l 1
 177.001953125 25 l 1
 356.001953125 25 l 2
 403.334960938 25.6669921875 442.66796875 39.333984375 474.000976562 66.0009765625 c 0
 510.000976562 97.333984375 546.333984375 152.666992188 583.000976562 232 c 1
 613.000976562 232 l 1
 553.000976562 0 l 1
 -36.9990234375 0 l 1
 -36.9990234375 25 l 1
 64.0009765625 25 l 1
 217.000976562 729 l 1
 114.000976562 729 l 1
 114.000976562 754 l 1
EndSplineSet
EndChar

StartChar: Eacute
Encoding: 201 201 139
Width: 662
GlyphClass: 2
Flags: W
LayerCount: 2
Fore
SplineSet
381 784 m 1
 328.999023438 784 l 1
 500.999023438 888 l 2
 539.666015625 912 566.333007812 924 581 924 c 0
 609.666992188 924 624 911 624 885 c 0
 624 853.666992188 601 833 555 823 c 2
 381 784 l 1
113.999023438 754 m 1
 673 754 l 1
 645 553 l 1
 615 553 l 1
 614.333007812 623 603.333007812 669.666992188 582 693 c 0
 560 717 514 729 444 729 c 2
 334 729 l 1
 261 403 l 1
 310 403 l 2
 350 403 380.333007812 411.833007812 401 429.5 c 0
 421.666992188 447.166992188 440 482 456 534 c 1
 481 534 l 1
 422 226 l 1
 392 226 l 1
 392 289.333007812 386 330.333007812 374 349 c 0
 367.333007812 360.333007812 357.5 368 344.5 372 c 0
 331.5 376 314.666992188 378 294 378 c 2
 256 378 l 1
 177 25 l 1
 356 25 l 2
 403.333007812 25.6669921875 442.666015625 39.333984375 473.999023438 66.0009765625 c 0
 509.999023438 97.333984375 546.33203125 152.666992188 582.999023438 232 c 1
 612.999023438 232 l 1
 552.999023438 0 l 1
 -37.0009765625 0 l 1
 -37.0009765625 25 l 1
 63.9990234375 25 l 1
 216.999023438 729 l 1
 113.999023438 729 l 1
 113.999023438 754 l 1
EndSplineSet
EndChar

StartChar: Ecircumflex
Encoding: 202 202 140
Width: 662
GlyphClass: 2
Flags: W
LayerCount: 2
Fore
SplineSet
540 784 m 1
 434 845 l 1
 302 784 l 1
 260 784 l 1
 419 924 l 1
 481 924 l 1
 583 784 l 1
 540 784 l 1
114 754 m 1
 673.000976562 754 l 1
 645.000976562 553 l 1
 615.000976562 553 l 1
 614.333984375 623 603.333984375 669.666992188 582.000976562 693 c 0
 560.000976562 717 514.000976562 729 444.000976562 729 c 2
 334.000976562 729 l 1
 261.000976562 403 l 1
 310.000976562 403 l 2
 350.000976562 403 380.333984375 411.833007812 401.000976562 429.5 c 0
 421.66796875 447.166992188 440.000976562 482 456.000976562 534 c 1
 481.000976562 534 l 1
 422.000976562 226 l 1
 392.000976562 226 l 1
 392.000976562 289.333007812 386.000976562 330.333007812 374.000976562 349 c 0
 367.333984375 360.333007812 357.500976562 368 344.500976562 372 c 0
 331.500976562 376 314.66796875 378 294.000976562 378 c 2
 256.000976562 378 l 1
 177.000976562 25 l 1
 356.000976562 25 l 2
 403.333984375 25.6669921875 442.666992188 39.333984375 474 66.0009765625 c 0
 510 97.333984375 546.333007812 152.666992188 583 232 c 1
 613 232 l 1
 553 0 l 1
 -37 0 l 1
 -37 25 l 1
 64 25 l 1
 217 729 l 1
 114 729 l 1
 114 754 l 1
EndSplineSet
EndChar

StartChar: Edieresis
Encoding: 203 203 141
Width: 662
GlyphClass: 2
Flags: W
LayerCount: 2
Fore
SplineSet
484 869 m 0
 484 884.333007812 489.333007812 897.333007812 500 908 c 0
 510.666992188 918.666992188 523.666992188 924 539 924 c 0
 554.333007812 924 567.333007812 918.666992188 578 908 c 0
 588.666992188 897.333007812 594 884.333007812 594 869 c 0
 594 853.666992188 588.666992188 840.666992188 578 830 c 0
 567.333007812 819.333007812 554.333007812 814 539 814 c 0
 523.666992188 814 510.666992188 819.333007812 500 830 c 0
 489.333007812 840.666992188 484 853.666992188 484 869 c 0
294 869 m 0
 294 884.333007812 299.333007812 897.333007812 310 908 c 0
 320.666992188 918.666992188 333.666992188 924 349 924 c 0
 364.333007812 924 377.333007812 918.666992188 388 908 c 0
 398.666992188 897.333007812 404 884.333007812 404 869 c 0
 404 853.666992188 398.666992188 840.666992188 388 830 c 0
 377.333007812 819.333007812 364.333007812 814 349 814 c 0
 333.666992188 814 320.666992188 819.333007812 310 830 c 0
 299.333007812 840.666992188 294 853.666992188 294 869 c 0
114 754 m 1
 673.000976562 754 l 1
 645.000976562 553 l 1
 615.000976562 553 l 1
 614.333984375 623 603.333984375 669.666992188 582.000976562 693 c 0
 560.000976562 717 514.000976562 729 444.000976562 729 c 2
 334.000976562 729 l 1
 261.000976562 403 l 1
 310.000976562 403 l 2
 350.000976562 403 380.333984375 411.833007812 401.000976562 429.5 c 0
 421.66796875 447.166992188 440.000976562 482 456.000976562 534 c 1
 481.000976562 534 l 1
 422.000976562 226 l 1
 392.000976562 226 l 1
 392.000976562 289.333007812 386.000976562 330.333007812 374.000976562 349 c 0
 367.333984375 360.333007812 357.500976562 368 344.500976562 372 c 0
 331.500976562 376 314.66796875 378 294.000976562 378 c 2
 256.000976562 378 l 1
 177.000976562 25 l 1
 356.000976562 25 l 2
 403.333984375 25.6669921875 442.666992188 39.333984375 474 66.0009765625 c 0
 510 97.333984375 546.333007812 152.666992188 583 232 c 1
 613 232 l 1
 553 0 l 1
 -37 0 l 1
 -37 25 l 1
 64 25 l 1
 217 729 l 1
 114 729 l 1
 114 754 l 1
EndSplineSet
EndChar

StartChar: Igrave
Encoding: 204 204 142
Width: 360
GlyphClass: 2
Flags: W
LayerCount: 2
Fore
SplineSet
224 828 m 2
 197.333007812 834.666992188 183.999023438 849 183.999023438 871 c 0
 183.999023438 885 188.999023438 897.333007812 198.999023438 908 c 0
 208.999023438 918.666992188 219.999023438 924 231.999023438 924 c 0
 243.999023438 924 254.33203125 921.5 262.999023438 916.5 c 0
 271.666015625 911.5 285.333007812 902 304 888 c 2
 443 784 l 1
 390 784 l 1
 224 828 l 2
144.999023438 754 m 1
 443.999023438 754 l 1
 443.999023438 729 l 1
 354.999023438 729 l 1
 197.999023438 25 l 1
 302.999023438 25 l 1
 302.999023438 0 l 1
 -6.0009765625 0 l 1
 -6.0009765625 25 l 1
 84.9990234375 25 l 1
 237.999023438 729 l 1
 144.999023438 729 l 1
 144.999023438 754 l 1
EndSplineSet
EndChar

StartChar: Iacute
Encoding: 205 205 143
Width: 360
GlyphClass: 2
Flags: W
LayerCount: 2
Fore
SplineSet
240 784 m 1
 187.999023438 784 l 1
 359.999023438 888 l 2
 398.666015625 912 425.333007812 924 440 924 c 0
 468.666992188 924 483 911 483 885 c 0
 483 853.666992188 460 833 414 823 c 2
 240 784 l 1
144.999023438 754 m 1
 443.999023438 754 l 1
 443.999023438 729 l 1
 354.999023438 729 l 1
 197.999023438 25 l 1
 302.999023438 25 l 1
 302.999023438 0 l 1
 -6.0009765625 0 l 1
 -6.0009765625 25 l 1
 84.9990234375 25 l 1
 237.999023438 729 l 1
 144.999023438 729 l 1
 144.999023438 754 l 1
EndSplineSet
EndChar

StartChar: Icircumflex
Encoding: 206 206 144
Width: 360
GlyphClass: 2
Flags: W
LayerCount: 2
Fore
SplineSet
443 784 m 1
 337 845 l 1
 205 784 l 1
 163 784 l 1
 322 924 l 1
 384 924 l 1
 486 784 l 1
 443 784 l 1
145 754 m 1
 444 754 l 1
 444 729 l 1
 355 729 l 1
 198 25 l 1
 303 25 l 1
 303 0 l 1
 -6 0 l 1
 -6 25 l 1
 85 25 l 1
 238 729 l 1
 145 729 l 1
 145 754 l 1
EndSplineSet
EndChar

StartChar: Idieresis
Encoding: 207 207 145
Width: 360
GlyphClass: 2
Flags: W
LayerCount: 2
Fore
SplineSet
377 869 m 0
 377 884.333007812 382.333007812 897.333007812 393 908 c 0
 403.666992188 918.666992188 416.666992188 924 432 924 c 0
 447.333007812 924 460.333007812 918.666992188 471 908 c 0
 481.666992188 897.333007812 487 884.333007812 487 869 c 0
 487 853.666992188 481.666992188 840.666992188 471 830 c 0
 460.333007812 819.333007812 447.333007812 814 432 814 c 0
 416.666992188 814 403.666992188 819.333007812 393 830 c 0
 382.333007812 840.666992188 377 853.666992188 377 869 c 0
187 869 m 0
 187 884.333007812 192.333007812 897.333007812 203 908 c 0
 213.666992188 918.666992188 226.666992188 924 242 924 c 0
 257.333007812 924 270.333007812 918.666992188 281 908 c 0
 291.666992188 897.333007812 297 884.333007812 297 869 c 0
 297 853.666992188 291.666992188 840.666992188 281 830 c 0
 270.333007812 819.333007812 257.333007812 814 242 814 c 0
 226.666992188 814 213.666992188 819.333007812 203 830 c 0
 192.333007812 840.666992188 187 853.666992188 187 869 c 0
145 754 m 1
 444 754 l 1
 444 729 l 1
 355 729 l 1
 198 25 l 1
 303 25 l 1
 303 0 l 1
 -6 0 l 1
 -6 25 l 1
 85 25 l 1
 238 729 l 1
 145 729 l 1
 145 754 l 1
EndSplineSet
EndChar

StartChar: Eth
Encoding: 208 208 146
Width: 764
GlyphClass: 2
Flags: W
LayerCount: 2
Fore
SplineSet
347 729 m 1
 274 401.999023438 l 1
 381 401.999023438 l 1
 381 366.999023438 l 1
 266 366.999023438 l 1
 191 26.9990234375 l 1
 300 26.9990234375 l 2
 346 26.9990234375 388.5 38.666015625 427.5 61.9990234375 c 0
 466.5 85.9990234375 500 118.666015625 528 159.999023438 c 0
 587.333007812 247.999023438 617 360.666015625 617 497.999023438 c 0
 617 580.666015625 600.666992188 639.999023438 568 675.999023438 c 0
 536 710.666015625 485.333007812 728.333007812 416 729 c 2
 347 729 l 1
16 401.999023438 m 1
 158.999023438 401.999023438 l 1
 229.999023438 728.999023438 l 1
 136.999023438 728.999023438 l 1
 136.999023438 753.999023438 l 1
 415.999023438 753.999023438 l 2
 518.666015625 753.999023438 599.333007812 725.999023438 658 669.999023438 c 0
 716 613.999023438 745 536.666015625 745 437.999023438 c 0
 745 375.999023438 734.333007812 318.166015625 713 264.499023438 c 0
 691.666992188 210.83203125 661.666992188 164.499023438 623 125.499023438 c 0
 584.333007812 86.4990234375 538.5 55.83203125 485.5 33.4990234375 c 0
 432.5 11.166015625 374.666992188 -0.0009765625 312 -0.0009765625 c 2
 -14 -0.0009765625 l 1
 -14 26.9990234375 l 1
 78 26.9990234375 l 1
 151 366.999023438 l 1
 16 366.999023438 l 1
 16 401.999023438 l 1
EndSplineSet
EndChar

StartChar: Ntilde
Encoding: 209 209 147
Width: 769
GlyphClass: 2
Flags: W
LayerCount: 2
Fore
SplineSet
713 924 m 1
 699.666992188 880 681.166992188 847.833984375 657.5 827.500976562 c 0
 633.833007812 807.16796875 608 797.000976562 580 797.000976562 c 0
 558 797.000976562 534.666992188 805.000976562 510 821.000976562 c 0
 500.666992188 827.000976562 491.333984375 832.500976562 482.000976562 837.500976562 c 0
 472.66796875 842.500976562 460.834960938 845.000976562 446.501953125 845.000976562 c 0
 432.168945312 845.000976562 418.668945312 840.333984375 406.001953125 831.000976562 c 0
 393.334960938 821.66796875 383.66796875 810.000976562 377.000976562 796.000976562 c 1
 345.000976562 796.000976562 l 1
 355.000976562 832.000976562 372.000976562 861.833984375 396.000976562 885.500976562 c 0
 420.000976562 909.16796875 447.000976562 921.000976562 477.000976562 921.000976562 c 0
 496.333984375 921.000976562 518.666992188 913.000976562 544 897.000976562 c 0
 553.333007812 891.000976562 562.833007812 885.500976562 572.5 880.500976562 c 0
 582.166992188 875.500976562 594.5 873.000976562 609.5 873.000976562 c 0
 624.5 873.000976562 638.166992188 878.66796875 650.5 890.000976562 c 0
 662.833007812 901.333984375 672.333007812 912.666992188 679 924 c 1
 713 924 l 1
147 754.000976562 m 1
 399 754.000976562 l 1
 608 228.000976562 l 1
 612 228.000976562 l 1
 721 729.000976562 l 1
 612 729.000976562 l 1
 612 754.000976562 l 1
 854 754.000976562 l 1
 854 729.000976562 l 1
 751 729.000976562 l 1
 590 -12.9990234375 l 1
 560 -12.9990234375 l 1
 279 705.000976562 l 1
 275 705.000976562 l 1
 127 25.0009765625 l 1
 237 25.0009765625 l 1
 237 0.0009765625 l 1
 -5 0.0009765625 l 1
 -5 25.0009765625 l 1
 97 25.0009765625 l 1
 250 729.000976562 l 1
 147 729.000976562 l 1
 147 754.000976562 l 1
EndSplineSet
EndChar

StartChar: Ograve
Encoding: 210 210 148
Width: 769
GlyphClass: 2
Flags: W
LayerCount: 2
Fore
SplineSet
426 828 m 2
 399.333007812 834.666992188 386.000976562 849 386.000976562 871 c 0
 386.000976562 885 391.000976562 897.333007812 401.000976562 908 c 0
 411.000976562 918.666992188 422.16796875 924 434.500976562 924 c 0
 446.833984375 924 457.166992188 921.5 465.5 916.5 c 0
 473.833007812 911.5 487.333007812 902 506 888 c 2
 645 784 l 1
 592 784 l 1
 426 828 l 2
520.000976562 736 m 0
 450.66796875 736 391 703.999023438 341 639.999023438 c 0
 298.333007812 585.33203125 265 513.999023438 241 425.999023438 c 0
 220.333007812 350.666015625 210 280.499023438 210 215.499023438 c 0
 210 150.499023438 220.5 101.499023438 241.5 68.4990234375 c 0
 262.5 35.4990234375 298.333007812 18.9990234375 349 18.9990234375 c 0
 420.333007812 18.33203125 480.666015625 51.33203125 529.999023438 117.999023438 c 0
 569.999023438 171.33203125 601.33203125 243.33203125 623.999023438 333.999023438 c 0
 642.666015625 407.999023438 651.833007812 471.83203125 651.5 525.499023438 c 0
 651.166992188 579.166015625 647.333984375 618.333007812 640.000976562 643 c 0
 632.66796875 667.666992188 623.000976562 686.666992188 611.000976562 700 c 0
 590.333984375 724 560.000976562 736 520.000976562 736 c 0
341 -11.0009765625 m 0
 297 -11.0009765625 258.166992188 -2.8330078125 224.5 13.5 c 0
 190.833007812 29.8330078125 162.666015625 51.3330078125 139.999023438 78 c 0
 94.666015625 132 71.9990234375 199.333007812 71.9990234375 280 c 0
 71.9990234375 356 94.666015625 432.666992188 139.999023438 510 c 0
 182.666015625 583.333007812 237.999023438 643.333007812 305.999023438 690 c 0
 376.666015625 738.666992188 447.333007812 763 518 763 c 0
 598 762.333007812 662.666992188 732 712 672 c 0
 757.333007812 616.666992188 780.333007812 551 781 475 c 0
 780.333007812 406.333007812 761.333007812 335 724 261 c 0
 684 184.333007812 632.666992188 121.333007812 570 72 c 0
 499.333007812 17.3330078125 423 -10.333984375 341 -11.0009765625 c 0
EndSplineSet
EndChar

StartChar: Oacute
Encoding: 211 211 149
Width: 769
GlyphClass: 2
Flags: W
LayerCount: 2
Fore
SplineSet
438 784 m 1
 385.999023438 784 l 1
 557.999023438 888 l 2
 596.666015625 912 623.333007812 924 638 924 c 0
 666.666992188 924 681 911 681 885 c 0
 681 853.666992188 658 833 612 823 c 2
 438 784 l 1
519.999023438 736 m 0
 450.666015625 736 390.998046875 703.999023438 340.998046875 639.999023438 c 0
 298.331054688 585.33203125 264.998046875 513.999023438 240.998046875 425.999023438 c 0
 220.331054688 350.666015625 209.998046875 280.499023438 209.998046875 215.499023438 c 0
 209.998046875 150.499023438 220.498046875 101.499023438 241.498046875 68.4990234375 c 0
 262.498046875 35.4990234375 298.331054688 18.9990234375 348.998046875 18.9990234375 c 0
 420.331054688 18.33203125 480.6640625 51.33203125 529.997070312 117.999023438 c 0
 569.997070312 171.33203125 601.330078125 243.33203125 623.997070312 333.999023438 c 0
 642.6640625 407.999023438 651.831054688 471.83203125 651.498046875 525.499023438 c 0
 651.165039062 579.166015625 647.33203125 618.333007812 639.999023438 643 c 0
 632.666015625 667.666992188 622.999023438 686.666992188 610.999023438 700 c 0
 590.33203125 724 559.999023438 736 519.999023438 736 c 0
340.998046875 -11.0009765625 m 0
 296.998046875 -11.0009765625 258.165039062 -2.8330078125 224.498046875 13.5 c 0
 190.831054688 29.8330078125 162.6640625 51.3330078125 139.997070312 78 c 0
 94.6640625 132 71.9970703125 199.333007812 71.9970703125 280 c 0
 71.9970703125 356 94.6640625 432.666992188 139.997070312 510 c 0
 182.6640625 583.333007812 237.997070312 643.333007812 305.997070312 690 c 0
 376.6640625 738.666992188 447.331054688 763 517.998046875 763 c 0
 597.998046875 762.333007812 662.665039062 732 711.998046875 672 c 0
 757.331054688 616.666992188 780.331054688 551 780.998046875 475 c 0
 780.331054688 406.333007812 761.331054688 335 723.998046875 261 c 0
 683.998046875 184.333007812 632.665039062 121.333007812 569.998046875 72 c 0
 499.331054688 17.3330078125 422.998046875 -10.333984375 340.998046875 -11.0009765625 c 0
EndSplineSet
EndChar

StartChar: Ocircumflex
Encoding: 212 212 150
Width: 769
GlyphClass: 2
Flags: W
LayerCount: 2
Fore
SplineSet
652 784 m 1
 546 845 l 1
 414 784 l 1
 372 784 l 1
 531 924 l 1
 593 924 l 1
 695 784 l 1
 652 784 l 1
520 736 m 0
 450.666992188 736 390.999023438 703.999023438 340.999023438 639.999023438 c 0
 298.33203125 585.33203125 264.999023438 513.999023438 240.999023438 425.999023438 c 0
 220.33203125 350.666015625 209.999023438 280.499023438 209.999023438 215.499023438 c 0
 209.999023438 150.499023438 220.499023438 101.499023438 241.499023438 68.4990234375 c 0
 262.499023438 35.4990234375 298.33203125 18.9990234375 348.999023438 18.9990234375 c 0
 420.33203125 18.33203125 480.665039062 51.33203125 529.998046875 117.999023438 c 0
 569.998046875 171.33203125 601.331054688 243.33203125 623.998046875 333.999023438 c 0
 642.665039062 407.999023438 651.83203125 471.83203125 651.499023438 525.499023438 c 0
 651.166015625 579.166015625 647.333007812 618.333007812 640 643 c 0
 632.666992188 667.666992188 623 686.666992188 611 700 c 0
 590.333007812 724 560 736 520 736 c 0
340.999023438 -11.0009765625 m 0
 296.999023438 -11.0009765625 258.166015625 -2.8330078125 224.499023438 13.5 c 0
 190.83203125 29.8330078125 162.665039062 51.3330078125 139.998046875 78 c 0
 94.6650390625 132 71.998046875 199.333007812 71.998046875 280 c 0
 71.998046875 356 94.6650390625 432.666992188 139.998046875 510 c 0
 182.665039062 583.333007812 237.998046875 643.333007812 305.998046875 690 c 0
 376.665039062 738.666992188 447.33203125 763 517.999023438 763 c 0
 597.999023438 762.333007812 662.666015625 732 711.999023438 672 c 0
 757.33203125 616.666992188 780.33203125 551 780.999023438 475 c 0
 780.33203125 406.333007812 761.33203125 335 723.999023438 261 c 0
 683.999023438 184.333007812 632.666015625 121.333007812 569.999023438 72 c 0
 499.33203125 17.3330078125 422.999023438 -10.333984375 340.999023438 -11.0009765625 c 0
EndSplineSet
EndChar

